<svg version="1.1" id="Layer_1" xmlns="http://www.w3.org/2000/svg" xmlns:xlink="http://www.w3.org/1999/xlink" x="0px" y="0px"
	 width="100%" viewBox="0 0 200 200" enable-background="new 0 0 200 200" xml:space="preserve">
<path fill="#FFC801" opacity="1.000000" stroke="none" 
	d="
M177.000076,201.000000 
	C118.000061,201.000000 59.500061,201.000000 1.000046,201.000000 
	C1.000031,134.333359 1.000031,67.666710 1.000015,1.000046 
	C67.666649,1.000031 134.333298,1.000031 200.999954,1.000015 
	C200.999969,67.666649 200.999969,134.333298 200.999985,200.999969 
	C193.166702,201.000000 185.333389,201.000000 177.000076,201.000000 
M164.587952,102.431618 
	C164.471695,103.018517 164.355438,103.605408 164.277145,104.231003 
	C164.277145,104.231003 164.265121,104.283958 163.526520,103.963997 
	C162.980423,102.355949 162.760010,100.509979 161.804047,99.201355 
	C160.663834,97.640533 158.893295,96.540184 157.271057,95.227676 
	C157.271057,95.227676 157.244690,95.105072 156.683258,94.647255 
	C155.088669,93.465691 153.494080,92.284134 152.000000,91.001221 
	C152.000000,91.001221 151.899841,91.104462 151.781967,90.820152 
	C151.510300,90.595543 151.238525,90.605270 150.566696,90.954025 
	C150.566696,90.954025 150.155746,90.999466 149.500275,91.154030 
	C148.769501,92.318108 148.038727,93.482185 147.310028,94.642952 
	C143.472794,94.364861 138.881653,91.976440 136.985596,98.013542 
	C136.985596,98.013542 137.019516,98.004784 136.175018,98.026085 
	C135.334244,98.131622 134.493454,98.237160 133.611404,98.360130 
	C133.611404,98.360130 133.568924,98.345978 133.707886,97.592773 
	C131.071152,95.351295 128.434402,93.109818 126.379814,91.363228 
	C124.574493,92.713089 123.058685,94.747490 121.708305,94.643044 
	C119.728485,94.489914 116.995949,93.276894 116.132080,91.678780 
	C114.187088,88.080605 111.258179,89.278275 110.038780,90.795242 
	C106.245316,95.514435 101.675240,94.549591 96.767845,94.093307 
	C93.019005,93.744751 88.666878,93.220070 85.509750,94.721802 
	C80.679947,97.019157 77.765129,94.545288 74.309570,92.544830 
	C73.472801,92.060410 72.653290,91.546204 71.442673,90.991417 
	C71.442673,90.991417 71.087212,90.836639 70.880943,90.318733 
	C69.954704,90.625359 69.028473,90.931976 68.102554,91.101418 
	C68.102554,91.101418 68.239456,91.110130 67.752182,91.299789 
	C67.527908,91.559036 67.303642,91.818275 67.048790,92.722198 
	C67.020241,93.151764 66.991699,93.581329 66.262993,93.895187 
	C56.901806,93.960091 47.539356,93.956787 38.180161,94.129501 
	C35.188541,94.184715 33.691097,95.950050 33.993797,99.013306 
	C33.993797,99.013306 34.040524,99.023926 33.350426,99.273300 
	C33.335415,101.469322 33.320404,103.665352 33.984287,105.973732 
	C37.795929,109.615082 42.864929,110.276428 48.251888,108.489525 
	C49.425152,108.623268 50.598415,108.757011 52.541969,109.036568 
	C54.702919,109.015602 56.863869,108.994637 59.215881,108.527458 
	C59.215881,108.527458 59.400700,108.077888 60.031830,108.091713 
	C61.008183,108.431084 61.984539,108.770454 63.470074,109.483131 
	C64.643570,109.387527 65.817070,109.291931 67.571419,108.994568 
	C67.756844,108.907257 67.942276,108.819939 68.572571,108.845680 
	C68.572571,108.845680 68.968582,109.077751 69.320839,109.412865 
	C69.902565,109.322273 70.484291,109.231674 71.471985,109.020393 
	C71.471985,109.020393 71.894501,108.991127 72.522400,109.033989 
	C72.731354,109.015312 72.940308,108.996635 73.522903,108.999512 
	C73.522903,108.999512 73.861923,109.158043 74.520508,109.572090 
	C79.081352,109.814224 83.639992,110.130783 88.204010,110.265785 
	C90.352036,110.329330 92.510391,110.043915 94.664062,109.916626 
	C96.323235,109.522751 98.058929,110.158203 99.801155,110.176636 
	C103.332184,110.214005 104.256165,107.443474 105.337303,104.727219 
	C105.744270,103.704758 107.098694,103.059418 108.021187,102.242157 
	C108.686195,103.218201 109.551788,104.116096 109.969604,105.188454 
	C110.609406,106.830566 110.940605,108.592903 111.505981,110.686256 
	C114.286781,110.122162 116.669388,109.638840 119.414780,108.997429 
	C119.414780,108.997429 119.802109,108.916222 120.486740,108.689713 
	C121.657608,108.461235 122.828476,108.232765 123.999870,108.000130 
	C123.999870,108.000130 123.995979,108.001221 124.264503,108.418571 
	C124.488319,108.673805 124.760811,108.856430 125.013870,108.965698 
	C125.013870,108.965698 125.031914,108.900032 125.361252,109.495987 
	C127.380409,110.596825 129.545914,113.820663 131.334137,108.943481 
	C131.334137,108.943481 131.562897,108.950462 132.135941,108.754807 
	C132.419449,108.476257 132.702972,108.197708 132.989624,107.989754 
	C132.989624,107.989754 132.918976,107.990929 133.432648,107.598145 
	C134.319336,107.041595 135.206039,106.485039 136.687073,106.315781 
	C138.929718,110.358368 141.907501,111.474342 146.012039,109.125534 
	C147.389771,109.065430 148.767487,109.005325 150.595459,109.005211 
	C150.595459,109.005211 151.034760,109.121620 151.266754,109.294525 
	C151.599121,109.340897 151.799271,109.193878 151.905945,108.860855 
	C151.905945,108.860855 151.875000,108.852371 152.587906,108.621071 
	C153.294815,105.811058 154.001709,103.001045 154.708603,100.191025 
	C155.802917,101.720299 155.996246,103.485840 156.494492,105.160675 
	C156.879852,106.456100 157.647003,107.637947 158.621307,108.970535 
	C158.621307,108.970535 158.971451,109.142242 159.323029,109.753738 
	C160.731918,111.074318 162.140808,112.394897 163.549698,113.715477 
	C164.349106,111.937561 165.187286,110.175354 165.918777,108.369919 
	C166.087097,107.954445 165.889343,107.390663 165.895584,106.934464 
	C165.895584,106.934464 165.854691,106.921013 166.567917,106.716957 
	C167.002502,105.097679 167.437073,103.478401 167.875992,101.946579 
	C167.875992,101.946579 167.810318,101.888657 168.509583,101.767990 
	C170.362152,100.164864 172.214722,98.561729 174.013382,96.992599 
	C174.013382,96.992599 174.004120,96.929543 174.333298,97.337250 
	C174.652008,97.470680 174.970718,97.604111 175.266647,97.611877 
	C175.266647,97.611877 175.392288,97.588966 175.346375,98.258156 
	C177.248428,100.027443 177.429810,102.039192 176.049866,104.200233 
	C176.049866,104.200233 176.199600,104.206741 175.473099,104.138657 
	C174.671021,104.837509 173.868942,105.536362 173.010757,106.630989 
	C173.010757,106.630989 172.873962,107.006569 172.588287,107.456841 
	C172.887329,108.088776 173.186386,108.720711 173.485443,109.352638 
	C173.982040,108.880478 174.478638,108.408318 174.989090,107.997223 
	C174.989090,107.997223 174.935242,107.965286 175.700928,107.975769 
	C176.761459,107.184288 177.821976,106.392815 179.378159,105.173470 
	C186.033173,101.176346 186.031937,101.178375 179.568268,97.227158 
	C179.009552,96.885612 178.481766,96.493477 177.810989,95.399094 
	C175.785431,94.146454 173.759872,92.893814 171.789215,91.321190 
	C171.789215,91.321190 171.981415,91.059555 172.242691,90.836731 
	C172.285583,90.731453 172.389282,90.602821 172.359573,90.525436 
	C172.281769,90.322876 172.145706,90.142700 171.853592,89.681122 
	C171.853592,89.681122 171.802872,89.358917 171.739182,89.066315 
	C171.739182,89.066315 171.382050,88.903076 171.382050,88.903076 
	C171.382050,88.903076 171.074341,89.183884 170.784348,89.319115 
	C170.784348,89.319115 170.468506,89.267792 169.725983,89.282753 
	C168.531830,92.571648 167.337692,95.860550 166.116959,99.067665 
	C166.116959,99.067665 166.200821,99.048676 165.675537,99.476074 
	C165.450531,100.323425 165.225525,101.170776 164.989609,101.997910 
	C164.989609,101.997910 165.011185,101.990173 164.587952,102.431618 
M28.968782,95.019447 
	C27.561523,95.307854 25.944723,95.252396 24.790367,95.955826 
	C22.343552,97.446854 20.137815,99.333504 17.833221,101.057922 
	C20.197029,102.454369 22.565535,103.842949 24.922066,105.251579 
	C25.731916,105.735680 26.511858,106.269814 27.305464,106.781082 
	C27.393806,106.646889 27.482149,106.512695 27.570492,106.378502 
	C25.548048,104.756592 23.525602,103.134674 21.107679,101.195602 
	C24.225222,98.951996 26.570330,97.264290 28.968782,95.019447 
z"/>
<path fill="#EABE1C" opacity="1.000000" stroke="none" 
	d="
M119.051994,109.155518 
	C116.669388,109.638840 114.286781,110.122162 111.505981,110.686256 
	C110.940605,108.592903 110.609406,106.830566 109.969604,105.188454 
	C109.551788,104.116096 108.686195,103.218201 108.021187,102.242157 
	C107.098694,103.059418 105.744270,103.704758 105.337303,104.727219 
	C104.256165,107.443474 103.332184,110.214005 99.801155,110.176636 
	C98.058929,110.158203 96.323235,109.522751 94.664062,109.916626 
	C92.510391,110.043915 90.352036,110.329330 88.204010,110.265785 
	C83.639992,110.130783 79.081352,109.814224 74.584595,109.322922 
	C77.116547,107.673492 79.584412,106.273239 82.089149,105.246452 
	C87.526886,110.842926 89.717133,110.548805 93.256912,104.335281 
	C93.650826,103.643829 94.955559,103.471260 95.915802,103.374023 
	C96.349045,104.461266 96.704391,105.232544 97.063293,106.284103 
	C97.332047,106.811378 97.597244,107.058380 98.106796,107.599350 
	C102.785515,107.572250 104.312401,104.610115 103.604805,95.819885 
	C102.260536,98.512901 101.708046,100.095718 100.732773,101.349731 
	C100.316551,101.884911 99.017754,101.733719 98.140015,101.546371 
	C97.847328,100.443375 97.534645,99.688431 97.129074,98.568771 
	C96.032372,97.829216 95.028564,97.454361 93.611549,97.021172 
	C88.799500,95.576805 84.391335,94.157372 81.681381,99.985107 
	C78.583084,98.064011 75.836067,96.237572 73.089050,94.411125 
	C72.790237,94.756302 72.491425,95.101471 72.192612,95.446648 
	C72.070351,93.979668 71.948097,92.512688 71.825836,91.045708 
	C72.653290,91.546204 73.472801,92.060410 74.309570,92.544830 
	C77.765129,94.545288 80.679947,97.019157 85.509750,94.721802 
	C88.666878,93.220070 93.019005,93.744751 96.767845,94.093307 
	C101.675240,94.549591 106.245316,95.514435 110.038780,90.795242 
	C111.258179,89.278275 114.187088,88.080605 116.132080,91.678780 
	C116.995949,93.276894 119.728485,94.489914 121.708305,94.643044 
	C123.058685,94.747490 124.574493,92.713089 126.379814,91.363228 
	C128.434402,93.109818 131.071152,95.351295 133.406662,97.723274 
	C128.444565,94.105003 126.248947,94.714279 122.565475,99.048843 
	C119.154167,103.063141 122.692307,105.177689 123.999344,108.004288 
	C122.828476,108.232765 121.657608,108.461235 120.120132,108.424202 
	C115.442650,106.775475 112.007637,104.850479 114.447449,99.399574 
	C116.137375,98.637138 117.930519,97.828133 121.024979,96.432022 
	C117.721344,95.854774 115.997223,95.553513 114.480133,95.288429 
	C113.983025,93.707443 113.578011,92.419365 112.853203,90.114197 
	C112.009285,92.479874 111.853371,94.071068 110.987999,95.004646 
	C110.189377,95.866211 108.629585,96.022209 108.363068,96.123795 
	C109.602272,98.155891 111.423927,99.819695 111.574036,101.622673 
	C112.164810,108.718185 111.969650,108.734436 119.051994,109.155518 
z"/>
<path fill="#403206" opacity="1.000000" stroke="none" 
	d="
M82.052277,104.872993 
	C79.584412,106.273239 77.116547,107.673492 74.255310,109.115891 
	C73.861923,109.158043 73.522903,108.999512 73.217117,108.787262 
	C72.572388,108.713707 72.233444,108.852417 71.894501,108.991127 
	C71.894501,108.991127 71.471985,109.020393 70.922501,109.010696 
	C69.904869,109.026573 69.436722,109.052162 68.968582,109.077751 
	C68.968582,109.077751 68.572571,108.845680 68.378899,108.344757 
	C68.121742,102.600502 68.058258,97.357170 68.082184,91.869308 
	C68.192879,91.453232 68.216164,91.281677 68.239456,91.110130 
	C68.239456,91.110130 68.102554,91.101418 68.474258,91.110771 
	C69.593048,91.025635 70.340134,90.931137 71.087212,90.836639 
	C71.087212,90.836639 71.442673,90.991417 71.634254,91.018562 
	C71.948097,92.512688 72.070351,93.979668 72.192612,95.446648 
	C72.491425,95.101471 72.790237,94.756302 73.089050,94.411125 
	C75.836067,96.237572 78.583084,98.064011 81.915230,100.147339 
	C83.695061,100.404213 84.889755,100.404213 86.084457,100.404213 
	C86.332268,100.917732 86.580078,101.431244 86.827888,101.944763 
	C85.236023,102.920837 83.644150,103.896919 82.052277,104.872993 
M73.731949,99.177750 
	C73.149101,100.105675 72.097672,101.036186 72.102783,101.960869 
	C72.109085,103.099991 72.845718,104.349197 73.582138,105.308746 
	C73.842682,105.648209 75.473335,105.553253 75.710060,105.175323 
	C76.356796,104.142822 77.061180,102.765480 76.857681,101.692589 
	C76.668556,100.695419 75.338570,99.914642 73.731949,99.177750 
z"/>
<path fill="#493B0B" opacity="1.000000" stroke="none" 
	d="
M48.001862,107.802597 
	C42.864929,110.276428 37.795929,109.615082 33.570297,105.526138 
	C33.451042,103.060333 33.745785,101.042130 34.040524,99.023926 
	C34.040524,99.023926 33.993797,99.013306 34.269470,98.802933 
	C37.830189,95.045380 41.810505,94.574997 47.230312,97.401077 
	C47.582405,101.062111 47.792133,104.432358 48.001862,107.802597 
M42.138863,104.500229 
	C43.275440,102.090034 43.292507,99.889931 40.241436,99.246178 
	C39.649750,99.121338 38.002029,101.050667 37.906742,102.126793 
	C37.696129,104.505341 38.470955,106.538849 42.138863,104.500229 
z"/>
<path fill="#5F4502" opacity="1.000000" stroke="none" 
	d="
M28.942110,95.298012 
	C26.570330,97.264290 24.225222,98.951996 21.107679,101.195602 
	C23.525602,103.134674 25.548048,104.756592 27.570492,106.378502 
	C27.482149,106.512695 27.393806,106.646889 27.305464,106.781082 
	C26.511858,106.269814 25.731916,105.735680 24.922066,105.251579 
	C22.565535,103.842949 20.197029,102.454369 17.833221,101.057922 
	C20.137815,99.333504 22.343552,97.446854 24.790367,95.955826 
	C25.944723,95.252396 27.561523,95.307854 28.942110,95.298012 
z"/>
<path fill="#5F4502" opacity="1.000000" stroke="none" 
	d="
M123.999603,108.002213 
	C122.692307,105.177689 119.154167,103.063141 122.565475,99.048843 
	C126.248947,94.714279 128.444565,94.105003 133.337189,98.099876 
	C133.568924,98.345978 133.611404,98.360130 133.740280,98.714241 
	C134.315430,100.173546 134.761688,101.278748 135.382431,102.816010 
	C132.453827,102.816010 130.213562,102.816010 127.973068,102.573944 
	C127.959129,102.009354 127.955460,101.686714 128.252808,101.248215 
	C128.743439,101.071411 128.943085,101.010345 129.466385,101.009766 
	C130.407532,100.765877 131.025024,100.461494 131.642532,100.157120 
	C131.114334,99.428902 130.586136,98.700691 129.851959,97.760757 
	C128.731491,97.611023 127.816994,97.673019 126.619194,97.815033 
	C125.893074,98.994148 125.450256,100.093254 125.009834,101.481308 
	C125.007332,102.155617 125.002441,102.540970 124.851959,103.161453 
	C125.170181,104.239189 125.633995,105.081795 126.492462,105.997101 
	C128.214203,105.978165 129.541290,105.886528 131.258682,105.842010 
	C132.072311,106.589722 132.495651,107.290329 132.918976,107.990929 
	C132.918976,107.990929 132.989624,107.989754 132.699982,108.048508 
	C132.127853,108.388321 131.845367,108.669395 131.562897,108.950462 
	C131.562897,108.950462 131.334137,108.943481 130.803284,109.022858 
	C128.525574,109.034836 126.778748,108.967438 125.031914,108.900032 
	C125.031914,108.900032 125.013870,108.965698 124.959206,108.720306 
	C124.601685,108.317024 124.298836,108.159119 123.995979,108.001221 
	C123.995979,108.001221 123.999870,108.000130 123.999603,108.002213 
z"/>
<path fill="#E5BB26" opacity="1.000000" stroke="none" 
	d="
M150.145218,108.945221 
	C148.767487,109.005325 147.389771,109.065430 146.102295,108.595734 
	C146.492859,107.305885 146.793182,106.545822 147.249939,105.449760 
	C148.556396,99.504997 147.790939,98.541222 140.646942,96.958282 
	C139.197464,97.263321 138.099045,97.655121 137.000610,98.046921 
	C138.881653,91.976440 143.472794,94.364861 147.310028,94.642952 
	C148.038727,93.482185 148.769501,92.318108 149.754501,91.541977 
	C150.054214,97.601692 150.099716,103.273460 150.145218,108.945221 
z"/>
<path fill="#5F4502" opacity="1.000000" stroke="none" 
	d="
M119.233383,109.076477 
	C111.969650,108.734436 112.164810,108.718185 111.574036,101.622673 
	C111.423927,99.819695 109.602272,98.155891 108.363068,96.123795 
	C108.629585,96.022209 110.189377,95.866211 110.987999,95.004646 
	C111.853371,94.071068 112.009285,92.479874 112.853203,90.114197 
	C113.578011,92.419365 113.983025,93.707443 114.480133,95.288429 
	C115.997223,95.553513 117.721344,95.854774 121.024979,96.432022 
	C117.930519,97.828133 116.137375,98.637138 114.447449,99.399574 
	C112.007637,104.850479 115.442650,106.775475 119.777817,108.537460 
	C119.802109,108.916222 119.414780,108.997429 119.233383,109.076477 
z"/>
<path fill="#EABE1C" opacity="1.000000" stroke="none" 
	d="
M47.087952,97.110283 
	C41.810505,94.574997 37.830189,95.045380 34.288486,98.818352 
	C33.691097,95.950050 35.188541,94.184715 38.180161,94.129501 
	C47.539356,93.956787 56.901806,93.960091 66.626907,94.313454 
	C66.595795,95.570808 66.200768,96.409897 65.519119,97.054161 
	C64.632492,96.593742 64.032478,96.328140 63.377487,96.045242 
	C63.322517,96.027939 63.235325,96.103317 62.941990,95.927307 
	C61.425289,96.150658 60.201923,96.550011 58.731556,96.978043 
	C58.484554,97.006714 57.987251,97.009949 57.692673,96.702576 
	C53.961384,96.633560 50.524666,96.871925 47.087952,97.110283 
z"/>
<path fill="#403206" opacity="1.000000" stroke="none" 
	d="
M47.230312,97.401077 
	C50.524666,96.871925 53.961384,96.633560 57.455383,96.824104 
	C56.341824,97.789276 55.170979,98.325539 53.615646,98.999489 
	C52.744667,102.388367 52.258175,105.639565 51.771679,108.890762 
	C50.598415,108.757011 49.425152,108.623268 48.126877,108.146057 
	C47.792133,104.432358 47.582405,101.062111 47.230312,97.401077 
M50.357735,98.105019 
	C50.357735,98.105019 50.634922,98.025505 50.634922,98.025505 
	C50.634922,98.025505 50.359474,97.936058 50.357735,98.105019 
z"/>
<path fill="#5F4502" opacity="1.000000" stroke="none" 
	d="
M172.873962,107.006569 
	C172.873962,107.006569 173.010757,106.630989 173.336670,106.324158 
	C174.508270,105.413795 175.353928,104.810265 176.199600,104.206741 
	C176.199600,104.206741 176.049866,104.200233 176.447113,104.152618 
	C178.357010,103.253761 179.869659,102.402527 182.173141,101.106255 
	C179.402084,99.668884 177.397186,98.628929 175.392288,97.588966 
	C175.392288,97.588966 175.266647,97.611877 175.137543,97.444214 
	C174.673676,97.160881 174.338898,97.045212 174.004120,96.929543 
	C174.004120,96.929543 174.013382,96.992599 173.902008,96.695633 
	C174.047974,95.789261 174.305313,95.179848 174.562653,94.570442 
	C175.688309,95.088577 176.813950,95.606712 177.939606,96.124847 
	C178.481766,96.493477 179.009552,96.885612 179.568268,97.227158 
	C186.031937,101.178375 186.033173,101.176346 178.813019,105.493477 
	C177.143646,106.530746 176.039444,107.248016 174.935242,107.965286 
	C174.935242,107.965286 174.989090,107.997223 174.664429,107.964546 
	C173.851181,107.623436 173.362564,107.315002 172.873962,107.006569 
z"/>
<path fill="#4C3702" opacity="1.000000" stroke="none" 
	d="
M136.993103,98.030228 
	C138.099045,97.655121 139.197464,97.263321 140.643616,97.343567 
	C140.901428,98.120872 140.782120,98.420868 140.726257,98.732246 
	C140.296082,101.130661 139.878204,103.531288 139.456497,105.931229 
	C141.678848,105.890549 143.901215,105.850113 146.123566,105.808960 
	C146.446915,105.802971 146.770187,105.793579 147.093506,105.785767 
	C146.793182,106.545822 146.492859,107.305885 146.036926,108.345627 
	C141.907501,111.474342 138.929718,110.358368 136.353531,105.708122 
	C136.353165,102.735237 136.686340,100.370010 137.019516,98.004784 
	C137.019516,98.004784 136.985596,98.013542 136.993103,98.030228 
z"/>
<path fill="#E5BB26" opacity="1.000000" stroke="none" 
	d="
M157.395828,95.240349 
	C158.893295,96.540184 160.663834,97.640533 161.804047,99.201355 
	C162.760010,100.509979 162.980423,102.355949 163.840256,104.478989 
	C163.407074,107.273659 162.660141,109.553345 161.913208,111.833031 
	C162.301575,111.975487 162.689941,112.117935 163.078308,112.260391 
	C164.005569,110.471970 164.932816,108.683548 165.860077,106.895126 
	C165.889343,107.390663 166.087097,107.954445 165.918777,108.369919 
	C165.187286,110.175354 164.349106,111.937561 163.549698,113.715477 
	C162.140808,112.394897 160.731918,111.074318 159.516510,109.318573 
	C161.023285,103.982117 162.182007,99.107040 157.395828,95.240349 
z"/>
<path fill="#705209" opacity="1.000000" stroke="none" 
	d="
M157.333435,95.234009 
	C162.182007,99.107040 161.023285,103.982117 159.340714,109.012825 
	C158.971451,109.142242 158.621307,108.970535 158.398895,108.472046 
	C158.155716,106.001968 158.069260,104.028397 158.128387,102.059212 
	C158.239487,98.359138 156.774765,96.763512 153.001160,97.667572 
	C153.019470,96.821152 153.050110,96.337845 153.422897,95.780357 
	C154.924927,95.505806 156.084808,95.305443 157.244690,95.105072 
	C157.244690,95.105072 157.271057,95.227676 157.333435,95.234009 
z"/>
<path fill="#5F4502" opacity="1.000000" stroke="none" 
	d="
M165.877838,106.914795 
	C164.932816,108.683548 164.005569,110.471970 163.078308,112.260391 
	C162.689941,112.117935 162.301575,111.975487 161.913208,111.833031 
	C162.660141,109.553345 163.407074,107.273659 164.209564,104.638962 
	C164.265121,104.283958 164.277145,104.231003 164.472076,103.995926 
	C164.781738,103.170624 164.896454,102.580399 165.011169,101.990173 
	C165.011185,101.990173 164.989609,101.997910 165.240143,101.786804 
	C165.727386,100.733360 165.964096,99.891014 166.200821,99.048676 
	C166.200821,99.048676 166.116959,99.067665 166.390503,98.869293 
	C167.932220,95.536545 169.200363,92.402168 170.468506,89.267792 
	C170.468506,89.267792 170.784348,89.319115 171.102478,89.330597 
	C171.420609,89.342079 171.802872,89.358917 171.802872,89.358917 
	C171.802872,89.358917 171.853592,89.681122 171.900787,90.092758 
	C171.959137,90.689445 171.970276,90.874504 171.981415,91.059555 
	C171.981415,91.059555 171.789215,91.321190 171.526016,91.754929 
	C170.111984,95.421997 168.961151,98.655327 167.810318,101.888657 
	C167.810318,101.888657 167.875992,101.946579 167.624908,102.142288 
	C166.867432,103.865662 166.361053,105.393341 165.854691,106.921013 
	C165.854691,106.921013 165.895584,106.934464 165.877838,106.914795 
z"/>
<path fill="#E5BB26" opacity="1.000000" stroke="none" 
	d="
M153.013458,98.030693 
	C156.774765,96.763512 158.239487,98.359138 158.128387,102.059212 
	C158.069260,104.028397 158.155716,106.001968 158.210449,108.421921 
	C157.647003,107.637947 156.879852,106.456100 156.494492,105.160675 
	C155.996246,103.485840 155.802917,101.720299 154.708603,100.191025 
	C154.001709,103.001045 153.294815,105.811058 152.255981,108.300720 
	C152.287201,104.663811 152.650330,101.347252 153.013458,98.030693 
z"/>
<path fill="#443504" opacity="1.000000" stroke="none" 
	d="
M153.001160,97.667572 
	C152.650330,101.347252 152.287201,104.663811 151.899536,108.416367 
	C151.875000,108.852371 151.905945,108.860855 151.671082,108.900269 
	C151.436203,108.939674 151.034760,109.121620 151.034760,109.121620 
	C151.034760,109.121620 150.595459,109.005211 150.370331,108.975220 
	C150.099716,103.273460 150.054214,97.601692 150.082245,91.464699 
	C150.155746,90.999466 150.566696,90.954025 150.993729,90.989120 
	C151.420761,91.024208 151.899841,91.104462 151.899841,91.104462 
	C151.899841,91.104462 152.000000,91.001221 151.967041,91.412689 
	C152.316299,93.167625 152.698517,94.511086 153.080750,95.854546 
	C153.050110,96.337845 153.019470,96.821152 153.001160,97.667572 
z"/>
<path fill="#E5BB26" opacity="1.000000" stroke="none" 
	d="
M52.156822,108.963669 
	C52.258175,105.639565 52.744667,102.388367 53.949448,99.242172 
	C56.023418,102.419624 53.062592,107.002487 58.240555,108.893982 
	C58.672451,108.965248 58.848637,108.969460 59.024818,108.973663 
	C56.863869,108.994637 54.702919,109.015602 52.156822,108.963669 
z"/>
<path fill="#EABE1C" opacity="1.000000" stroke="none" 
	d="
M136.597260,98.015434 
	C136.686340,100.370010 136.353165,102.735237 136.056366,105.514473 
	C135.206039,106.485039 134.319336,107.041595 133.175812,107.794540 
	C132.495651,107.290329 132.072311,106.589722 131.160507,105.528847 
	C129.147293,105.420517 127.622551,105.672455 126.097809,105.924400 
	C125.633995,105.081795 125.170181,104.239189 125.225273,103.172844 
	C126.487221,102.904739 127.230263,102.860374 127.973305,102.816010 
	C130.213562,102.816010 132.453827,102.816010 135.382431,102.816010 
	C134.761688,101.278748 134.315430,100.173546 133.760925,98.705521 
	C134.493454,98.237160 135.334244,98.131622 136.597260,98.015434 
z"/>
<path fill="#E5BB26" opacity="1.000000" stroke="none" 
	d="
M62.960896,109.109825 
	C61.984539,108.770454 61.008183,108.431084 59.602596,107.648239 
	C59.180847,104.827110 59.188332,102.449463 59.401108,100.038200 
	C59.606403,100.004585 59.986774,99.836334 60.384567,99.902039 
	C61.425323,100.841843 62.433853,101.639816 62.635010,102.605904 
	C63.051350,104.605476 63.038204,106.694466 63.140518,108.836823 
	C63.079350,108.926964 62.960896,109.109825 62.960896,109.109825 
z"/>
<path fill="#E5BB26" opacity="1.000000" stroke="none" 
	d="
M168.159943,101.828323 
	C168.961151,98.655327 170.111984,95.421997 171.498566,91.914917 
	C173.759872,92.893814 175.785431,94.146454 177.875305,95.761971 
	C176.813950,95.606712 175.688309,95.088577 174.562653,94.570442 
	C174.305313,95.179848 174.047974,95.789261 173.928955,96.678635 
	C172.214722,98.561729 170.362152,100.164864 168.159943,101.828323 
z"/>
<path fill="#D3B444" opacity="1.000000" stroke="none" 
	d="
M65.805740,97.248985 
	C66.200768,96.409897 66.595795,95.570808 66.976990,94.371307 
	C66.991699,93.581329 67.020241,93.151764 67.292923,92.400238 
	C67.537056,92.078278 67.994766,92.113846 67.994766,92.113846 
	C68.058258,97.357170 68.121742,102.600502 68.156471,108.288223 
	C67.942276,108.819939 67.756844,108.907257 67.279427,109.001198 
	C66.987434,109.007828 66.966309,108.820488 66.863266,108.439713 
	C66.442062,104.455612 66.123901,100.852303 65.805740,97.248985 
z"/>
<path fill="#E5BB26" opacity="1.000000" stroke="none" 
	d="
M175.369324,97.923561 
	C177.397186,98.628929 179.402084,99.668884 182.173141,101.106255 
	C179.869659,102.402527 178.357010,103.253761 176.517609,104.178040 
	C177.429810,102.039192 177.248428,100.027443 175.369324,97.923561 
z"/>
<path fill="#E5BB26" opacity="1.000000" stroke="none" 
	d="
M170.097260,89.275276 
	C169.200363,92.402168 167.932220,95.536545 166.403809,98.910187 
	C167.337692,95.860550 168.531830,92.571648 170.097260,89.275276 
z"/>
<path fill="#EABE1C" opacity="1.000000" stroke="none" 
	d="
M125.196579,109.198013 
	C126.778748,108.967438 128.525574,109.034836 130.717972,109.099136 
	C129.545914,113.820663 127.380409,110.596825 125.196579,109.198013 
z"/>
<path fill="#E5BB26" opacity="1.000000" stroke="none" 
	d="
M153.422882,95.780357 
	C152.698517,94.511086 152.316299,93.167625 151.916779,91.463364 
	C153.494080,92.284134 155.088669,93.465691 156.963974,94.876167 
	C156.084808,95.305443 154.924927,95.505806 153.422882,95.780357 
z"/>
<path fill="#403206" opacity="1.000000" stroke="none" 
	d="
M59.195820,100.071815 
	C59.188332,102.449463 59.180847,104.827110 59.287033,107.641327 
	C59.400700,108.077888 59.215881,108.527458 59.120350,108.750565 
	C58.848637,108.969460 58.672451,108.965248 58.248528,108.466507 
	C58.399136,105.338593 58.797478,102.705208 59.195820,100.071815 
z"/>
<path fill="#EABE1C" opacity="1.000000" stroke="none" 
	d="
M33.695473,99.148613 
	C33.745785,101.042130 33.451042,103.060333 33.230850,105.469955 
	C33.320404,103.665352 33.335415,101.469322 33.695473,99.148613 
z"/>
<path fill="#E5BB26" opacity="1.000000" stroke="none" 
	d="
M166.211304,106.818985 
	C166.361053,105.393341 166.867432,103.865662 167.622726,102.098557 
	C167.437073,103.478401 167.002502,105.097679 166.211304,106.818985 
z"/>
<path fill="#E5BB26" opacity="1.000000" stroke="none" 
	d="
M172.731125,107.231705 
	C173.362564,107.315002 173.851181,107.623436 174.657501,107.934013 
	C174.478638,108.408318 173.982040,108.880478 173.485443,109.352638 
	C173.186386,108.720711 172.887329,108.088776 172.731125,107.231705 
z"/>
<path fill="#E5BB26" opacity="1.000000" stroke="none" 
	d="
M175.318085,107.970520 
	C176.039444,107.248016 177.143646,106.530746 178.565186,105.707413 
	C177.821976,106.392815 176.761459,107.184288 175.318085,107.970520 
z"/>
<path fill="#E5BB26" opacity="1.000000" stroke="none" 
	d="
M175.836349,104.172699 
	C175.353928,104.810265 174.508270,105.413795 173.364731,106.126266 
	C173.868942,105.536362 174.671021,104.837509 175.836349,104.172699 
z"/>
<path fill="#EABE1C" opacity="1.000000" stroke="none" 
	d="
M70.984077,90.577682 
	C70.340134,90.931137 69.593048,91.025635 68.474106,91.179359 
	C69.028473,90.931976 69.954704,90.625359 70.984077,90.577682 
z"/>
<path fill="#EABE1C" opacity="1.000000" stroke="none" 
	d="
M66.988998,109.102081 
	C65.817070,109.291931 64.643570,109.387527 63.215485,109.296478 
	C62.960896,109.109825 63.079350,108.926964 63.513634,108.897781 
	C64.954048,108.852570 65.960175,108.836525 66.966309,108.820480 
	C66.966309,108.820488 66.987434,109.007828 66.988998,109.102081 
z"/>
<path fill="#E5BB26" opacity="1.000000" stroke="none" 
	d="
M165.938171,99.262375 
	C165.964096,99.891014 165.727386,100.733360 165.245590,101.796913 
	C165.225525,101.170776 165.450531,100.323425 165.938171,99.262375 
z"/>
<path fill="#E5BB26" opacity="1.000000" stroke="none" 
	d="
M164.799561,102.210892 
	C164.896454,102.580399 164.781738,103.170624 164.453094,103.976578 
	C164.355438,103.605408 164.471695,103.018517 164.799561,102.210892 
z"/>
<path fill="#EABE1C" opacity="1.000000" stroke="none" 
	d="
M69.144714,109.245308 
	C69.436722,109.052162 69.904869,109.026573 70.719513,109.071037 
	C70.484291,109.231674 69.902565,109.322273 69.144714,109.245308 
z"/>
<path fill="#EABE1C" opacity="1.000000" stroke="none" 
	d="
M124.130241,108.209900 
	C124.298836,108.159119 124.601685,108.317024 124.993256,108.720673 
	C124.760811,108.856430 124.488319,108.673805 124.130241,108.209900 
z"/>
<path fill="#E5BB26" opacity="1.000000" stroke="none" 
	d="
M174.168701,97.133392 
	C174.338898,97.045212 174.673676,97.160881 175.148941,97.507034 
	C174.970718,97.604111 174.652008,97.470680 174.168701,97.133392 
z"/>
<path fill="#EABE1C" opacity="1.000000" stroke="none" 
	d="
M131.849426,108.852631 
	C131.845367,108.669395 132.127853,108.388321 132.698410,108.013206 
	C132.702972,108.197708 132.419449,108.476257 131.849426,108.852631 
z"/>
<path fill="#E5BB26" opacity="1.000000" stroke="none" 
	d="
M151.150757,109.208069 
	C151.034760,109.121620 151.436203,108.939674 151.651703,108.896576 
	C151.799271,109.193878 151.599121,109.340897 151.150757,109.208069 
z"/>
<path fill="#EABE1C" opacity="1.000000" stroke="none" 
	d="
M72.208450,109.012558 
	C72.233444,108.852417 72.572388,108.713707 73.030304,108.776489 
	C72.940308,108.996635 72.731354,109.015312 72.208450,109.012558 
z"/>
<path fill="#EABE1C" opacity="1.000000" stroke="none" 
	d="
M68.082176,91.869308 
	C67.994766,92.113846 67.537056,92.078278 67.308212,92.077896 
	C67.303642,91.818275 67.527908,91.559036 67.995819,91.204956 
	C68.216164,91.281677 68.192879,91.453232 68.082176,91.869308 
z"/>
<path fill="#E5BB26" opacity="1.000000" stroke="none" 
	d="
M172.112061,90.948143 
	C171.970276,90.874504 171.959137,90.689445 171.990433,90.228996 
	C172.145706,90.142700 172.281769,90.322876 172.359573,90.525436 
	C172.389282,90.602821 172.285583,90.731453 172.112061,90.948143 
z"/>
<path fill="#E5BB26" opacity="1.000000" stroke="none" 
	d="
M151.840912,90.962311 
	C151.899841,91.104462 151.420761,91.024208 151.193726,90.936768 
	C151.238525,90.605270 151.510300,90.595543 151.840912,90.962311 
z"/>
<path fill="#E5BB26" opacity="1.000000" stroke="none" 
	d="
M171.771027,89.212616 
	C171.802872,89.358917 171.420609,89.342079 171.247467,89.262985 
	C171.074341,89.183884 171.382050,88.903076 171.382050,88.903076 
	C171.382050,88.903076 171.739182,89.066315 171.771027,89.212616 
z"/>
<path fill="#443504" opacity="1.000000" stroke="none" 
	d="
M82.089149,105.246460 
	C83.644150,103.896919 85.236023,102.920837 86.827888,101.944763 
	C86.580078,101.431244 86.332268,100.917732 86.084457,100.404213 
	C84.889755,100.404213 83.695061,100.404213 82.266510,100.241989 
	C84.391335,94.157372 88.799500,95.576805 93.719482,97.345367 
	C95.234406,98.129768 96.228180,98.531624 97.221954,98.933479 
	C97.534645,99.688431 97.847328,100.443375 97.853271,101.688377 
	C96.976997,102.471642 96.407448,102.764854 95.837898,103.058060 
	C94.955559,103.471260 93.650826,103.643829 93.256912,104.335281 
	C89.717133,110.548805 87.526886,110.842926 82.089149,105.246460 
z"/>
<path fill="#2E2608" opacity="1.000000" stroke="none" 
	d="
M95.915802,103.374031 
	C96.407448,102.764854 96.976997,102.471642 97.833275,102.036423 
	C99.017754,101.733719 100.316551,101.884911 100.732773,101.349731 
	C101.708046,100.095718 102.260536,98.512901 103.604805,95.819885 
	C104.312401,104.610115 102.785515,107.572250 98.025467,107.353523 
	C97.486420,106.543770 97.273079,106.273796 97.059738,106.003822 
	C96.704391,105.232544 96.349045,104.461266 95.915802,103.374031 
z"/>
<path fill="#2E2608" opacity="1.000000" stroke="none" 
	d="
M97.129074,98.568771 
	C96.228180,98.531624 95.234406,98.129768 94.132690,97.403709 
	C95.028564,97.454361 96.032372,97.829216 97.129074,98.568771 
z"/>
<path fill="#443504" opacity="1.000000" stroke="none" 
	d="
M97.063293,106.284103 
	C97.273079,106.273796 97.486420,106.543770 97.781105,107.059555 
	C97.597244,107.058380 97.332047,106.811378 97.063293,106.284103 
z"/>
<path fill="#E5BB26" opacity="1.000000" stroke="none" 
	d="
M74.121414,99.108170 
	C75.338570,99.914642 76.668556,100.695419 76.857681,101.692589 
	C77.061180,102.765480 76.356796,104.142822 75.710060,105.175323 
	C75.473335,105.553253 73.842682,105.648209 73.582138,105.308746 
	C72.845718,104.349197 72.109085,103.099991 72.102783,101.960869 
	C72.097672,101.036186 73.149101,100.105675 74.121414,99.108170 
z"/>
<path fill="#E5BB26" opacity="1.000000" stroke="none" 
	d="
M41.885895,104.770020 
	C38.470955,106.538849 37.696129,104.505341 37.906742,102.126793 
	C38.002029,101.050667 39.649750,99.121338 40.241436,99.246178 
	C43.292507,99.889931 43.275440,102.090034 41.885895,104.770020 
z"/>
<path fill="#FFC801" opacity="1.000000" stroke="none" 
	d="
M126.492462,105.997101 
	C127.622551,105.672455 129.147293,105.420517 130.770203,105.481735 
	C129.541290,105.886528 128.214203,105.978165 126.492462,105.997101 
z"/>
<path fill="#EABE1C" opacity="1.000000" stroke="none" 
	d="
M126.902489,97.735016 
	C127.816994,97.673019 128.731491,97.611023 129.810410,98.060600 
	C129.721298,99.114487 129.467758,99.656799 128.909363,100.160118 
	C128.037155,99.325752 127.469818,98.530388 126.902489,97.735016 
z"/>
<path fill="#E5BB26" opacity="1.000000" stroke="none" 
	d="
M126.619194,97.815033 
	C127.469818,98.530388 128.037155,99.325752 128.879822,100.345825 
	C129.155167,100.570526 129.142746,100.949287 129.142746,100.949287 
	C128.943085,101.010345 128.743439,101.071411 127.886963,101.192467 
	C126.489235,101.232430 125.748329,101.212395 125.007431,101.192360 
	C125.450256,100.093254 125.893074,98.994148 126.619194,97.815033 
z"/>
<path fill="#4C3702" opacity="1.000000" stroke="none" 
	d="
M125.009827,101.481308 
	C125.748329,101.212395 126.489235,101.232430 127.595978,101.308212 
	C127.955460,101.686714 127.959129,102.009354 127.973068,102.573944 
	C127.230263,102.860374 126.487221,102.904739 125.370865,102.937714 
	C125.002441,102.540970 125.007332,102.155617 125.009827,101.481308 
z"/>
<path fill="#D3B444" opacity="1.000000" stroke="none" 
	d="
M129.466385,101.009766 
	C129.142746,100.949287 129.155167,100.570526 129.184692,100.384819 
	C129.467758,99.656799 129.721298,99.114487 130.016373,98.272324 
	C130.586136,98.700691 131.114334,99.428902 131.642532,100.157120 
	C131.025024,100.461494 130.407532,100.765877 129.466385,101.009766 
z"/>
<path fill="#FAC70A" opacity="1.000000" stroke="none" 
	d="
M147.249939,105.449760 
	C146.770187,105.793579 146.446915,105.802971 146.123566,105.808960 
	C143.901215,105.850113 141.678848,105.890549 139.456497,105.931229 
	C139.878204,103.531288 140.296082,101.130661 140.726257,98.732246 
	C140.782120,98.420868 140.901428,98.120872 140.994675,97.430328 
	C147.790939,98.541222 148.556396,99.504997 147.249939,105.449760 
z"/>
<path fill="#403206" opacity="1.000000" stroke="none" 
	d="
M66.863266,108.439705 
	C65.960175,108.836525 64.954048,108.852570 63.574799,108.807648 
	C63.038204,106.694466 63.051350,104.605476 62.635010,102.605904 
	C62.433853,101.639816 61.425323,100.841843 60.528709,99.567657 
	C61.327534,98.132553 62.379997,97.097549 63.432461,96.062546 
	C64.032478,96.328140 64.632492,96.593742 65.519119,97.054161 
	C66.123901,100.852303 66.442062,104.455612 66.863266,108.439705 
z"/>
<path fill="#2E2608" opacity="1.000000" stroke="none" 
	d="
M63.377487,96.045242 
	C62.379997,97.097549 61.327534,98.132553 60.130920,99.501945 
	C59.986774,99.836334 59.606403,100.004585 59.401115,100.038200 
	C58.797478,102.705208 58.399136,105.338593 57.992821,108.399460 
	C53.062592,107.002487 56.023418,102.419624 54.333931,99.104492 
	C55.170979,98.325539 56.341824,97.789276 57.749962,97.131477 
	C57.987251,97.009949 58.484554,97.006714 59.169518,96.989868 
	C60.981430,96.683113 62.108376,96.393219 63.235325,96.103317 
	C63.235325,96.103317 63.322517,96.027939 63.377487,96.045242 
z"/>
<path fill="#403206" opacity="1.000000" stroke="none" 
	d="
M62.941990,95.927307 
	C62.108376,96.393219 60.981430,96.683113 59.416519,96.961189 
	C60.201923,96.550011 61.425289,96.150658 62.941990,95.927307 
z"/>
<path fill="#2E2608" opacity="1.000000" stroke="none" 
	d="
M50.358604,98.020538 
	C50.359474,97.936058 50.634922,98.025505 50.634922,98.025505 
	C50.634922,98.025505 50.357735,98.105019 50.358604,98.020538 
z"/>
</svg>