<?xml version="1.0" encoding="UTF-8"?>
<svg version="1.1" xmlns="http://www.w3.org/2000/svg" width="640" height="363">
<path d="M0 0 C4.3754983 4.07023098 6.79450361 7.38138887 7.2734375 13.484375 C8.1294512 38.57627666 -5.51273598 58.95744466 -22.01171875 76.82421875 C-23.60706821 78.57001374 -25.09935732 80.33288102 -26.5625 82.1875 C-29.10151854 85.11713678 -31.78823876 87.54006763 -34.73828125 90.04296875 C-36.28856122 91.38440271 -37.80584252 92.76465807 -39.29296875 94.17578125 C-66.13526633 119.60313601 -101.11843256 138.79321975 -137.42578125 146.34765625 C-141.05476144 147.23560448 -143.50504881 147.85892338 -145.90234375 150.79296875 C-146.57394531 151.91316406 -147.24554688 153.03335938 -147.9375 154.1875 C-148.74313787 155.45147779 -149.55460912 156.71175156 -150.37109375 157.96875 C-150.78987793 158.62746094 -151.20866211 159.28617188 -151.64013672 159.96484375 C-154.03571286 163.55003634 -156.76399495 166.85904508 -159.5 170.1875 C-160.05115479 170.86127686 -160.60230957 171.53505371 -161.17016602 172.22924805 C-165.24344828 177.16913482 -169.46263548 181.9410005 -173.8203125 186.6328125 C-175.69581648 188.66965016 -177.47732104 190.74954911 -179.25 192.875 C-184.62194485 199.09240832 -190.93169312 204.47876656 -197 210 C-180.18629244 217.30431558 -165.36289049 220.37976002 -147.38671875 214.3515625 C-136.1641678 209.87289741 -126.35668697 203.63340611 -117 196 C-116.19876709 195.3510376 -116.19876709 195.3510376 -115.38134766 194.68896484 C-105.27131063 186.44820851 -96.09928052 177.33095041 -87 168 C-83.09276393 169.859404 -79.78574805 172.29949955 -76.375 174.9375 C-75.78976562 175.38029297 -75.20453125 175.82308594 -74.6015625 176.27929688 C-71.87174895 178.37987588 -69.92725204 180.10912194 -68 183 C-68.6290625 183.71542969 -69.258125 184.43085938 -69.90625 185.16796875 C-82.43935827 199.30164358 -82.43935827 199.30164358 -87 217 C-73.2790683 219.55813981 -61.30538896 213.92033439 -49.20263672 208.03222656 C-47.11975291 207.05612007 -45.02056082 206.20434673 -42.87890625 205.3671875 C-38.49292865 203.50148968 -34.1846754 201.62640301 -32.12011719 197.04931641 C-30.69706929 192.26260492 -30.09549695 187.35391554 -29.41162109 182.41894531 C-25.50697996 159.47280985 -8.81685936 137.11694944 6 120 C6.69351562 119.195625 7.38703125 118.39125 8.1015625 117.5625 C10.35995554 115.00025045 12.6651036 112.49275889 15 110 C15.68739258 109.26160889 15.68739258 109.26160889 16.38867188 108.50830078 C33.17955163 90.61921275 55.33961447 72.42035315 80.8125 70.75 C87.01980223 70.85702245 92.2279025 72.52325208 97 76.5 C101.29737237 81.87171547 100.6125294 88.44023749 100 95 C94.80115893 115.23661033 79.93779172 133.02573845 66 148 C64.91259634 149.26735226 63.82914406 150.53810738 62.75 151.8125 C55.18071285 160.49336079 46.81393782 168.59564415 38 176 C37.071875 176.80566406 36.14375 177.61132812 35.1875 178.44140625 C1.00234375 208 1.00234375 208 -6 208 C-4.35271359 211.95348738 -2.46909224 213.5183618 1.3125 215.25 C10.54801493 218.93825717 19.80982893 218.64727191 29.375 216.4375 C30.5196875 216.17731079 30.5196875 216.17731079 31.6875 215.91186523 C40.04929072 213.90398002 48.01742581 211.00181922 55.97363281 207.76708984 C58 207 58 207 61.2421875 206.17578125 C64.43547396 205.20452943 65.82500089 204.56631695 68 202 C69.94059614 196.98780026 70.85175112 191.68837537 71.875 186.4296875 C76.30691236 163.79078765 90.4119942 143.41611861 106 127 C106.47953125 126.48791992 106.9590625 125.97583984 107.453125 125.44824219 C122.0485369 109.94061705 141.09478952 95.31219635 163.25 94.625 C169.41346858 94.80064289 173.50383152 95.9086156 178.3125 99.9375 C182.88848434 105.53036975 182.65794806 111.01242504 182 118 C177.65821454 137.94101467 163.69743469 153.6727982 150 168 C149.1646875 168.8765625 148.329375 169.753125 147.46875 170.65625 C141.67767489 176.59393461 135.53290883 181.90067499 129 187 C128.37174316 187.4940332 127.74348633 187.98806641 127.09619141 188.49707031 C117.35556112 196.13796578 107.40421815 203.2910209 97 210 C97.31387717 211.9498146 97.31387717 211.9498146 98 214 C104.57617736 218.43891971 111.43952702 218.52551287 119 217.0625 C142.66377731 210.92642751 164.32059208 194.64736914 181.66015625 177.93359375 C185.26744213 174.9526146 185.26744213 174.9526146 188 175 C190.5859375 176.6953125 190.5859375 176.6953125 193.375 179.125 C194.33792969 179.95128906 195.30085937 180.77757812 196.29296875 181.62890625 C197.18628906 182.41136719 198.07960938 183.19382813 199 184 C200.22573664 185.0249493 201.45402815 186.04687282 202.6875 187.0625 C203.450625 187.701875 204.21375 188.34125 205 189 C203.56930187 192.28171435 201.57231848 194.97876044 199.41943359 197.82373047 C194.82477179 203.92294148 191.37773993 209.33411372 190 217 C209.20362678 218.25241044 226.96967549 203.31667239 240.68994141 191.55078125 C243.85403765 188.76485986 246.92448699 185.88265906 250 183 C252.1060514 181.1438191 254.22649511 179.30635247 256.35546875 177.4765625 C258.17069211 175.89929029 258.17069211 175.89929029 260.25 173.5 C260.8275 173.005 261.405 172.51 262 172 C266.62809996 172.63191824 269.68466896 175.51168608 273.25 178.3125 C273.8996875 178.79912109 274.549375 179.28574219 275.21875 179.78710938 C275.83234375 180.26599609 276.4459375 180.74488281 277.078125 181.23828125 C277.63918945 181.67180908 278.20025391 182.10533691 278.77832031 182.55200195 C280 184 280 184 280 188 C278.00774621 190.13131095 276.03356581 192.00332378 273.84375 193.9140625 C272.45523709 195.16747697 271.07001609 196.42454444 269.6875 197.68457031 C268.93275391 198.37232544 268.17800781 199.06008057 267.40039062 199.76867676 C263.02874021 203.8324175 258.81568179 208.05522893 254.59375 212.2734375 C253.24023438 213.62504974 253.24023438 213.62504974 251.859375 215.00396729 C250.00804609 216.85525534 248.15779378 218.70762061 246.30859375 220.56103516 C243.95059186 222.92354643 241.58931697 225.28267512 239.22609711 227.63995934 C236.92953761 229.9320102 234.63681854 232.22789495 232.34375 234.5234375 C231.50823608 235.35692719 230.67272217 236.19041687 229.81188965 237.04916382 C225.00513746 241.87504864 220.43205118 246.82960519 216 252 C215.00260774 253.12211499 214.00299751 254.24226741 213 255.359375 C193.67080258 277.10432214 177.88360634 300.43734837 166 327 C159.65670415 325.922604 153.48158892 324.70740265 147.3125 322.875 C145.51232422 322.34519531 145.51232422 322.34519531 143.67578125 321.8046875 C142.79277344 321.53914063 141.90976562 321.27359375 141 321 C145.49449679 299.97402079 161.05053539 280.60062945 174 264 C174.66515625 263.14148438 175.3303125 262.28296875 176.015625 261.3984375 C180.14670309 256.14513741 184.49443434 251.14410144 189.01953125 246.2265625 C190.80395573 244.2204048 192.42679945 242.17369666 194 240 C192.865625 240.03480469 191.73125 240.06960938 190.5625 240.10546875 C172.77297368 240.49597055 172.77297368 240.49597055 167.45703125 235.5703125 C163.22953581 230.80993949 162.8833798 227.18087077 163 221 C162.18716553 221.45270264 162.18716553 221.45270264 161.35791016 221.91455078 C149.22375994 228.61656721 137.37697699 234.29291151 124 238 C123.09507812 238.26425781 122.19015625 238.52851563 121.2578125 238.80078125 C109.4783717 241.71589539 94.93638678 241.4754169 84 236 C75.29782834 229.59565667 75.29782834 229.59565667 73 225 C68.84835015 225.5691778 65.33328514 227.04943806 61.5144043 228.67944336 C40.49482907 237.62893723 12.33557565 245.83479105 -10 237 C-10.7115625 236.73316406 -11.423125 236.46632813 -12.15625 236.19140625 C-18.09151901 233.623261 -24.07121095 228.8575781 -27 223 C-31.57525877 223.60131972 -35.18175752 225.53769041 -39.1875 227.6875 C-56.70436849 236.74942916 -79.47707615 244.67451125 -99.125 238.4375 C-104.74935556 236.03068118 -108.49834616 232.69335338 -110.8203125 226.98242188 C-111.56917119 224.99654661 -112.28669236 222.99892024 -113 221 C-114.11375 221.65226563 -115.2275 222.30453125 -116.375 222.9765625 C-140.06557365 236.63394287 -164.9307755 244.39823924 -192.328125 238.1171875 C-199.65652982 235.88748135 -207.36689075 233.02674837 -213.8125 228.81591797 C-216.85721062 226.82700749 -218.3537887 225.87731229 -222.00390625 226.5703125 C-223.48697266 227.27800781 -223.48697266 227.27800781 -225 228 C-226.10214844 228.45117188 -227.20429688 228.90234375 -228.33984375 229.3671875 C-229.52707031 229.86476562 -230.71429688 230.36234375 -231.9375 230.875 C-254.66122119 240.11682627 -282.41869154 244.84299067 -306 236 C-314.53962038 231.9063713 -320.22432815 226.67751059 -324.375 218.1875 C-326.31051655 208.31636562 -325.030225 200.28078742 -319.5 191.9375 C-311.50524012 181.96364515 -299.17950963 177.88800337 -286.85546875 176.46875 C-261.70510233 174.16718364 -240.30760638 182.70293668 -219 195 C-204.71804808 181.93606023 -191.48681233 168.60961856 -180 153 C-180.70382813 152.95512451 -181.40765625 152.91024902 -182.1328125 152.86401367 C-208.72828187 151.12150699 -238.52984359 148.81582597 -258 128 C-267.14086555 117.05723899 -270.79447918 105.15108276 -269.78125 90.9296875 C-267.06867555 70.9505334 -254.73027247 54.72990144 -239.25 42.5625 C-219.65069541 27.71361667 -192.20215611 14.35379087 -167 15 C-165.68253667 17.58090767 -164.37090383 20.16450458 -163.0625 22.75 C-162.68931641 23.47960937 -162.31613281 24.20921875 -161.93164062 24.9609375 C-161.57392578 25.66992188 -161.21621094 26.37890625 -160.84765625 27.109375 C-160.3527771 28.08342285 -160.3527771 28.08342285 -159.84790039 29.07714844 C-158.98547884 31.03293079 -158.45625821 32.91540694 -158 35 C-158.59723877 35.11480713 -159.19447754 35.22961426 -159.80981445 35.34790039 C-187.16815546 40.70238208 -218.96421405 49.87887581 -236 74 C-241.13802152 82.91266453 -244.47519122 90.65139034 -242.64453125 101.01171875 C-240.30675105 108.74679014 -234.48190572 114.75153689 -227.82421875 119.05078125 C-213.33949139 126.7114468 -198.31955509 129.18562295 -182.0625 129.125 C-181.02931641 129.12886719 -179.99613281 129.13273438 -178.93164062 129.13671875 C-175.95191969 129.13294456 -172.97857206 129.08001829 -170 129 C-169.14704346 128.98960693 -168.29408691 128.97921387 -167.4152832 128.96850586 C-163.19159092 128.75227588 -161.516635 128.46608654 -158.28515625 125.55078125 C-157.55167969 124.48214844 -156.81820312 123.41351563 -156.0625 122.3125 C-155.6497583 121.73016602 -155.2370166 121.14783203 -154.81176758 120.54785156 C-153.94707219 119.32282547 -153.09420769 118.08936908 -152.25292969 116.84814453 C-150.67384503 114.51890235 -149.0392882 112.23228984 -147.40087891 109.94458008 C-146.58266273 108.80187616 -145.76729099 107.65713085 -144.95458984 106.51049805 C-135.96986226 93.86090182 -126.28712612 81.74394543 -116.43994141 69.76025391 C-115.1517782 68.185541 -113.87765975 66.59936331 -112.60546875 65.01171875 C-106.72681252 57.69252694 -100.49371556 50.77139132 -94 44 C-93.23574707 43.20174805 -92.47149414 42.40349609 -91.68408203 41.58105469 C-73.17506548 22.36662582 -30.35777147 -21.01222009 0 0 Z M-54 40 C-55.00880028 40.8987904 -56.01790926 41.79723444 -57.02734375 42.6953125 C-67.25498505 51.86971438 -77.13604947 61.493886 -86 72 C-86.89854156 73.03619634 -87.79840513 74.07124701 -88.69921875 75.10546875 C-100.4148336 88.59351441 -111.18247714 102.78920193 -122 117 C-117.66592827 118.44469058 -114.82676169 116.49808463 -110.875 114.6875 C-110.07457275 114.32358154 -109.27414551 113.95966309 -108.44946289 113.5847168 C-87.26439792 103.73637815 -68.94439312 89.94439312 -52.4609375 73.4609375 C-50.9008656 71.9008656 -49.31964072 70.36143753 -47.7109375 68.8515625 C-38.09067241 59.68174461 -30.3701813 49.3037102 -24.375 37.4375 C-24.04419434 36.78313965 -23.71338867 36.1287793 -23.37255859 35.45458984 C-21.55469179 31.67377742 -20.25937003 28.20549969 -20 24 C-21.85696375 21.7257605 -21.85696375 21.7257605 -24.74609375 21.69921875 C-36.10529609 22.74922905 -45.90208295 32.656485 -54 40 Z M37 120 C36.34128906 120.61617187 35.68257813 121.23234375 35.00390625 121.8671875 C30.73508963 125.98812363 27.02261619 130.50770144 23.3125 135.1328125 C21.83801228 136.96097801 20.34010265 138.77066583 18.8125 140.5546875 C2.86960168 158.96392913 2.86960168 158.96392913 -5 181 C0.11383542 178.714092 4.06740156 174.96807478 8.32727051 171.3996582 C9.40658903 170.49653727 10.48714811 169.59489589 11.56921387 168.69506836 C20.4472932 161.29839388 28.80982607 153.50672053 36.9519043 145.30883789 C38.82183141 143.42811472 40.70232638 141.55843181 42.58398438 139.68945312 C51.4876871 130.79671339 59.69213995 121.61647201 66.875 111.25 C67.59429687 110.22390625 68.31359375 109.1978125 69.0546875 108.140625 C71.95506901 103.45808136 74 99.63538488 74 94 C60.31476553 94 46.53733324 111.0253008 37 120 Z M128 136 C127.31421875 136.62261719 126.6284375 137.24523437 125.921875 137.88671875 C116.13764396 147.03374146 108.19673499 158.53851032 101.375 170 C100.97361816 170.66894287 100.57223633 171.33788574 100.15869141 172.02709961 C97.39822056 176.82438238 95.57748651 181.70185288 94 187 C117.84782126 175.36978175 143.87134774 147.75938077 155.328125 124.015625 C156.21081851 121.72165369 156.21081851 121.72165369 156 118 C145.05183481 117.11866291 135.34101871 128.91819806 128 136 Z M-299 203 C-301.32877362 205.87594836 -301.32877362 205.87594836 -300.9375 209.4375 C-299.80234459 213.75109054 -298.80616128 214.76594881 -295 217 C-279.36199441 222.36104894 -261.17866609 218.8665592 -246.4375 212.25 C-244.95018664 211.51628821 -243.46717402 210.77319754 -242 210 C-249.0654601 201.72824183 -264.47909999 197.95644546 -275 197 C-283.8737705 196.47511894 -291.86989918 197.26113836 -299 203 Z " fill="#D52A1D" transform="translate(341,20)"/>
<path d="M0 0 C4.004793 2.0023965 6.6587028 4.17998877 9 8 C10.676194 13.02858199 10.60642735 17.34030411 8.8125 22.25 C6.46100791 25.8177811 3.81557843 28.09221079 0 30 C-4.95482094 30.54360446 -8.87125852 30.56437074 -13.375 28.3125 C-17.95924777 24.27399602 -20.60686894 21.40707538 -21.09765625 15.05078125 C-20.86125022 10.08625456 -18.65662711 6.73670359 -15.4375 3.125 C-10.74821941 -0.96309077 -6.01749929 -0.62044837 0 0 Z " fill="#D52A1D" transform="translate(291,155)"/>
</svg>
