<?xml version="1.0" encoding="UTF-8"?>
<svg version="1.1" xmlns="http://www.w3.org/2000/svg" width="673" height="329">
<path d="M0 0 C42.10771453 -0.16121214 42.10771453 -0.16121214 59.79492188 -0.1953125 C71.99250032 -0.21901832 84.18996798 -0.24683975 96.38745117 -0.30175781 C105.27205073 -0.3417407 114.15656015 -0.36746005 123.04124719 -0.37635398 C127.74167917 -0.38154939 132.44185336 -0.39368163 137.14220238 -0.42292023 C141.57534823 -0.45027067 146.00813253 -0.45840575 150.44135475 -0.45243073 C152.05975949 -0.45352225 153.67817756 -0.46135848 155.29650879 -0.4768219 C172.16471472 -0.62995943 186.99406831 3.22916927 199.6875 14.875 C209.33143266 24.9748779 215.26124165 38.40064671 215.24050903 52.41589355 C215.24221788 53.11693285 215.24392673 53.81797215 215.24568737 54.54025507 C215.24895424 56.86483484 215.23802544 59.18911917 215.22705078 61.51367188 C215.22648606 63.18970737 215.22680442 64.86574336 215.22793579 66.54177856 C215.22850792 71.07426187 215.21677622 75.6066386 215.20278788 80.13909721 C215.19025724 84.8823174 215.18910818 89.62554023 215.18673706 94.36877441 C215.18052914 103.34293758 215.16412765 112.31705183 215.14403808 121.29119349 C215.11747015 133.42347847 215.10670088 145.5557769 215.09503365 157.68808365 C215.07624656 176.79209239 215.03639628 195.8959979 215 215 C179.36 215 143.72 215 107 215 C107 179.69 107 144.38 107 108 C71.69 108 36.38 108 0 108 C0 72.36 0 36.72 0 0 Z " fill="#00AAFF" transform="translate(458,0)"/>
<path d="M0 0 C16.83 0 33.66 0 51 0 C51 73.26 51 146.52 51 222 C34.17 222 17.34 222 0 222 C-0.33 218.7 -0.66 215.4 -1 212 C-2.00417969 212.47050781 -3.00835937 212.94101562 -4.04296875 213.42578125 C-24.6677354 222.91032981 -47.1983041 225.93362872 -69 218 C-91.57415328 208.91579148 -108.94555306 192.77601189 -118.71875 170.40625 C-126.96848552 148.47402631 -127.5964 124.99855583 -118.56640625 103.21875 C-108.29954505 82.12175841 -91.21319226 66.0919264 -68.94726562 58.27978516 C-64.6824444 56.94214475 -60.37725756 55.91017495 -56 55 C-55.278125 54.84917969 -54.55625 54.69835937 -53.8125 54.54296875 C-35.76821827 51.62632838 -16.28450299 54.8577485 0 63 C0 42.21 0 21.42 0 0 Z M-71.8125 110.875 C-79.61512628 120.37541997 -81.99026038 130.8653808 -81 143 C-78.94531119 154.67201375 -72.5524225 164.1222558 -63 171 C-52.59597631 177.14158227 -41.5819619 178.96946331 -29.71484375 176.24609375 C-24.66759933 174.47573979 -20.27250741 172.25524374 -16 169 C-15.175 168.443125 -14.35 167.88625 -13.5 167.3125 C-5.24748431 159.67892298 -0.58177762 148.85083184 0.02734375 137.71484375 C-0.08553715 126.50738332 -4.59511726 116.21867594 -12.25 108.0625 C-16.70651656 103.92109067 -21.37510274 101.25374671 -27 99 C-28.0725 98.566875 -29.145 98.13375 -30.25 97.6875 C-46.25190249 94.75381788 -60.69142286 98.83306934 -71.8125 110.875 Z " fill="#333132" transform="translate(125,107)"/>
<path d="M0 0 C16.83 0 33.66 0 51 0 C51.495 9.405 51.495 9.405 52 19 C53.0725 17.824375 54.145 16.64875 55.25 15.4375 C66.16096009 4.54585134 79.47120258 0.13652544 94.5625 -0.25 C110.02532147 -0.07000949 124.46410354 4.41890636 136 15 C145.0260167 25.64151065 151.13508603 38.99283719 151.12025452 53.15693665 C151.12231651 54.68179436 151.12231651 54.68179436 151.12442017 56.23745728 C151.12082489 57.34156952 151.11722961 58.44568176 151.11352539 59.58325195 C151.11367142 60.75441055 151.11381744 61.92556915 151.1139679 63.13221741 C151.11327157 67.00092424 151.10549222 70.86958284 151.09765625 74.73828125 C151.09579108 77.42156557 151.09431844 80.10484722 151.09336853 82.78813171 C151.0902633 89.12743165 151.08206082 95.46671429 151.07201904 101.80600661 C151.06083279 109.02484617 151.05534112 116.24368657 151.05032361 123.46253264 C151.03987753 138.30836589 151.0215421 153.1541782 151 168 C134.17 168 117.34 168 100 168 C99.97421875 160.54792969 99.9484375 153.09585938 99.921875 145.41796875 C99.89669379 140.68290881 99.87035092 135.94791194 99.83984375 131.21289062 C99.79158444 123.705483 99.7475111 116.19822144 99.72900391 108.69067383 C99.71380467 102.63451784 99.67930039 96.57874525 99.63169098 90.52276039 C99.61691098 88.2180751 99.60896094 85.91333506 99.60811615 83.60860252 C99.60573463 80.36780815 99.57855846 77.1280632 99.54589844 73.88745117 C99.5509288 72.94517166 99.55595917 72.00289215 99.56114197 71.03205872 C99.43675843 62.99831393 97.68240461 55.38830056 92.625 49 C86.07982844 44.01320262 79.75698942 42.48430877 71.6015625 43.21484375 C66.2299172 44.17733992 61.83899233 46.05103653 58 50 C52.56278013 57.93494275 51.70297569 66.92651325 51.68115234 76.27148438 C51.66608391 77.76553299 51.66608391 77.76553299 51.65071106 79.2897644 C51.62000273 82.55775413 51.60287827 85.82566239 51.5859375 89.09375 C51.56721593 91.36918838 51.54764178 93.6446199 51.5272522 95.92004395 C51.47602964 101.89086854 51.43635104 107.86171562 51.39910889 113.8326416 C51.35194894 121.00644528 51.2903935 128.18013825 51.23126221 135.35385132 C51.14317042 146.23585595 51.07331951 157.11784065 51 168 C34.17 168 17.34 168 0 168 C0 112.56 0 57.12 0 0 Z " fill="#333132" transform="translate(198,161)"/>
<path d="M0 0 C3.42684857 2.90694411 6.75157411 5.89530977 10 9 C8.40584497 12.91209308 5.86106668 15.37218086 2.875 18.3125 C2.38290039 18.7981543 1.89080078 19.28380859 1.38378906 19.78417969 C-2.02004028 23.11714206 -5.52923455 26.28963668 -9.16015625 29.37109375 C-11.10963942 31.09706929 -12.88984442 32.92979405 -14.6875 34.8125 C-17.25198617 37.43580466 -19.38368285 39.01373169 -23 40 C-23.44988281 39.55269531 -23.89976562 39.10539062 -24.36328125 38.64453125 C-32.7732726 30.7401506 -42.33173083 26.58395465 -53.859375 26.72265625 C-65.50977335 27.75148496 -73.94745314 32.47985464 -81.75 40.875 C-88.35963392 48.80957192 -91.60244023 58.11901176 -91.3125 68.484375 C-89.89172215 79.92163669 -85.09850283 90.43579996 -75.97265625 97.65625 C-65.33482439 104.90261468 -54.67821348 107.24697962 -42 105 C-35.27176701 103.26628976 -29.9961755 100.7461229 -24.75390625 96.171875 C-23 95 -23 95 -19 95 C-17.359375 96.28515625 -17.359375 96.28515625 -15.75 98.0625 C-13.35927866 100.59474395 -10.95510399 102.9809866 -8.3125 105.25 C-4.1584887 108.82570777 -0.13450278 112.53326767 3.87573242 116.26855469 C6.17499908 118.39536692 8.38616954 120.25744636 11 122 C5.25551457 134.8893678 -10.60278618 142.16647956 -23 147 C-40.91914107 153.38839135 -61.05877678 153.16224446 -79 147 C-80.0621875 146.63777344 -81.124375 146.27554688 -82.21875 145.90234375 C-102.87887393 138.04830179 -119.02740448 121.83347078 -128.2734375 102.01953125 C-136.94002802 82.47510204 -138.63343713 58.16947614 -131 38 C-121.55808067 15.00373032 -105.45043561 -1.65928323 -82.65234375 -11.5625 C-55.53955279 -22.23363056 -23.00067959 -17.97940447 0 0 Z " fill="#333132" transform="translate(507,178)"/>
<path d="M0 0 C35.64 0 71.28 0 108 0 C108 35.64 108 71.28 108 108 C72.36 108 36.72 108 0 108 C0 72.36 0 36.72 0 0 Z " fill="#00D5ED" transform="translate(565,107)"/>
<path d="M0 0 C15.1903125 -0.12375 15.1903125 -0.12375 30.6875 -0.25 C33.85819092 -0.28641602 37.02888184 -0.32283203 40.2956543 -0.36035156 C42.84683559 -0.37204879 45.39802443 -0.38223816 47.94921875 -0.390625 C49.8898822 -0.4213208 49.8898822 -0.4213208 51.86975098 -0.45263672 C67.39494071 -0.45851135 81.1772647 4.31471534 92.6875 14.875 C104.78325919 27.54262173 108.33002499 42.25753857 108.1953125 59.34375 C108.19329834 60.55450195 108.19128418 61.76525391 108.18920898 63.01269531 C108.1787942 67.50850242 108.15087182 72.00425527 108.125 76.5 C108.08375 86.565 108.0425 96.63 108 107 C72.36 107 36.72 107 0 107 C0 71.69 0 36.38 0 0 Z " fill="#0B70F1" transform="translate(565,0)"/>
</svg>
