<?xml version="1.0" encoding="UTF-8"?>
<svg version="1.1" xmlns="http://www.w3.org/2000/svg" width="900" height="900">
<path d="M0 0 C5.04437333 3.05555681 10.14482391 6.01446621 15.2421875 8.98046875 C24.37667377 14.29776408 33.50092152 19.63202858 42.6171875 24.98046875 C55.43846393 32.50119017 68.27445031 39.99644698 81.1171875 47.48046875 C94.58177298 55.32686858 108.03747301 63.18808112 121.47958374 71.07290649 C129.68581287 75.88628819 137.89742527 80.69021701 146.1171875 85.48046875 C155.58107737 90.99576392 165.03279136 96.53156569 174.48095703 102.07373047 C183.64890993 107.45120324 192.82521791 112.8140935 202.00854492 118.1652832 C207.47220665 121.35033466 212.93183163 124.54213927 218.38671875 127.7421875 C219.31782722 128.28831444 219.31782722 128.28831444 220.26774597 128.84547424 C223.38857665 130.6762193 226.50867769 132.50819213 229.62768555 134.34204102 C235.12631171 137.57260557 240.6326045 140.78654866 246.1796875 143.93359375 C247.0771167 144.44446533 247.9745459 144.95533691 248.89916992 145.48168945 C250.54147796 146.41383592 252.18729589 147.33983546 253.8371582 148.25854492 C255.62972972 149.27724173 257.3796816 150.37045564 259.1171875 151.48046875 C259.1171875 152.14046875 259.1171875 152.80046875 259.1171875 153.48046875 C258.56184326 153.79048828 258.00649902 154.10050781 257.43432617 154.41992188 C244.64495056 161.57270587 231.97090893 168.89535311 219.3815918 176.39453125 C211.66362483 180.98842386 203.90622691 185.50818577 196.1171875 189.98046875 C187.24182068 195.07798459 178.413329 200.24744138 169.6171875 205.48046875 C159.79955042 211.32013637 149.93517391 217.07064675 140.03173828 222.76342773 C131.82794543 227.48298662 123.65382377 232.25104748 115.4921875 237.04296875 C114.88253143 237.40088501 114.27287537 237.75880127 113.64474487 238.12756348 C111.21523062 239.55393567 108.78572724 240.98032637 106.35630798 242.40686035 C100.5118934 245.8377338 94.65939432 249.25469058 88.8046875 252.66796875 C87.83023682 253.23612305 86.85578613 253.80427734 85.85180664 254.38964844 C81.97468449 256.64982231 78.09719942 258.90937316 74.21972656 261.16894531 C62.34310931 268.0906554 50.47446792 275.025699 38.6171875 281.98046875 C28.71406781 287.78904498 18.80746962 293.59150393 8.88525391 299.36743164 C3.84357826 302.30268859 -1.19095842 305.2492225 -6.21484375 308.21484375 C-42.57442567 329.64883411 -42.57442567 329.64883411 -61.8828125 330.48046875 C-62.63304687 330.52042969 -63.38328125 330.56039063 -64.15625 330.6015625 C-84.85776859 331.17102175 -101.56230518 323.73818387 -118.8828125 313.48046875 C-119.87861328 312.89297852 -120.87441406 312.30548828 -121.90039062 311.70019531 C-126.39411178 309.04679894 -130.8848736 306.38851401 -135.36816406 303.7175293 C-143.16874258 299.07181796 -151.00871003 294.50089764 -158.8828125 289.98046875 C-167.75821609 284.88301788 -176.58667204 279.71349551 -185.3828125 274.48046875 C-195.20044958 268.64080113 -205.06482609 262.89029075 -214.96826172 257.19750977 C-223.17205457 252.47795088 -231.34617623 247.70989002 -239.5078125 242.91796875 C-240.11746857 242.56005249 -240.72712463 242.20213623 -241.35525513 241.83337402 C-243.78476938 240.40700183 -246.21427276 238.98061113 -248.64369202 237.55407715 C-254.4881066 234.1232037 -260.34060568 230.70624692 -266.1953125 227.29296875 C-267.16976318 226.72481445 -268.14421387 226.15666016 -269.14819336 225.57128906 C-272.05958257 223.87409058 -274.97115994 222.17721539 -277.8828125 220.48046875 C-291.34570773 212.6350539 -304.7995372 204.77452352 -318.24017334 196.89105225 C-329.45638046 190.31264573 -340.68487782 183.7555238 -351.91943359 177.20849609 C-355.01889863 175.4011132 -358.11701487 173.59143568 -361.21484375 171.78125 C-371.74267796 165.63089363 -382.27583134 159.49358131 -392.8828125 153.48046875 C-392.8828125 152.82046875 -392.8828125 152.16046875 -392.8828125 151.48046875 C-392.17600342 151.07957031 -391.46919434 150.67867187 -390.7409668 150.265625 C-376.37900851 142.11096356 -362.08316421 133.86557682 -347.89331055 125.4140625 C-340.25890785 120.87256029 -332.5860259 116.40414805 -324.8828125 111.98046875 C-316.00748388 106.88288882 -307.17890161 101.71358505 -298.3828125 96.48046875 C-288.51919979 90.61224347 -278.60466709 84.84126794 -268.65234375 79.125 C-260.85766328 74.64000291 -253.11131873 70.07844081 -245.3828125 65.48046875 C-235.51919979 59.61224347 -225.60466709 53.84126794 -215.65234375 48.125 C-207.85766328 43.64000291 -200.11131873 39.07844081 -192.3828125 34.48046875 C-182.52147188 28.61359522 -172.60978662 22.84293886 -162.65893555 17.12939453 C-154.79631007 12.60644045 -146.98879992 7.99635334 -139.1953125 3.35546875 C-86.52227304 -27.91653831 -53.23514605 -32.34434176 0 0 Z " fill="#2143FF" transform="translate(516.8828125,567.51953125)"/>
<path d="M0 0 C1.28922363 0.71289185 1.28922363 0.71289185 2.60449219 1.44018555 C10.8640755 6.037543 18.99497571 10.84508829 27.1171875 15.6796875 C32.95429183 19.1537223 38.81775962 22.58146473 44.6875 26 C45.6863623 26.58185059 46.68522461 27.16370117 47.71435547 27.76318359 C49.73918158 28.94251371 51.76408401 30.1217128 53.7890625 31.30078125 C56.77735966 33.04202417 59.76397264 34.78611792 62.75 36.53125 C73.02269882 42.53345688 83.31140158 48.50582487 93.625 54.4375 C103.70006713 60.2343926 113.70962756 66.13523293 123.69970703 72.07714844 C132.51018022 77.30975804 141.37076841 82.45052289 150.25390625 87.55859375 C158.44934477 92.27146699 166.61932753 97.02638634 174.78076172 101.79785156 C182.04509574 106.04103176 189.33200908 110.24381134 196.625 114.4375 C206.70011552 120.2343069 216.70962895 126.13523375 226.69970703 132.07714844 C235.50877732 137.30892485 244.36818107 142.44846364 253.24951172 147.55639648 C260.4927841 151.72229311 267.72182154 155.91148662 274.9375 160.125 C275.92145752 160.69951904 276.90541504 161.27403809 277.91918945 161.8659668 C281.87041622 164.17385202 285.8209376 166.48294323 289.77148438 168.79199219 C292.74315503 170.52856835 295.71521299 172.26447901 298.6875 174 C299.65582764 174.56557617 300.62415527 175.13115234 301.62182617 175.71386719 C307.09408639 178.90620654 312.57520953 182.0825725 318.06640625 185.2421875 C318.66835815 185.58868851 319.27031006 185.93518951 319.89050293 186.29219055 C322.82591081 187.98153712 325.76247272 189.6687998 328.70068359 191.35327148 C330.27003662 192.25541382 330.27003662 192.25541382 331.87109375 193.17578125 C332.80236084 193.70985596 333.73362793 194.24393066 334.69311523 194.79418945 C336.8125 196.0625 336.8125 196.0625 337.8125 197.0625 C337.90914967 199.01144959 337.93437121 200.96395455 337.93275452 202.91529846 C337.93412918 204.18721039 337.93550385 205.45912231 337.93692017 206.76957703 C337.93338055 208.19216942 337.92974573 209.61476158 337.92602539 211.03735352 C337.92574353 212.52516681 337.92590124 214.01298024 337.9264679 215.50079346 C337.9267559 219.55227 337.92085867 223.6037172 337.91389394 227.65518689 C337.90766092 231.88461997 337.90705664 236.11405364 337.90586853 240.3434906 C337.90275506 248.35809722 337.89454146 256.37269027 337.88451904 264.38729089 C337.87335839 273.50926684 337.86784758 282.63124342 337.86282361 291.75322449 C337.85235886 310.5229907 337.83475912 329.29274426 337.8125 348.0625 C334.04430795 346.84103148 330.71978874 345.6036502 327.328125 343.55078125 C326.06995972 342.79704224 326.06995972 342.79704224 324.78637695 342.02807617 C323.88749756 341.48256104 322.98861816 340.9370459 322.0625 340.375 C320.08281908 339.18878836 318.10231626 338.00394757 316.12109375 336.8203125 C315.08710449 336.20188477 314.05311523 335.58345703 312.98779297 334.94628906 C307.73086815 331.82754141 302.42691188 328.79141615 297.125 325.75 C288.14581272 320.58957056 279.21299762 315.35744817 270.3125 310.0625 C260.37604878 304.15234581 250.39345239 298.32956326 240.37109375 292.56640625 C232.17565523 287.85353301 224.00567247 283.09861366 215.84423828 278.32714844 C208.57990426 274.08396824 201.29299092 269.88118866 194 265.6875 C183.92488448 259.8906931 173.91537105 253.98976625 163.92529297 248.04785156 C155.11622268 242.81607515 146.25681893 237.67653636 137.37548828 232.56860352 C130.1322159 228.40270689 122.90317846 224.21351338 115.6875 220 C114.70354248 219.42548096 113.71958496 218.85096191 112.70581055 218.2590332 C108.75458378 215.95114798 104.8040624 213.64205677 100.85351562 211.33300781 C97.88184495 209.59643164 94.90980626 207.86048808 91.9375 206.125 C90.95031982 205.54854736 89.96313965 204.97209473 88.94604492 204.37817383 C81.64638608 200.1204832 74.32545842 195.90060175 67 191.6875 C58.06379922 186.54587707 49.173405 181.33276995 40.3125 176.0625 C28.11848296 168.81013845 15.85199806 161.6951483 3.54394531 154.63818359 C1.17313648 153.27053967 -1.18615752 151.88640867 -3.5390625 150.48828125 C-10.20576923 146.54248359 -16.72746493 143.23977598 -24.1875 141.0625 C-24.91324219 140.83820313 -25.63898438 140.61390625 -26.38671875 140.3828125 C-52.54936901 133.71658748 -74.6736668 144.161502 -96.5625 157.125 C-98.45235001 158.25432675 -100.34166003 159.38455755 -102.23046875 160.515625 C-108.40434525 164.20745359 -114.63589486 167.79485495 -120.875 171.375 C-129.85411527 176.53555674 -138.78700036 181.76755062 -147.6875 187.0625 C-157.62395122 192.97265419 -167.60654761 198.79543674 -177.62890625 204.55859375 C-184.83076443 208.70009815 -192.01550863 212.8694983 -199.1875 217.0625 C-207.43967877 221.88701774 -215.71336488 226.67243611 -224 231.4375 C-232.93624318 236.57904661 -241.82661125 241.79220636 -250.6875 247.0625 C-260.62401159 252.97255432 -270.60654601 258.79543582 -280.62890625 264.55859375 C-287.83076443 268.70009815 -295.01550863 272.8694983 -302.1875 277.0625 C-310.43967877 281.88701774 -318.71336488 286.67243611 -327 291.4375 C-335.93624318 296.57904661 -344.82661125 301.79220636 -353.6875 307.0625 C-363.61018537 312.96433074 -373.57852017 318.77966616 -383.5871582 324.53442383 C-392.199457 329.48667666 -400.78593055 334.48198179 -409.36206055 339.49658203 C-411.1694089 340.55303084 -412.97753619 341.60814876 -414.78662109 342.66162109 C-416.30845051 343.54958705 -417.82738659 344.44254594 -419.34228516 345.34228516 C-423.96891426 348.0625 -423.96891426 348.0625 -426.1875 348.0625 C-426.82023891 328.65290609 -427.29527368 309.24542119 -427.58642864 289.82762909 C-427.72526464 280.80946294 -427.91419682 271.7977262 -428.22436523 262.78369141 C-428.49483003 254.91971435 -428.66795656 247.06039047 -428.72788936 239.19189215 C-428.76291022 235.02831527 -428.84405036 230.87803648 -429.04221153 226.71876526 C-430.19294715 201.59124633 -430.19294715 201.59124633 -423.62103653 194.16073608 C-417.47694648 188.90575235 -410.15282621 185.69237678 -402.7391758 182.61973572 C-396.86966948 180.04624495 -391.49200992 176.72906754 -386 173.4375 C-383.84213196 172.19134177 -381.682246 170.94866514 -379.51953125 169.7109375 C-373.39396424 166.18679266 -367.28832674 162.62926069 -361.1875 159.0625 C-352.93532123 154.23798226 -344.66163512 149.45256389 -336.375 144.6875 C-327.43875682 139.54595339 -318.54838875 134.33279364 -309.6875 129.0625 C-299.75098841 123.15244568 -289.76845399 117.32956418 -279.74609375 111.56640625 C-272.54423557 107.42490185 -265.35949137 103.2555017 -258.1875 99.0625 C-249.93532123 94.23798226 -241.66163512 89.45256389 -233.375 84.6875 C-224.43875682 79.54595339 -215.54838875 74.33279364 -206.6875 69.0625 C-196.75098841 63.15244568 -186.76845399 57.32956418 -176.74609375 51.56640625 C-169.54423557 47.42490185 -162.35949137 43.2555017 -155.1875 39.0625 C-145.85795352 33.60811471 -136.49856252 28.2073394 -127.12915039 22.82177734 C-120.25630079 18.86115215 -113.42532207 14.83662098 -106.61499023 10.77001953 C-70.01541002 -11.08293277 -39.64435808 -22.03135003 0 0 Z " fill="#2143FF" transform="translate(494.1875,21.9375)"/>
<path d="M0 0 C4.36596941 2.54186151 8.74684314 5.05731419 13.12792969 7.57299805 C24.23872468 13.95660267 35.2812221 20.44798585 46.29443359 26.99829102 C55.10329552 32.23006311 63.96257703 37.36945277 72.84375 42.47729492 C83.06785164 48.35758607 93.25591602 54.29848829 103.43896484 60.24951172 C108.42664785 63.16350684 113.41682533 66.07322411 118.40673828 68.98339844 C120.40675009 70.15004487 122.40675009 71.31671153 124.40673828 72.48339844 C125.39673828 73.06089844 126.38673828 73.63839844 127.40673828 74.23339844 C184.40673828 107.48339844 184.40673828 107.48339844 187.40625 109.2331543 C189.40783039 110.40071571 191.40945805 111.56819608 193.41113281 112.7355957 C198.3873422 115.63791259 203.36274283 118.5415976 208.33642578 121.44824219 C218.61206386 127.45116903 228.90312391 133.42527631 239.21923828 139.35839844 C249.28491984 145.14989085 259.28668839 151.0427436 269.26538086 156.98266602 C274.99015614 160.38475401 280.72773816 163.76117764 286.50048828 167.08105469 C287.08286255 167.41599945 287.66523682 167.75094421 288.26525879 168.09603882 C291.03052112 169.68483146 293.79827581 171.26911594 296.56884766 172.84863281 C297.56722656 173.42033203 298.56560547 173.99203125 299.59423828 174.58105469 C300.45404297 175.070979 301.31384766 175.56090332 302.19970703 176.06567383 C303.7871875 177.01494751 303.7871875 177.01494751 305.40673828 177.98339844 C306.28966458 178.38048004 307.17259089 178.77756165 308.08227253 179.18667603 C312.52975432 181.45139488 315.79837158 183.13147374 317.40886497 188.03396511 C317.76308891 191.92640314 317.76947252 195.74026186 317.65551758 199.6394043 C317.65241171 201.12810026 317.65416244 202.61681307 317.66038513 204.10549927 C317.66353336 208.1333045 317.5990139 212.15748448 317.5220716 216.18444896 C317.45316231 220.39764407 317.44683462 224.61092854 317.43379211 228.82460022 C317.39964342 236.79730053 317.30943694 244.76833561 317.19894773 252.74030358 C317.07586414 261.8186546 317.01548345 270.89708647 316.96029794 279.97606456 C316.84541295 298.64611893 316.65201653 317.31462467 316.40673828 335.98339844 C312.80808728 334.57656396 309.52643025 333.00715063 306.18017578 331.06933594 C305.16246094 330.48152344 304.14474609 329.89371094 303.09619141 329.28808594 C302.00242187 328.65128906 300.90865234 328.01449219 299.78173828 327.35839844 C298.62231444 326.68638303 297.46280762 326.01451077 296.30322266 325.34277344 C287.00488047 319.94776898 277.75979361 314.46367332 268.51977539 308.96948242 C256.54777998 301.85973617 244.48129295 294.91704807 232.40673828 287.98339844 C218.0525336 279.74069064 203.74555229 271.42997757 189.51904297 262.96850586 C180.71018104 257.73673376 171.85089953 252.59734411 162.96972656 247.48950195 C155.72645418 243.32360533 148.49741675 239.13441181 141.28173828 234.92089844 C140.29778076 234.34637939 139.31382324 233.77186035 138.30004883 233.17993164 C134.34882206 230.87204641 130.39830068 228.5629552 126.44775391 226.25390625 C123.47608323 224.51733008 120.50404454 222.78138652 117.53173828 221.04589844 C116.54455811 220.4694458 115.55737793 219.89299316 114.5402832 219.29907227 C107.24062436 215.04138164 99.91969671 210.82150018 92.59423828 206.60839844 C82.51917115 200.81150584 72.50961072 194.91066551 62.51953125 188.96875 C53.70905806 183.7361404 44.84846987 178.59537555 35.96533203 173.48730469 C28.76347053 169.34579837 21.5789844 165.17596779 14.40673828 160.98339844 C2.69893589 154.14720777 -9.01111644 147.31555502 -20.78369141 140.59130859 C-22.50872832 139.60407423 -24.23132354 138.61253988 -25.94970703 137.61376953 C-44.03141274 127.11894128 -64.50493966 123.20071328 -85.09326172 128.48339844 C-108.90652345 136.78109823 -130.99710919 152.2001631 -152.58447266 165.04956055 C-165.58529625 172.78215689 -178.70536201 180.30540583 -191.82275391 187.83789062 C-203.95912701 194.81016178 -216.06283937 201.82956589 -228.09326172 208.98339844 C-242.25773164 217.40623207 -256.53206145 225.63165386 -270.82275391 233.83789062 C-284.09887929 241.46494241 -297.32153068 249.17148605 -310.48095703 256.99829102 C-319.28981896 262.23006311 -328.14910047 267.36945277 -337.03027344 272.47729492 C-344.27354582 276.64319154 -351.50258325 280.83238506 -358.71826172 285.04589844 C-360.194198 285.907677 -360.194198 285.907677 -361.69995117 286.78686523 C-364.66468011 288.51854365 -367.62904299 290.25084683 -370.59326172 291.98339844 C-374.55111646 294.29671882 -378.50939203 296.60931537 -382.46826172 298.92089844 C-383.4539917 299.49662598 -384.43972168 300.07235352 -385.45532227 300.66552734 C-390.62879029 303.68355859 -395.80990699 306.68747565 -401.00341797 309.67089844 C-402.07930176 310.28900391 -403.15518555 310.90710938 -404.26367188 311.54394531 C-406.42856755 312.78768451 -408.59360489 314.03117717 -410.75878906 315.27441406 C-416.44599273 318.55169842 -422.10343976 321.87169013 -427.72216797 325.26464844 C-428.5922776 325.78974754 -428.5922776 325.78974754 -429.47996521 326.32545471 C-432.27473751 328.01401374 -435.06509152 329.70941371 -437.85083008 331.4128418 C-438.83833252 332.01233643 -439.82583496 332.61183105 -440.84326172 333.22949219 C-442.15037109 334.02891235 -442.15037109 334.02891235 -443.48388672 334.84448242 C-445.59326172 335.98339844 -445.59326172 335.98339844 -447.59326172 335.98339844 C-447.89717152 316.43407348 -448.12629542 296.88522881 -448.26681995 277.33403015 C-448.33380824 268.25557415 -448.42510042 259.17858714 -448.57397461 250.10107422 C-448.7036994 242.18740033 -448.78745151 234.27479022 -448.81641215 226.36008263 C-448.83333925 222.16998953 -448.87299456 217.98293899 -448.96775246 213.79382324 C-449.05631636 209.84638145 -449.08315891 205.90321879 -449.06366158 201.95487785 C-449.06722497 200.50992449 -449.09292195 199.06482149 -449.14293289 197.62072945 C-449.29115092 193.11825354 -449.1817556 189.22142318 -447.59326172 184.98339844 C-443.62630865 181.32660558 -439.49055396 179.26284615 -434.59326172 176.98339844 C-432.58013934 175.83497654 -430.57567447 174.67105917 -428.58544922 173.48339844 C-426.54721402 172.31528703 -424.50812314 171.14866767 -422.46826172 169.98339844 C-413.29980183 164.72149972 -404.17761342 159.38982423 -395.09326172 153.98339844 C-385.15832462 148.07389174 -375.17674803 142.25260582 -365.15625 136.48950195 C-354.93214836 130.6092108 -344.74408398 124.66830858 -334.56103516 118.71728516 C-328.57217861 115.21836617 -322.57994823 111.7252278 -316.58837891 108.23095703 C-311.61235572 105.32868139 -306.63710037 102.42510764 -301.66357422 99.51855469 C-291.38793614 93.51562785 -281.09687609 87.54152056 -270.78076172 81.60839844 C-261.84456142 76.46677579 -252.95415171 71.25369282 -244.09326172 65.98339844 C-234.15815184 60.07417783 -224.17675253 54.2526084 -214.15625 48.48950195 C-203.93214836 42.6092108 -193.74408398 36.66830858 -183.56103516 30.71728516 C-178.57335215 27.80329003 -173.58317467 24.89357276 -168.59326172 21.98339844 C-166.59324991 20.81675201 -164.59324991 19.65008535 -162.59326172 18.48339844 C-158.59326172 16.1500651 -154.59326172 13.81673177 -150.59326172 11.48339844 C-149.60261719 10.90541504 -148.61197266 10.32743164 -147.59130859 9.73193359 C-145.59819692 8.56950153 -143.60470925 7.4077139 -141.61083984 6.24658203 C-136.5021189 3.2703929 -131.40111254 0.28209336 -126.31201172 -2.72753906 C-77.75972975 -31.39116279 -47.90595325 -27.9672331 0 0 Z " fill="#2143FF" transform="translate(515.59326171875,301.0166015625)"/>
</svg>
