<?xml version="1.0" encoding="UTF-8"?>
<svg version="1.1" xmlns="http://www.w3.org/2000/svg" width="1200" height="844">
<path d="M0 0 C24.56518097 0 24.56518097 0 32.6875 1.125 C33.66750977 1.25551758 34.64751953 1.38603516 35.65722656 1.52050781 C89.00905027 9.12773908 135.20747781 34.63013024 176 69 C176.5170752 69.4321582 177.03415039 69.86431641 177.56689453 70.30957031 C193.06635701 83.28140001 207.5112655 97.34100987 221.77612305 111.64575195 C224.08852723 113.96358838 226.40632898 116.27593304 228.72460938 118.58789062 C230.22427957 120.08822064 231.72364006 121.5888603 233.22265625 123.08984375 C233.90191666 123.76707993 234.58117706 124.4443161 235.28102112 125.14207458 C239.14934349 129.02919811 242.83703124 133.01717893 246.40037537 137.18629456 C248.03229305 139.03661489 249.73860733 140.77319179 251.5 142.5 C253.8558755 144.81681705 256.07357168 147.18897069 258.2265625 149.6953125 C261.99683173 154.03181995 265.91837548 158.20890432 269.875 162.375 C274.85619652 167.64203541 279.78268496 172.94251639 284.60546875 178.35546875 C288.45822753 182.61047314 292.40268121 186.77919647 296.33642578 190.95922852 C300.23814406 195.10879179 304.10523862 199.28628352 307.9375 203.5 C311.54237024 207.45200589 315.23486389 211.27116588 319.05076599 215.01832581 C320.86409556 216.86183376 322.55263587 218.75615245 324.23071289 220.72241211 C328.00116334 225.05882012 331.99070407 229.13520717 336.05859375 233.19140625 C336.8065773 233.94034653 337.55456085 234.6892868 338.32521057 235.46092224 C339.89632464 237.03271225 341.46868392 238.60325849 343.04223633 240.17260742 C345.43099846 242.55601304 347.81437446 244.94471068 350.19726562 247.33398438 C351.7340545 248.87011237 353.2711536 250.40593009 354.80859375 251.94140625 C355.86209267 252.99794151 355.86209267 252.99794151 356.93687439 254.07582092 C360.89582671 258.01635445 364.94835253 261.78213629 369.19618225 265.41026306 C371.04360341 267.03842847 372.77637926 268.7420016 374.5 270.5 C377.48872337 273.53594925 380.61706479 276.34508659 383.84375 279.125 C386.19962958 281.17359094 388.5050746 283.27203002 390.8125 285.375 C395.08934463 289.23522658 399.49794263 292.89225263 403.97265625 296.51953125 C407.57838038 299.47389877 411.13979873 302.47637055 414.6875 305.5 C415.31237305 306.02891846 415.93724609 306.55783691 416.58105469 307.1027832 C418.0735704 308.37936492 419.53964643 309.68674774 421 311 C421 311.33 421 311.66 421 312 C282.07 312 143.14 312 0 312 C0 209.04 0 106.08 0 0 Z " fill="#0014DB" transform="translate(155,253)"/>
<path d="M0 0 C150.15 0 300.3 0 455 0 C455 51.48 455 102.96 455 156 C421.92939024 156 421.92939024 156 409.25 155.25 C408.4953949 155.20709839 407.74078979 155.16419678 406.96331787 155.11999512 C328.98346465 150.62567585 252.01265795 135.18887446 137 88 C136.3462439 87.68720093 135.69248779 87.37440186 135.0189209 87.05212402 C117.1903226 78.50606607 99.92501568 69.23997811 83 59 C81.38307784 58.03341017 79.76590276 57.06724324 78.1484375 56.1015625 C56.19643873 42.91915013 35.24356117 28.22906074 15.01025391 12.55175781 C13.0285043 11.02200308 11.03764029 9.50504226 9.04296875 7.9921875 C8.43227539 7.5276416 7.82158203 7.0630957 7.19238281 6.58447266 C6.04879947 5.71485294 4.9036884 4.84723744 3.75683594 3.98193359 C2.48621434 3.0115138 1.24000093 2.00925293 0 1 C0 0.67 0 0.34 0 0 Z " fill="#0013DC" transform="translate(585,533)"/>
<path d="M0 0 C14.19 0 28.38 0 43 0 C43.33 41.91 43.66 83.82 44 127 C46.97 124.03 49.94 121.06 53 118 C77.12127116 97.90833372 108.47609461 90.4800967 139.38769531 93.2109375 C162.17045216 95.75628147 182.99994179 104.53525083 200 120 C200.69222656 120.61101562 201.38445312 121.22203125 202.09765625 121.8515625 C223.25568182 141.62148699 233.08142564 171.08522825 234.28515625 199.42578125 C235.06686413 231.19383124 226.25209974 260.9802416 204.37109375 284.55859375 C183.06001203 306.50163506 154.88402174 316.47459245 124.69335938 317.00683594 C94.28696588 316.92966235 66.56035786 308.8007785 44.75 286.9375 C43.15888375 285.29918962 41.57255458 283.65613523 40 282 C39.88406494 282.80219971 39.76812988 283.60439941 39.64868164 284.4309082 C39.12279176 288.05852342 38.59269704 291.68551191 38.0625 295.3125 C37.88009766 296.57513672 37.69769531 297.83777344 37.50976562 299.13867188 C37.33251953 300.34716797 37.15527344 301.55566406 36.97265625 302.80078125 C36.81031494 303.91622314 36.64797363 305.03166504 36.48071289 306.1809082 C36 309 36 309 35 312 C23.45 312 11.9 312 0 312 C0 209.04 0 106.08 0 0 Z M63 150 C62.28328125 150.59296875 61.5665625 151.1859375 60.828125 151.796875 C48.22349616 163.22898022 41.86920332 181.41881197 40.87719727 198.06005859 C40.06909388 219.14934647 44.07556709 238.88490422 58.0625 255.44140625 C71.51881963 269.64262929 89.82771471 275.77437446 109 277 C110.19302734 277.08121094 110.19302734 277.08121094 111.41015625 277.1640625 C131.62566493 277.85145228 151.45059386 271.96989125 167.0625 259 C181.16738957 245.73785541 187.17493889 227.57083411 188.18359375 208.53515625 C188.57965941 187.45048412 183.20080262 167.82963103 168.4296875 152.3125 C152.81899756 137.45473723 132.76138959 132.43064709 111.66748047 132.6484375 C93.68175961 133.20963876 76.89831462 138.25368248 63 150 Z " fill="#0013DC" transform="translate(811,155)"/>
<path d="M0 0 C0.67675781 0.61359375 1.35351562 1.2271875 2.05078125 1.859375 C2.82035156 2.51421875 3.58992187 3.1690625 4.3828125 3.84375 C6.05078125 5.859375 6.05078125 5.859375 6.140625 7.7890625 C4.55036833 10.8099802 2.16235896 12.78944456 -0.38671875 14.984375 C-1.48364862 15.95491304 -2.57866851 16.92761363 -3.671875 17.90234375 C-4.22246582 18.3926709 -4.77305664 18.88299805 -5.34033203 19.38818359 C-7.76064175 21.601353 -10.03722717 23.94722612 -12.32421875 26.296875 C-15.66804277 29.6892384 -18.83021031 32.47468591 -22.94921875 34.859375 C-23.62791016 34.14974609 -23.62791016 34.14974609 -24.3203125 33.42578125 C-41.61109767 16.65796879 -65.32895761 11.44433475 -88.69921875 11.546875 C-89.68701324 11.54960922 -89.68701324 11.54960922 -90.69476318 11.55239868 C-107.43163207 11.6303426 -125.6807194 12.82541089 -138.39453125 25.1171875 C-142.99432569 30.27173102 -144.12092482 36.09844863 -143.94921875 42.859375 C-142.39302857 48.1331306 -140.2910144 51.49226817 -135.94921875 54.859375 C-118.48665885 64.15798059 -97.60888496 64.03502919 -78.35888672 65.58618164 C-13.96562142 70.83118089 -13.96562142 70.83118089 3.05078125 89.859375 C13.64305354 103.69693922 16.58703526 119.50621839 14.42578125 136.546875 C11.07823595 154.28221436 2.69104919 168.35244316 -11.953125 179.0546875 C-42.23759049 198.60024437 -82.32315975 200.67246437 -116.84033203 193.33056641 C-145.93254041 186.83045502 -168.32183874 172.00532043 -188.94921875 150.859375 C-183.08631453 143.85248946 -176.86954605 137.59739129 -169.94921875 131.63671875 C-166.81133773 128.84817214 -163.87511552 125.86756262 -160.94921875 122.859375 C-157.32047563 124.36657304 -155.27317491 126.4815852 -152.63671875 129.359375 C-134.64810316 147.58433736 -108.31367422 157.80545163 -82.88671875 158.10058594 C-67.20660343 158.14087407 -67.20660343 158.14087407 -51.94921875 154.859375 C-51.03398438 154.56933594 -50.11875 154.27929688 -49.17578125 153.98046875 C-41.3378751 151.16776669 -35.05943901 147.47290321 -30.94921875 140.046875 C-28.45208505 134.40081339 -27.79085802 129.63426822 -29.61328125 123.6953125 C-32.30125464 117.45453951 -36.2923916 114.50169802 -42.3671875 111.7734375 C-48.42249124 109.50163102 -54.54922358 108.30882287 -60.91796875 107.36328125 C-61.78371017 107.23432968 -62.6494516 107.10537811 -63.54142761 106.97251892 C-75.05153075 105.33133342 -86.64180931 104.55028461 -98.23217773 103.70532227 C-158.36612228 99.26397618 -158.36612228 99.26397618 -175.94921875 79.859375 C-185.81011319 66.96283298 -188.13635429 52.81611152 -186.67578125 36.875 C-184.29115677 19.86767825 -176.09730664 5.3451002 -163.07421875 -5.796875 C-119.1694355 -38.72546244 -41.94585619 -35.06354818 0 0 Z " fill="#0013DC" transform="translate(698.94921875,275.140625)"/>
<path d="M0 0 C13.86 0 27.72 0 42 0 C42 102.96 42 205.92 42 312 C28.14 312 14.28 312 0 312 C0 209.04 0 106.08 0 0 Z " fill="#0014DB" transform="translate(738,155)"/>
</svg>
