<?xml version="1.0" encoding="UTF-8"?>
<svg version="1.1" xmlns="http://www.w3.org/2000/svg" width="400" height="300">
<path d="M0 0 C1.41142592 -0.00473286 2.82284622 -0.01154089 4.23425293 -0.02029419 C7.17284194 -0.03053363 10.10992766 -0.01588496 13.04833984 0.01708984 C16.7809697 0.05697728 20.51007551 0.03396865 24.2425766 -0.0079174 C27.15136399 -0.0334348 30.05934063 -0.02506281 32.96815491 -0.00702286 C34.34262021 -0.00241394 35.71716365 -0.00786606 37.09153748 -0.02437973 C45.66026056 -0.10478857 52.58926406 0.9071412 59.84841919 5.70379639 C62.41504208 8.32105057 62.85662543 9.56203695 63.08862305 13.18383789 C62.96243546 15.21922599 62.77698081 17.25151888 62.54296875 19.27734375 C62.41170266 21.50883619 62.28691277 23.74071724 62.16796875 25.97290039 C62.08981934 27.12323761 62.01166992 28.27357483 61.93115234 29.45877075 C60.18565309 46.69754359 60.18565309 46.69754359 65.20556641 62.52734375 C70.82005734 67.56996132 77.21414541 69.54247 84.30712891 71.71630859 C85.53608887 72.11672363 86.76504883 72.51713867 88.03125 72.9296875 C88.76752625 73.16947327 89.50380249 73.40925903 90.26239014 73.65631104 C95.94823898 75.67651114 101.32173506 77.99972003 105.03125 82.9296875 C107.61205174 90.17603835 107.14070276 97.9930443 106.80810547 105.57128906 C106.65588252 109.18841966 106.64398922 112.78628029 106.65234375 116.40625 C106.61237176 118.71109441 106.56446819 121.01581784 106.5078125 123.3203125 C106.50093414 124.39541077 106.49405579 125.47050903 106.48696899 126.57818604 C106.09665425 133.84089824 106.09665425 133.84089824 103.1431427 136.85923767 C100.8380853 138.42467016 98.53039845 139.70195119 96.03125 140.9296875 C94.9786499 141.55238525 93.9260498 142.17508301 92.84155273 142.81665039 C91.41758179 143.6015686 91.41758179 143.6015686 89.96484375 144.40234375 C88.3705957 145.28696289 88.3705957 145.28696289 86.74414062 146.18945312 C85.12282227 147.08180664 85.12282227 147.08180664 83.46875 147.9921875 C81.29971397 149.18947477 79.1317212 150.38865425 76.96484375 151.58984375 C75.94374512 152.1533252 74.92264648 152.71680664 73.87060547 153.29736328 C71.35176627 154.74542509 68.96806776 156.29445337 66.56640625 157.92578125 C64.22456404 159.39313808 63.33534491 159.92019936 60.52734375 160.0078125 C56.91324603 158.44679377 53.51168654 156.6301568 50.09375 154.6796875 C49.3203125 154.25163818 48.546875 153.82358887 47.75 153.38256836 C43.15494093 150.81241201 38.70674809 148.09397159 34.30859375 145.19921875 C33.34751709 144.58401367 32.38644043 143.96880859 31.39624023 143.33496094 C29.51581221 142.12546194 27.65594059 140.88326289 25.82055664 139.60644531 C21.04919661 136.47578562 21.04919661 136.47578562 15.57641602 136.45654297 C12.89629914 137.75743561 10.50755436 139.27395698 8.03125 140.9296875 C6.06602034 142.06309061 4.09574607 143.18778176 2.12109375 144.3046875 C0.06843217 145.50982385 -1.98233157 146.71819815 -4.03125 147.9296875 C-7.06969863 149.71948481 -10.10926324 151.50685979 -13.15673828 153.28125 C-14.96331184 154.34028669 -16.75967101 155.4170545 -18.54248047 156.515625 C-19.71061279 157.21558594 -19.71061279 157.21558594 -20.90234375 157.9296875 C-21.90672485 158.5484375 -21.90672485 158.5484375 -22.93139648 159.1796875 C-25.69560958 160.19726241 -27.17243534 159.80259005 -29.96875 158.9296875 C-32.50146484 157.67382812 -32.50146484 157.67382812 -35.1796875 156.0859375 C-36.170896 155.50287842 -37.16210449 154.91981934 -38.18334961 154.3190918 C-39.22628174 153.69558838 -40.26921387 153.07208496 -41.34375 152.4296875 C-42.41052979 151.79909424 -43.47730957 151.16850098 -44.57641602 150.51879883 C-47.71152154 148.66293192 -50.84064704 146.79732637 -53.96875 144.9296875 C-55.59486107 143.96452186 -57.22114144 142.99964134 -58.84765625 142.03515625 C-68.76416545 136.13427205 -68.76416545 136.13427205 -69.96875 134.9296875 C-70.06215434 133.30293972 -70.08620171 131.67214699 -70.08227539 130.04272461 C-70.08219986 129.00172104 -70.08212433 127.96071747 -70.08204651 126.88816833 C-70.07688522 125.7558931 -70.07172394 124.62361786 -70.06640625 123.45703125 C-70.0649913 122.30425186 -70.06357635 121.15147247 -70.06211853 119.96376038 C-70.05650005 116.26487686 -70.04394442 112.56605286 -70.03125 108.8671875 C-70.02623738 106.36653733 -70.02167406 103.86588621 -70.01757812 101.36523438 C-70.00652462 95.22003162 -69.98976852 89.07486381 -69.96875 82.9296875 C-69.25968506 82.52242432 -68.55062012 82.11516113 -67.82006836 81.69555664 C-64.51462001 79.79589524 -61.21025409 77.89435912 -57.90625 75.9921875 C-57.31416748 75.65154266 -56.72208496 75.31089783 -56.11206055 74.95993042 C-48.40437919 70.52345009 -40.71673015 66.06014009 -33.15991211 61.36938477 C-29.17966744 58.9296875 -29.17966744 58.9296875 -26.96875 58.9296875 C-26.99539734 58.3062999 -27.02204468 57.68291229 -27.04949951 57.04063416 C-27.31554909 50.5361514 -27.49616859 44.03321699 -27.62792969 37.5246582 C-27.68818122 35.0982383 -27.7700064 32.67225244 -27.87402344 30.24731445 C-28.02010068 26.75363363 -28.08772123 23.26571395 -28.140625 19.76953125 C-28.20256042 18.6900975 -28.26449585 17.61066376 -28.32830811 16.4985199 C-28.33245485 11.82949143 -28.09920893 9.07639507 -24.74365234 5.67260742 C-16.86745312 0.46758188 -9.20465867 -0.11059781 0 0 Z " fill="#1D6095" transform="translate(182.96875,-0.9296875)"/>
<path d="M0 0 C0.90331055 0.51804199 1.80662109 1.03608398 2.73730469 1.56982422 C10.30848259 5.90707863 17.90507685 10.18996589 25.5534668 14.38989258 C30.48790625 17.11450405 35.28365929 19.97857485 39.95703125 23.13671875 C42.73716295 24.31149716 44.09922182 23.79609382 47 23 C48.95399972 22.02481243 50.87010491 20.97190385 52.75390625 19.8671875 C54.4080957 18.90425781 54.4080957 18.90425781 56.09570312 17.921875 C57.25140951 17.23976532 58.40700815 16.55747304 59.5625 15.875 C60.67947266 15.22273438 61.79644531 14.57046875 62.94726562 13.8984375 C69.67332363 9.97262852 69.67332363 9.97262852 76.33935547 5.94628906 C77.91740967 4.98674316 77.91740967 4.98674316 79.52734375 4.0078125 C80.4618335 3.42918457 81.39632324 2.85055664 82.35913086 2.25439453 C85.28550623 0.86438652 86.80804425 0.53741137 90 1 C92.5168457 2.14233398 92.5168457 2.14233398 95.17578125 3.74609375 C96.1615918 4.33253662 97.14740234 4.91897949 98.16308594 5.52319336 C99.20239258 6.15491455 100.24169922 6.78663574 101.3125 7.4375 C103.46970305 8.71933757 105.62725623 10.00058608 107.78515625 11.28125 C109.85692281 12.5205793 111.92854671 13.76014715 114 15 C117.07247443 16.83192066 120.15471487 18.64444317 123.25 20.4375 C124.20386597 21.01165649 124.20386597 21.01165649 125.17700195 21.59741211 C128.31283075 23.50726698 128.31283075 23.50726698 131.85717773 23.76391602 C134.52627758 22.81238207 136.8617231 21.54672029 139.33203125 20.15625 C140.37166016 19.57311035 141.41128906 18.9899707 142.48242188 18.38916016 C143.58134766 17.7657373 144.68027344 17.14231445 145.8125 16.5 C147.48989258 15.55519775 147.48989258 15.55519775 149.20117188 14.59130859 C156.14776479 10.66353401 163.04739107 6.66792483 169.84692383 2.49023438 C173.90794911 0 173.90794911 0 175 0 C175.22849796 7.15269442 175.38592406 14.30444648 175.49438477 21.45996094 C175.53960193 23.89293585 175.60098912 26.32566678 175.67895508 28.7578125 C175.78834919 32.25842416 175.83921234 35.75580166 175.87890625 39.2578125 C175.92535782 40.34240753 175.97180939 41.42700256 176.01966858 42.54446411 C176.02458548 49.92659214 176.02458548 49.92659214 173.14976501 52.93840027 C170.83333475 54.5106583 168.51726476 55.77941886 166 57 C164.9473999 57.62269775 163.8947998 58.24539551 162.81030273 58.88696289 C161.38633179 59.6718811 161.38633179 59.6718811 159.93359375 60.47265625 C158.87076172 61.06240234 157.80792969 61.65214844 156.71289062 62.25976562 C155.09157227 63.15211914 155.09157227 63.15211914 153.4375 64.0625 C151.26846397 65.25978727 149.1004712 66.45896675 146.93359375 67.66015625 C145.91249512 68.2236377 144.89139648 68.78711914 143.83935547 69.36767578 C141.32051627 70.81573759 138.93681776 72.36476587 136.53515625 73.99609375 C134.19331404 75.46345058 133.30409491 75.99051186 130.49609375 76.078125 C126.88199603 74.51710627 123.48043654 72.7004693 120.0625 70.75 C119.2890625 70.32195068 118.515625 69.89390137 117.71875 69.45288086 C113.12369093 66.88272451 108.67549809 64.16428409 104.27734375 61.26953125 C103.31626709 60.65432617 102.35519043 60.03912109 101.36499023 59.40527344 C99.48456221 58.19577444 97.62469059 56.95357539 95.78930664 55.67675781 C91.01794661 52.54609812 91.01794661 52.54609812 85.54516602 52.52685547 C82.86504914 53.82774811 80.47630436 55.34426948 78 57 C76.03477034 58.13340311 74.06449607 59.25809426 72.08984375 60.375 C70.03718217 61.58013635 67.98641843 62.78851065 65.9375 64 C62.89905137 65.78979731 59.85948676 67.57717229 56.81201172 69.3515625 C55.00543816 70.41059919 53.20907899 71.487367 51.42626953 72.5859375 C50.25813721 73.28589844 50.25813721 73.28589844 49.06640625 74 C48.39681885 74.4125 47.72723145 74.825 47.03735352 75.25 C44.27314042 76.26757491 42.79631466 75.87290255 40 75 C37.46728516 73.74414062 37.46728516 73.74414062 34.7890625 72.15625 C33.797854 71.57319092 32.80664551 70.99013184 31.78540039 70.3894043 C30.74246826 69.76590088 29.69953613 69.14239746 28.625 68.5 C27.55822021 67.86940674 26.49144043 67.23881348 25.39233398 66.58911133 C22.25722846 64.73324442 19.12810296 62.86763887 16 61 C14.37388893 60.03483436 12.74760856 59.06995384 11.12109375 58.10546875 C1.20458455 52.20458455 1.20458455 52.20458455 0 51 C-0.09333705 49.40389018 -0.11745372 47.80366572 -0.11352539 46.20483398 C-0.11344986 45.18385117 -0.11337433 44.16286835 -0.11329651 43.11094666 C-0.10813522 42.0005452 -0.10297394 40.89014374 -0.09765625 39.74609375 C-0.0962413 38.61551041 -0.09482635 37.48492706 -0.09336853 36.32008362 C-0.08775019 32.69252935 -0.07519458 29.06503576 -0.0625 25.4375 C-0.05748736 22.98502693 -0.05292405 20.5325529 -0.04882812 18.08007812 C-0.0377748 12.05336455 -0.02101884 6.02668661 0 0 Z " fill="#1D6094" transform="translate(113,83)"/>
<path d="M0 0 C10.89 0 21.78 0 33 0 C37.91853315 6.14816643 42.70425299 12.22336662 47.25 18.625 C53.35209604 27.20047897 59.68014794 35.57353058 66 44 C66.33 29.48 66.66 14.96 67 0 C77.56 0 88.12 0 99 0 C99 33.99 99 67.98 99 103 C68 103 68 103 61.875 97.125 C60.65332031 95.0859375 60.65332031 95.0859375 59.953125 93.25 C57.83357813 88.36364678 54.80913375 84.36834748 51.625 80.125 C50.63633517 78.75381801 49.64940292 77.38138538 48.6640625 76.0078125 C43.50617366 68.95833116 38.24095808 61.98794411 33 55 C32.67 70.84 32.34 86.68 32 103 C21.44 103 10.88 103 0 103 C0 69.01 0 35.02 0 0 Z " fill="#163A69" transform="translate(151,185)"/>
<path d="M0 0 C4.87427178 3.9547663 9.65988768 9.08877877 12 15 C11.87670898 16.92993164 11.87670898 16.92993164 11 19 C8.71508789 20.55566406 8.71508789 20.55566406 5.72265625 22.015625 C4.11680664 22.80839844 4.11680664 22.80839844 2.47851562 23.6171875 C1.35123047 24.15601563 0.22394531 24.69484375 -0.9375 25.25 C-2.06091797 25.80429688 -3.18433594 26.35859375 -4.34179688 26.9296875 C-12.67791718 31 -12.67791718 31 -15 31 C-16.33203125 29.35546875 -16.33203125 29.35546875 -17.8125 27.1875 C-20.85006439 23.06457087 -23.06700036 20.65579393 -28.21875 19.50390625 C-35.30542888 18.44309167 -40.83790032 19.49945 -46.9765625 23.1875 C-52.12827662 27.04580505 -54.49388789 31.81513725 -56 38 C-57.01888488 45.45781714 -55.95861624 51.57536052 -52 58 C-47.81666925 63.22916344 -42.78029131 66.54209123 -36.09765625 67.3515625 C-29.74957519 67.52767572 -24.67759561 66.89236003 -19 64 C-18.505 62.515 -18.505 62.515 -18 61 C-24.27 61 -30.54 61 -37 61 C-37 51.76 -37 42.52 -37 33 C-20.17 33 -3.34 33 14 33 C14.185625 40.095 14.37125 47.19 14.5625 54.5 C14.68540405 57.83641602 14.68540405 57.83641602 14.81079102 61.24023438 C15.11219174 75.15415351 15.11219174 75.15415351 12.15649414 80.05957031 C9.87011054 82.12684912 7.72208398 83.57142485 5 85 C3.50919922 86.07507813 3.50919922 86.07507813 1.98828125 87.171875 C-13.72576929 96.43972379 -31.35015382 98.70431107 -49.3046875 95.3046875 C-63.16327116 91.69599723 -75.42121155 83.36331661 -82.9375 71.0625 C-90.73168758 56.48278441 -91.84796949 40.27650206 -87.25390625 24.42578125 C-82.62326467 11.31592041 -73.08414095 1.25969186 -60.6875 -4.8125 C-40.44263641 -13.18188495 -18.20889999 -12.74622999 0 0 Z " fill="#163A69" transform="translate(351,194)"/>
<path d="M0 0 C10.56 0 21.12 0 32 0 C32.02578125 4.455 32.0515625 8.91 32.078125 13.5 C32.10983568 17.06870077 32.14548778 20.63731412 32.18379211 24.20594788 C32.22305424 27.96397692 32.25548965 31.72177194 32.27099609 35.47998047 C32.28622219 39.10479954 32.32077094 42.72898143 32.36830902 46.35351562 C32.38306199 47.73122597 32.3910375 49.10902733 32.39188385 50.48681641 C32.40159132 58.371085 32.58868672 64.32580549 37 71 C42.28595948 75.49868892 47.14982471 75.55490855 53.96875 75.3203125 C59.13310256 74.77459483 61.82834248 73.26665678 65.3125 69.5 C67.99203044 65.53032527 68.14087455 62.47069343 68.20532227 57.78442383 C68.22526749 56.5033223 68.24521271 55.22222076 68.26576233 53.90229797 C68.2827454 52.50387696 68.29962425 51.10545469 68.31640625 49.70703125 C68.33698166 48.2764171 68.35797829 46.84580895 68.37937927 45.41520691 C68.43453933 41.65219994 68.48397529 37.88913865 68.53222656 34.1260376 C68.59132448 29.60969357 68.65751904 25.09344867 68.72252655 20.57718658 C68.82045976 13.718185 68.90936783 6.85911945 69 0 C79.89 0 90.78 0 102 0 C102.04212417 7.98253098 102.08217356 15.96465131 102.10350037 23.94719696 C102.11399214 27.66577488 102.12797473 31.38425926 102.15087891 35.1027832 C102.17286208 38.69490782 102.18462133 42.28694263 102.18975449 45.87912941 C102.19516258 47.89338268 102.21073301 49.90760062 102.22659302 51.92179871 C102.22833706 66.47253111 101.00825622 80.43602647 91 91.8125 C78.97792911 102.59545393 62.41565578 105.67382522 46.76171875 105.28125 C33.14943942 104.26350949 18.35111553 100.74179425 9 90 C0.63774079 78.58611065 -0.44019208 67.49664747 -0.29296875 53.7109375 C-0.28736211 52.15581678 -0.28309707 50.6006907 -0.28010559 49.04556274 C-0.26874072 44.98489327 -0.23934738 40.92455411 -0.20599365 36.86401367 C-0.16966538 31.97468388 -0.15609172 27.08524263 -0.13863373 22.19581604 C-0.10970346 14.79698212 -0.05215914 7.39887061 0 0 Z " fill="#163A69" transform="translate(35,185)"/>
<path d="M0 0 C0.90331055 0.51804199 1.80662109 1.03608398 2.73730469 1.56982422 C10.30848259 5.90707863 17.90507685 10.18996589 25.5534668 14.38989258 C30.48790625 17.11450405 35.28365929 19.97857485 39.95703125 23.13671875 C42.73716295 24.31149716 44.09922182 23.79609382 47 23 C48.95399972 22.02481243 50.87010491 20.97190385 52.75390625 19.8671875 C54.4080957 18.90425781 54.4080957 18.90425781 56.09570312 17.921875 C57.25140951 17.23976532 58.40700815 16.55747304 59.5625 15.875 C60.67947266 15.22273438 61.79644531 14.57046875 62.94726562 13.8984375 C67.44761664 11.26866717 71.94461981 8.63567651 76.40966797 5.94628906 C77.47975098 5.3065918 78.54983398 4.66689453 79.65234375 4.0078125 C80.61003662 3.42918457 81.56772949 2.85055664 82.55444336 2.25439453 C85 1 85 1 88 1 C87.98549805 2.02923584 87.97099609 3.05847168 87.95605469 4.11889648 C87.89322169 10.92996292 87.89701324 17.6557567 88.56486511 24.43969727 C90.45475017 44.16563288 90.45475017 44.16563288 87 52 C80.6510842 59.35499518 71.6021088 62.87714504 62.74462891 66.38378906 C57.51013502 68.5265844 52.80605046 71.56839681 48.0300293 74.57177734 C45 76 45 76 42.42651367 75.89892578 C39.68336644 74.88269999 37.30683294 73.64901016 34.7890625 72.15625 C33.797854 71.57319092 32.80664551 70.99013184 31.78540039 70.3894043 C30.74246826 69.76590088 29.69953613 69.14239746 28.625 68.5 C27.55822021 67.86940674 26.49144043 67.23881348 25.39233398 66.58911133 C22.25722846 64.73324442 19.12810296 62.86763887 16 61 C14.37388893 60.03483436 12.74760856 59.06995384 11.12109375 58.10546875 C1.20458455 52.20458455 1.20458455 52.20458455 0 51 C-0.09333705 49.40389018 -0.11745372 47.80366572 -0.11352539 46.20483398 C-0.11344986 45.18385117 -0.11337433 44.16286835 -0.11329651 43.11094666 C-0.10813522 42.0005452 -0.10297394 40.89014374 -0.09765625 39.74609375 C-0.0962413 38.61551041 -0.09482635 37.48492706 -0.09336853 36.32008362 C-0.08775019 32.69252935 -0.07519458 29.06503576 -0.0625 25.4375 C-0.05748736 22.98502693 -0.05292405 20.5325529 -0.04882812 18.08007812 C-0.0377748 12.05336455 -0.02101884 6.02668661 0 0 Z " fill="#223F6B" transform="translate(113,83)"/>
<path d="M0 0 C0 16.83 0 33.66 0 51 C-3.774375 53.10375 -7.54875 55.2075 -11.4375 57.375 C-20.04789067 62.18006634 -28.61445556 67.04121058 -37.04663086 72.15380859 C-41.79048446 75 -41.79048446 75 -44 75 C-46.99849473 69.00301053 -45.74123343 59.84940509 -45.89941406 53.26293945 C-45.96612457 51.0574446 -46.06154665 48.85261954 -46.18652344 46.6496582 C-47.16911437 28.97762741 -47.16911437 28.97762741 -43.69763184 24.21218872 C-40.2638148 21.17543984 -36.29211756 19.48345411 -32.0534668 17.84249878 C-28.81268276 16.51286608 -25.95232509 14.72049772 -22.953125 12.91015625 C-20.71953798 11.62623239 -18.48517006 10.34366598 -16.25 9.0625 C-13.98366218 7.76295059 -11.71820032 6.46190836 -9.453125 5.16015625 C-8.47504883 4.59949463 -7.49697266 4.03883301 -6.48925781 3.46118164 C-0.59281537 0 -0.59281537 0 0 0 Z " fill="#24325B" transform="translate(245,7)"/>
<path d="M0 0 C1.83153433 0.88174194 3.6285246 1.83716799 5.39453125 2.84375 C6.42586182 3.42688965 7.45719238 4.0100293 8.51977539 4.61083984 C9.60637451 5.2342627 10.69297363 5.85768555 11.8125 6.5 C12.92294678 7.12986816 14.03339355 7.75973633 15.17749023 8.40869141 C17.4095613 9.67505735 19.64013415 10.94406794 21.86914062 12.21582031 C26.08976062 14.62102079 30.32552653 16.99877599 34.5625 19.375 C36.70875899 20.5825792 38.85437811 21.79128901 41 23 C41 23.66 41 24.32 41 25 C40.40276123 25.33620361 39.80552246 25.67240723 39.19018555 26.01879883 C37.38799308 27.03387826 35.58619081 28.04965059 33.78466797 29.06591797 C31.70778112 30.23713415 29.62996982 31.40671242 27.55126953 32.57470703 C22.46854488 35.43875114 17.41178635 38.33083945 12.41796875 41.34765625 C11.56436768 41.85901123 10.7107666 42.37036621 9.83129883 42.8972168 C8.22355619 43.86448309 6.62276141 44.84341635 5.0300293 45.83520508 C4.305979 46.26857178 3.58192871 46.70193848 2.8359375 47.1484375 C2.21251465 47.53177246 1.5890918 47.91510742 0.94677734 48.31005859 C-1.75387527 49.26717476 -3.27614271 48.8357757 -6 48 C-8.53271484 46.74414062 -8.53271484 46.74414062 -11.2109375 45.15625 C-12.202146 44.57327148 -13.19335449 43.99029297 -14.21459961 43.38964844 C-15.25753174 42.76606445 -16.30046387 42.14248047 -17.375 41.5 C-18.97516968 40.55302246 -18.97516968 40.55302246 -20.60766602 39.58691406 C-22.74667019 38.31957146 -24.88382855 37.04910784 -27.01904297 35.77539062 C-29.63245586 34.21890098 -32.25306981 32.67601995 -34.87890625 31.140625 C-36.23203072 30.34419138 -37.58491793 29.54735443 -38.9375 28.75 C-39.85764893 28.21342773 -39.85764893 28.21342773 -40.79638672 27.66601562 C-44.88511489 25.22977022 -44.88511489 25.22977022 -46 23 C-45.29093506 22.59273682 -44.58187012 22.18547363 -43.85131836 21.76586914 C-41.14778052 20.2121294 -38.44508587 18.65693343 -35.74276733 17.10107422 C-33.94362726 16.06602502 -32.1433359 15.03299809 -30.34301758 14 C-25.22230166 11.05613416 -20.11115347 8.10872647 -15.109375 4.96484375 C-14.43011963 4.54001709 -13.75086426 4.11519043 -13.05102539 3.67749023 C-11.31147423 2.57833456 -9.58300856 1.46168901 -7.85546875 0.34375 C-4.45807418 -1.25502391 -3.53428599 -1.01257781 0 0 Z " fill="#B9D2EF" transform="translate(159,59)"/>
<path d="M0 0 C2.09975582 1.04805173 4.16107069 2.17464939 6.19140625 3.3515625 C6.77736069 3.68868256 7.36331512 4.02580261 7.96702576 4.37313843 C9.83605577 5.45055026 11.6992801 6.53757777 13.5625 7.625 C14.78674026 8.33267019 16.01134689 9.03970697 17.23632812 9.74609375 C20.82980997 11.82117508 24.41569215 13.9091228 28 16 C29.19253322 16.69500818 30.38507861 17.38999547 31.57763672 18.08496094 C34.38572634 19.72222277 37.19320571 21.36051887 40 23 C37.12492108 26.11618188 34.31330882 28.1454438 30.59765625 30.171875 C29.54803711 30.7505835 28.49841797 31.32929199 27.41699219 31.92553711 C25.75651855 32.82864624 25.75651855 32.82864624 24.0625 33.75 C15.99007942 38.1805925 8.06850238 42.66011081 0.453125 47.83984375 C-2.66130311 49.31275004 -3.71547884 48.93956607 -7 48 C-9.09975582 46.95194827 -11.16107069 45.82535061 -13.19140625 44.6484375 C-13.77736069 44.31131744 -14.36331512 43.97419739 -14.96702576 43.62686157 C-16.83605577 42.54944974 -18.6992801 41.46242223 -20.5625 40.375 C-21.78674026 39.66732981 -23.01134689 38.96029303 -24.23632812 38.25390625 C-26.65007136 36.86071845 -29.05920545 35.46000785 -31.46533203 34.05371094 C-33.82475749 32.67658521 -36.19535706 31.32253325 -38.57763672 29.98535156 C-39.67479004 29.36370117 -40.77194336 28.74205078 -41.90234375 28.1015625 C-42.88581787 27.55064941 -43.86929199 26.99973633 -44.88256836 26.43212891 C-45.5813208 25.95952637 -46.28007324 25.48692383 -47 25 C-47 24.34 -47 23.68 -47 23 C-46.33170166 22.6282666 -45.66340332 22.2565332 -44.97485352 21.87353516 C-41.8362317 20.12611682 -38.69934583 18.37560438 -35.5625 16.625 C-33.8614209 15.67838501 -33.8614209 15.67838501 -32.12597656 14.71264648 C-26.94626411 11.81894214 -21.78955793 8.90932583 -16.73046875 5.80859375 C-15.963396 5.34050293 -15.19632324 4.87241211 -14.40600586 4.39013672 C-13.00183869 3.52547121 -11.60501652 2.64872532 -10.21704102 1.75830078 C-6.26189786 -0.67193711 -4.42035954 -1.33541346 0 0 Z " fill="#B9D2EF" transform="translate(248,59)"/>
<path d="M0 0 C1.4176442 -0.00405459 2.8352843 -0.00988829 4.25291443 -0.01739502 C7.20572117 -0.02617837 10.15742968 -0.01358905 13.11010742 0.01464844 C16.86841593 0.04886672 20.62415592 0.02909758 24.38237095 -0.00678635 C27.30387757 -0.02861111 30.22478871 -0.02150351 33.14631462 -0.00601959 C34.53080499 -0.00205794 35.91535199 -0.00678308 37.29977608 -0.02089691 C46.30058887 -0.09256771 53.00061689 0.87784458 60.05859375 6.796875 C60.55359375 7.786875 60.55359375 7.786875 61.05859375 8.796875 C60.01070679 9.39991455 60.01070679 9.39991455 58.94165039 10.01513672 C56.85248914 11.21781557 54.76391828 12.4215203 52.67578125 13.62597656 C50.29801292 14.99655999 47.91614274 16.35962853 45.53125 17.71777344 C40.22936484 20.74618821 34.97102384 23.78903855 29.8984375 27.1953125 C29.15263428 27.68273926 28.40683105 28.17016602 27.63842773 28.67236328 C26.29152088 29.56250128 24.96461536 30.48399532 23.66430664 31.44091797 C21.83984375 32.625 21.83984375 32.625 18.05859375 33.796875 C14.36099597 32.74457374 11.31153624 30.80917941 8.05859375 28.796875 C6.10117156 27.68199252 4.14280565 26.56876563 2.18359375 25.45703125 C0.14004119 24.26102902 -1.90160787 23.06176884 -3.94140625 21.859375 C-4.9571875 21.26447266 -5.97296875 20.66957031 -7.01953125 20.05664062 C-9.02457109 18.88060764 -11.02724867 17.70053634 -13.02734375 16.51611328 C-14.98383354 15.36182364 -16.94754662 14.21969769 -18.91796875 13.08935547 C-19.83320313 12.55842285 -20.7484375 12.02749023 -21.69140625 11.48046875 C-22.51125 11.0105249 -23.33109375 10.54058105 -24.17578125 10.05639648 C-24.7584375 9.64075439 -25.34109375 9.2251123 -25.94140625 8.796875 C-25.94140625 8.136875 -25.94140625 7.476875 -25.94140625 6.796875 C-17.38093846 0.95105418 -10.19232781 -0.10408487 0 0 Z " fill="#BAD2EF" transform="translate(182.94140625,-0.796875)"/>
<path d="M0 0 C0 16.5 0 33 0 50 C-3.75550914 48.49779634 -7.00077384 46.98153813 -10.5 45.0234375 C-11.54671875 44.43852539 -12.5934375 43.85361328 -13.671875 43.25097656 C-15.31929687 42.32236816 -15.31929687 42.32236816 -17 41.375 C-18.11890625 40.74561523 -19.2378125 40.11623047 -20.390625 39.46777344 C-42.51405206 26.97189589 -42.51405206 26.97189589 -44 24 C-35.59179688 19.1953125 -35.59179688 19.1953125 -27.18359375 14.390625 C-26.57509583 14.04281982 -25.9665979 13.69501465 -25.33966064 13.33666992 C-24.10589066 12.63184483 -22.87179914 11.92758229 -21.63739014 11.22387695 C-18.42265761 9.3902537 -15.21475581 7.54600338 -12.01660156 5.68359375 C-11.37530304 5.3119812 -10.73400452 4.94036865 -10.07327271 4.55749512 C-8.84587239 3.8459113 -7.62041636 3.13096035 -6.39718628 2.41223145 C-2.22480412 0 -2.22480412 0 0 0 Z " fill="#221E46" transform="translate(157,109)"/>
<path d="M0 0 C3.13226223 1.25290489 5.80646959 2.35090397 8.6875 3.9609375 C9.37666504 4.34459473 10.06583008 4.72825195 10.77587891 5.12353516 C11.50983887 5.53651855 12.24379883 5.94950195 13 6.375 C14.15314697 7.01961182 14.15314697 7.01961182 15.32958984 7.67724609 C24.92286704 13.05369815 34.46324986 18.52409619 44 24 C40.93934577 27.3549657 37.78716836 29.46103189 33.8359375 31.6796875 C33.24382477 32.01493439 32.65171204 32.35018127 32.04165649 32.69558716 C30.15618647 33.7615892 28.26586832 34.81860847 26.375 35.875 C24.51219227 36.92292019 22.65045561 37.97271564 20.78912354 39.02325439 C19.57705961 39.70708133 18.36429761 40.38967252 17.15081787 41.07098389 C12.65950512 43.60014017 8.25049393 46.2453269 3.87744141 48.97314453 C2 50 2 50 0 50 C0 33.5 0 17 0 0 Z " fill="#221E46" transform="translate(244,109)"/>
<path d="M0 0 C0 16.5 0 33 0 50 C-4.41870393 48.52709869 -7.49162704 47.31371011 -11.37890625 45.0234375 C-12.37728516 44.43836426 -13.37566406 43.85329102 -14.40429688 43.25048828 C-15.44650391 42.63157715 -16.48871094 42.01266602 -17.5625 41.375 C-18.62919922 40.74706543 -19.69589844 40.11913086 -20.79492188 39.47216797 C-28.25206624 35.07072807 -35.66976805 30.61002869 -43 26 C-39.93934577 22.6450343 -36.78716836 20.53896811 -32.8359375 18.3203125 C-32.24382477 17.98506561 -31.65171204 17.64981873 -31.04165649 17.30441284 C-29.15618647 16.2384108 -27.26586832 15.18139153 -25.375 14.125 C-23.51213076 13.07704521 -21.65033234 12.02721377 -19.78887939 10.97674561 C-18.57747216 10.29319788 -17.36552318 9.61060929 -16.15301514 8.92901611 C-11.63898013 6.38461173 -7.19417863 3.73985871 -2.77978516 1.02685547 C-1 0 -1 0 0 0 Z " fill="#157E93" transform="translate(288,83)"/>
<path d="M0 0 C6.93 3.96 6.93 3.96 14 8 C17.03835633 9.69418749 20.07825055 11.38370778 23.125 13.0625 C30.14291054 16.94394784 37.0989439 20.91349227 44 25 C40.78249501 27.54277269 37.40229641 29.56232643 33.8359375 31.58203125 C33.24382477 31.91869308 32.65171204 32.25535492 32.04165649 32.60221863 C30.15422308 33.67489522 28.26475773 34.74392439 26.375 35.8125 C23.9027317 37.21323771 21.4315862 38.61593917 18.9609375 40.01953125 C18.06492828 40.52723557 18.06492828 40.52723557 17.15081787 41.04519653 C12.66687177 43.59467193 8.25505307 46.24786498 3.87744141 48.9753418 C2 50 2 50 0 50 C0 33.5 0 17 0 0 Z " fill="#157E93" transform="translate(113,83)"/>
<path d="M0 0 C2.09975582 1.04805173 4.16107069 2.17464939 6.19140625 3.3515625 C6.77736069 3.68868256 7.36331512 4.02580261 7.96702576 4.37313843 C9.83605577 5.45055026 11.6992801 6.53757777 13.5625 7.625 C14.78674026 8.33267019 16.01134689 9.03970697 17.23632812 9.74609375 C20.82980997 11.82117508 24.41569215 13.9091228 28 16 C29.19253322 16.69500818 30.38507861 17.38999547 31.57763672 18.08496094 C34.38572634 19.72222277 37.19320571 21.36051887 40 23 C35.89929401 24.366902 33.44562911 22.80314266 29.6640625 21.18359375 C28.1928788 20.57836152 26.72151905 19.97355706 25.25 19.36914062 C22.93441178 18.40521314 20.62133346 17.43594803 18.31152344 16.45825195 C16.08078668 15.51830536 13.84209674 14.59989036 11.6015625 13.68359375 C10.91494537 13.38577499 10.22832825 13.08795624 9.52090454 12.78111267 C6.44857575 11.53613114 4.52472352 10.87184431 1.25805664 11.66967773 C-0.82812802 12.89874252 -2.78957193 14.15514026 -4.73046875 15.6015625 C-18.22832556 24.94953815 -29.91215031 25.34677585 -46 24 C-43.4935945 21.19044738 -40.70065552 19.52888606 -37.44140625 17.671875 C-36.33216797 17.03636719 -35.22292969 16.40085937 -34.08007812 15.74609375 C-32.90764846 15.08055935 -31.73512207 14.41519534 -30.5625 13.75 C-28.29280887 12.45340484 -26.02327687 11.15653106 -23.75390625 9.859375 C-22.63387207 9.22580078 -21.51383789 8.59222656 -20.35986328 7.93945312 C-18.10228805 6.6362866 -15.86604419 5.29551528 -13.65185547 3.91992188 C-12.07428467 2.94635742 -12.07428467 2.94635742 -10.46484375 1.953125 C-9.53148193 1.36176758 -8.59812012 0.77041016 -7.63647461 0.16113281 C-4.42823234 -1.25181285 -3.27975724 -1.15197305 0 0 Z " fill="#D0E8F7" transform="translate(248,59)"/>
<path d="M0 0 C1.84297301 0.88188402 3.65167833 1.83729468 5.4296875 2.84375 C6.46617432 3.42680908 7.50266113 4.00986816 8.57055664 4.6105957 C9.66102295 5.23409912 10.75148926 5.85760254 11.875 6.5 C12.9880249 7.13059326 14.1010498 7.76118652 15.24780273 8.41088867 C21.54918224 11.99332691 27.83244241 15.60721418 34.0625 19.3125 C34.68044434 19.67859375 35.29838867 20.0446875 35.93505859 20.421875 C37.30860765 21.25124853 38.65794698 22.12057339 40 23 C40 23.33 40 23.66 40 24 C21.28136429 25.89518897 9.38076686 23.53020607 -5.71191406 12.07983398 C-8.89235081 10.57886602 -10.63324152 11.10369115 -14 12 C-16.1513709 12.78750268 -18.28016272 13.63851883 -20.38671875 14.5390625 C-21.57201172 15.03664063 -22.75730469 15.53421875 -23.97851562 16.046875 C-25.84291757 16.83832682 -27.70591999 17.63289326 -29.56762695 18.43066406 C-31.37889627 19.20404166 -33.19524587 19.96548712 -35.01171875 20.7265625 C-36.08897217 21.18627441 -37.16622559 21.64598633 -38.27612305 22.11962891 C-41 23 -41 23 -44 22 C-43.351521 21.62302979 -42.70304199 21.24605957 -42.03491211 20.85766602 C-40.09820574 19.73130708 -38.16187831 18.60429645 -36.22583008 17.47680664 C-34.02741143 16.19699369 -31.82802327 14.91884473 -29.62768555 13.64233398 C-24.79377555 10.83090881 -19.97231199 8.01477136 -15.2421875 5.03125 C-14.56551025 4.6077124 -13.88883301 4.1841748 -13.19165039 3.74780273 C-11.97198056 2.97847741 -10.75965139 2.19734169 -9.55639648 1.40258789 C-5.86029987 -0.91777939 -4.14238076 -1.19120572 0 0 Z " fill="#D0E9F8" transform="translate(159,59)"/>
<path d="M0 0 C23.15222953 -0.84794791 23.15222953 -0.84794791 29.2265625 3.09375 C31.23590432 5.97132594 32.59967397 8.78472628 34 12 C35.41734854 14.28753463 36.96048474 16.48103833 38.5 18.6875 C39.66902637 20.45677645 40.83658448 22.22702901 42 24 C41.01 24.495 41.01 24.495 40 25 C37.39306641 23.75585938 37.39306641 23.75585938 34.1015625 21.84375 C33.51136322 21.50380005 32.92116394 21.1638501 32.31307983 20.81359863 C30.41260911 19.71654465 28.51883204 18.60846716 26.625 17.5 C25.38714157 16.78312358 24.14886442 16.06696965 22.91015625 15.3515625 C20.46341744 13.93701761 18.02162711 12.51442977 15.58300781 11.0859375 C13.20357787 9.69417408 10.81274894 8.32618931 8.40917969 6.9765625 C7.31250977 6.35523437 6.21583984 5.73390625 5.0859375 5.09375 C4.10415527 4.54396484 3.12237305 3.99417969 2.11083984 3.42773438 C1.4142627 2.95658203 0.71768555 2.48542969 0 2 C0 1.34 0 0.68 0 0 Z " fill="#A0BAE1" transform="translate(201,82)"/>
<path d="M0 0 C0.495 0.99 0.495 0.99 1 2 C0.0884314 2.51216064 0.0884314 2.51216064 -0.84155273 3.03466797 C-13.63765207 10.22998803 -26.3817327 17.4967887 -39 25 C-39.33 24.01 -39.66 23.02 -40 22 C-38.84423828 19.83935547 -38.84423828 19.83935547 -37.0703125 17.3671875 C-36.12478516 16.03494141 -36.12478516 16.03494141 -35.16015625 14.67578125 C-34.48855469 13.75152344 -33.81695312 12.82726562 -33.125 11.875 C-32.46113281 10.94300781 -31.79726562 10.01101562 -31.11328125 9.05078125 C-26.25964605 2.25964605 -26.25964605 2.25964605 -25 1 C-23.14825294 0.84213692 -21.2909089 0.74892644 -19.43359375 0.68359375 C-18.30888672 0.64169922 -17.18417969 0.59980469 -16.02539062 0.55664062 C-14.84138672 0.51732422 -13.65738281 0.47800781 -12.4375 0.4375 C-11.24962891 0.39431641 -10.06175781 0.35113281 -8.83789062 0.30664062 C-5.89205216 0.20016454 -2.9461257 0.09815159 0 0 Z " fill="#A0B9E0" transform="translate(199,82)"/>
<path d="M0 0 C-2.5147173 2.81945065 -5.32726801 4.49323604 -8.59375 6.36328125 C-9.7075 7.00330078 -10.82125 7.64332031 -11.96875 8.30273438 C-13.14582589 8.97266933 -14.32290925 9.64259115 -15.5 10.3125 C-16.634375 10.96412109 -17.76875 11.61574219 -18.9375 12.28710938 C-25.9103732 16.28131828 -32.92797087 20.18421482 -40 24 C-31.65690323 2.68660207 -23.02729994 -3.32422156 0 0 Z " fill="#A0B9E0" transform="translate(242,8)"/>
<path d="M0 0 C4.45782504 -0.17600241 8.91474337 -0.28142818 13.375 -0.375 C14.62667969 -0.42527344 15.87835938 -0.47554688 17.16796875 -0.52734375 C25.59321663 -0.65967749 31.41959213 0.50640592 38 6 C38 6.33 38 6.66 38 7 C33.72970179 7.1764773 29.46035837 7.28157988 25.1875 7.375 C23.3940918 7.45041016 23.3940918 7.45041016 21.56445312 7.52734375 C12.85866271 7.66967275 7.19793269 5.90303312 0 1 C0 0.67 0 0.34 0 0 Z " fill="#D2EBF9" transform="translate(205,0)"/>
<path d="M0 0 C4.30326223 1.30374089 7.97255456 2.96426455 11.8515625 5.23046875 C12.95113281 5.86919922 14.05070312 6.50792969 15.18359375 7.16601562 C16.31925781 7.83310547 17.45492188 8.50019531 18.625 9.1875 C19.73746094 9.83525391 20.84992188 10.48300781 21.99609375 11.15039062 C25.33377192 13.09510299 28.66703626 15.04722133 32 17 C34.2780235 18.33049687 36.55697672 19.65938943 38.8359375 20.98828125 C40.32552979 21.85706909 40.32552979 21.85706909 41.84521484 22.7434082 C42.55629395 23.1580835 43.26737305 23.57275879 44 24 C39.98108814 25.33963729 37.47965814 23.98911603 33.69921875 22.53515625 C32.98522415 22.26416611 32.27122955 21.99317596 31.53559875 21.713974 C30.02310296 21.13477671 28.51265881 20.55019771 27.00415039 19.96069336 C24.71514799 19.07321946 22.41454301 18.22282222 20.11132812 17.37304688 C5.86628832 11.94264532 5.86628832 11.94264532 2 4 C1.44058716 2.89217163 1.44058716 2.89217163 0.86987305 1.76196289 C0.58281494 1.18051514 0.29575684 0.59906738 0 0 Z " fill="#E7F3FB" transform="translate(244,58)"/>
<path d="M0 0 C-1.91049004 5.4130551 -4.00215657 9.87176021 -9.12866211 12.7668457 C-10.93475952 13.4642688 -10.93475952 13.4642688 -12.77734375 14.17578125 C-13.42570694 14.43127243 -14.07407013 14.68676361 -14.74208069 14.94999695 C-16.80072404 15.75558265 -18.86858549 16.53373094 -20.9375 17.3125 C-22.322916 17.8531541 -23.70768963 18.39545728 -25.09179688 18.93945312 C-35.96333748 23.16461919 -35.96333748 23.16461919 -41 24 C-38.37792544 21.00809424 -35.31083864 19.32336581 -31.86328125 17.3828125 C-31.26501022 17.04377899 -30.6667392 16.70474548 -30.05033875 16.35543823 C-28.14030275 15.27398688 -26.22664488 14.19915917 -24.3125 13.125 C-21.80718601 11.71342025 -19.30364603 10.29872953 -16.80078125 8.8828125 C-16.20153839 8.54493713 -15.60229553 8.20706177 -14.9848938 7.85894775 C-11.67672204 5.9849093 -8.43111815 4.0440156 -5.23046875 1.9921875 C-2 0 -2 0 0 0 Z " fill="#E8F3FB" transform="translate(156,58)"/>
<path d="M0 0 C-2.76494752 1.84329834 -5.43950504 3.26782532 -8.4375 4.6875 C-9.38496094 5.14511719 -10.33242187 5.60273437 -11.30859375 6.07421875 C-14.13353457 7.04593279 -15.26625567 7.06635417 -18 6 C-6.66287016 -0.88838269 -6.66287016 -0.88838269 0 0 Z " fill="#E5F1FA" transform="translate(175,0)"/>
</svg>
