<?xml version="1.0" encoding="UTF-8"?>
<svg version="1.1" xmlns="http://www.w3.org/2000/svg" width="800" height="600">
<path d="M0 0 C79.53 0 159.06 0 241 0 C241 6.93 241 13.86 241 21 C208 21 175 21 141 21 C141 89.97 141 158.94 141 230 C134.07 230 127.14 230 120 230 C120 161.03 120 92.06 120 21 C87.33 21 54.66 21 21 21 C21.09058213 58.74224345 21.09058213 58.74224345 21.20898438 96.484375 C21.26345379 111.87759314 21.3148676 127.27077808 21.34643555 142.6640625 C21.36944136 153.87538905 21.40286839 165.08662834 21.44870156 176.29788566 C21.47259878 182.23170746 21.49135055 188.16544304 21.49761391 194.09931183 C21.50368052 199.69057496 21.52373753 205.28161757 21.55427551 210.87279892 C21.56303045 212.91891572 21.56678362 214.96506137 21.56500816 217.01119614 C21.55488421 234.07036729 22.88028029 251.26868914 35.26171875 264.41796875 C48.22043792 276.21185923 62.34887711 279.15196371 79.27832031 279.14526367 C80.50037674 279.14862228 81.72243317 279.1519809 82.98152161 279.15544128 C86.31853521 279.16328991 89.65548656 279.1666175 92.99250507 279.16725707 C95.08265 279.16797029 97.1727885 279.17010978 99.26293182 279.17275429 C106.56998607 279.18199347 113.87702214 279.18609107 121.18408203 279.18530273 C127.9703833 279.1847027 134.75660489 279.19524355 141.54288602 279.2110464 C147.38943897 279.22417053 153.23596605 279.22948458 159.0825336 279.22884732 C162.56539896 279.22859372 166.04819346 279.23136831 169.53104401 279.24202538 C173.42209413 279.25360739 177.31303708 279.24892984 181.20410156 279.24291992 C182.90959923 279.25134918 182.90959923 279.25134918 184.64955139 279.25994873 C199.78083923 279.20083188 214.01838699 275.78589428 225.26171875 265 C234.17874952 254.74040505 237.94182999 243.20659087 240 230 C246.93 230 253.86 230 261 230 C261.37125 232.3925 261.7425 234.785 262.125 237.25 C264.48658224 250.48941827 270.49704493 261.61590429 281.4140625 269.8125 C290.57282879 275.6275897 300.61090905 279.10531244 311.49342346 279.14044189 C312.55989609 279.14615204 313.62636871 279.15186218 314.72515869 279.15774536 C315.88005798 279.15886322 317.03495728 279.15998108 318.22485352 279.16113281 C319.4533049 279.16609772 320.68175629 279.17106262 321.94743347 279.17617798 C325.30736391 279.18825341 328.66723238 279.19573658 332.0271771 279.20018864 C334.13224058 279.20312966 336.23729875 279.20723646 338.34235954 279.21169281 C344.94555177 279.22535603 351.54873169 279.23502721 358.15193707 279.2388947 C365.74226348 279.24336619 373.33240898 279.26087657 380.92268044 279.2898953 C386.81000838 279.31161193 392.69728581 279.32160435 398.58465332 279.32293582 C402.09111409 279.32397717 405.59740456 279.32973975 409.10382271 279.34775543 C413.02573414 279.36751457 416.94742509 279.36290766 420.86938477 279.35644531 C422.01011444 279.3656601 423.15084412 279.37487488 424.32614136 279.3843689 C440.07364777 279.3036293 453.23281552 275.30077839 464.7421875 264.38671875 C471.60034398 257.13700662 475.61410113 248.63279477 478 239 C478.33890762 237.80149918 478.67781525 236.60299835 479.0269928 235.36817932 C482.57777957 221.61498792 484.27699167 205.07969694 476.99981976 192.23455334 C470.37780986 181.92307185 461.47134989 173.17312013 452.80859375 164.58984375 C452.17813157 163.96516598 451.54766938 163.34048821 450.89810228 162.69688082 C442.98635974 154.89577145 434.89041427 147.29960408 426.72451556 139.76602232 C418.98627942 132.61961334 411.38709601 125.33006635 403.79101562 118.03320312 C401.12734472 115.47448176 398.46316323 112.91629638 395.79786682 110.35926819 C395.15332222 109.74075267 394.50877761 109.12223715 393.84470135 108.48497874 C390.01781768 104.81971666 386.16592879 101.1833887 382.28802669 97.57215583 C379.89415475 95.34247068 377.50844906 93.10414625 375.12305832 90.86539459 C374.01279992 89.82861357 372.8981599 88.79650275 371.7789669 87.76937294 C370.25682897 86.37222025 368.74998238 84.96025691 367.24559021 83.54405212 C366.39661887 82.75813659 365.54764753 81.97222105 364.67294979 81.16248989 C363 79 363 79 363.15870762 76.81322575 C364.10424407 74.77532421 365.11047945 73.54564096 366.72265625 71.984375 C367.26083984 71.45585937 367.79902344 70.92734375 368.35351562 70.3828125 C368.91748047 69.84398437 369.48144531 69.30515625 370.0625 68.75 C370.63033203 68.19570312 371.19816406 67.64140625 371.78320312 67.0703125 C373.18212469 65.70665786 374.59019114 64.35239583 376 63 C379.62521196 64.55701683 382.14301949 66.75845806 385.03668213 69.41934204 C385.53012611 69.87156549 386.02357009 70.32378894 386.53196692 70.78971612 C388.18264375 72.30606885 389.82641785 73.82967159 391.46972656 75.35400391 C392.65256422 76.44569249 393.83540529 77.53737737 395.01824951 78.62905884 C405.89114692 88.68964485 416.60147743 98.92092224 427.26669693 109.20095253 C434.42052221 116.09006489 441.61697397 122.91746384 448.95019531 129.61572266 C502.18861226 178.3311145 502.18861226 178.3311145 504.12144089 204.89617729 C504.42234996 217.17878347 502.74635426 229.06244052 500 241 C499.70179715 242.42280338 499.40629386 243.84617747 499.11450195 245.27030945 C497.83564484 251.20905122 496.29534178 256.65621142 493.5 262.0625 C493.16033203 262.72950928 492.82066406 263.39651855 492.47070312 264.08374023 C488.70755208 271.09436989 483.69094356 276.5114011 478 282 C477.05060547 282.99580078 477.05060547 282.99580078 476.08203125 284.01171875 C461.85909178 297.98348048 441.42218851 301.1428401 422.41210938 301.16113281 C421.16867767 301.16609772 419.92524597 301.17106262 418.64413452 301.17617798 C415.25106448 301.18823045 411.85805562 301.1957305 408.46497154 301.20018864 C406.33675759 301.20313468 404.20854883 301.20724235 402.08033752 301.21169281 C395.39758949 301.22534798 388.71485357 301.23502307 382.03209257 301.2388947 C374.3631463 301.24336415 366.69437926 301.2608684 359.02548742 301.2898953 C353.06843385 301.31164617 347.11143019 301.32160614 341.15433741 301.32293582 C337.61036409 301.32397475 334.06655966 301.32968422 330.52262878 301.34775543 C304.84088267 301.47114788 280.6534012 300.47424077 261.15625 281.47094727 C257.1907844 277.50001458 253.44220546 273.44313045 250 269 C249.53851563 269.61746094 249.07703125 270.23492187 248.6015625 270.87109375 C236.22687946 286.93861699 220.70622604 297.34567705 200.54454041 300.54901123 C194.85265935 301.22083325 189.15206624 301.15561727 183.42797852 301.16113281 C182.18615311 301.16609772 180.9443277 301.17106262 179.66487122 301.17617798 C176.27586611 301.18823096 172.88692227 301.19573083 169.49790311 301.20018864 C167.37169147 301.203135 165.24548503 301.20724276 163.11927605 301.21169281 C156.44133138 301.22534913 149.76339883 301.23502325 143.08544117 301.2388947 C135.42499484 301.24336227 127.76472811 301.26085723 120.10433632 301.2898953 C114.15236262 301.31165901 108.20043888 301.32160684 102.2484259 301.32293582 C98.70833296 301.323974 95.16840921 301.32966642 91.62835884 301.34775543 C63.25520365 301.48435245 40.95670652 299.42360369 19.31640625 279.375 C5.07507919 264.77343701 -0.1849598 245.95444437 -0.12025452 226.07849121 C-0.12111053 225.11026428 -0.12196655 224.14203735 -0.12284851 223.14447021 C-0.12449735 219.90553926 -0.11899038 216.66666057 -0.11352539 213.42773438 C-0.11321893 211.06385551 -0.11335277 208.69997655 -0.11389065 206.33609772 C-0.11411615 200.01322155 -0.1083257 193.69036437 -0.10128021 187.36749268 C-0.09557984 181.43151795 -0.09531679 175.49554782 -0.09460449 169.55957031 C-0.08935987 152.2063777 -0.07539869 134.85318861 -0.0625 117.5 C-0.041875 78.725 -0.02125 39.95 0 0 Z " fill="#231F20" transform="translate(35,130)"/>
<path d="M0 0 C1.91122902 -0.00744736 1.91122902 -0.00744736 3.86106873 -0.01504517 C7.3429548 -0.02810193 10.82482166 -0.03460152 14.30672836 -0.03905582 C16.48936973 -0.04199892 18.672006 -0.0461061 20.85464478 -0.05056 C27.70451614 -0.06422048 34.55437565 -0.07389284 41.40425968 -0.07776189 C49.2718858 -0.0822319 57.13933726 -0.09973656 65.00691032 -0.12876248 C71.11339601 -0.15049711 77.219833 -0.16047249 83.32635689 -0.16180301 C86.96141424 -0.16284314 90.59630713 -0.1685789 94.23132324 -0.18662262 C130.33982316 -0.35562633 130.33982316 -0.35562633 143.671875 6.97363281 C144.33944824 7.32401611 145.00702148 7.67439941 145.69482422 8.03540039 C150.56911864 10.65016312 155.01485373 13.57557902 159.234375 17.16113281 C160.224375 17.90363281 161.214375 18.64613281 162.234375 19.41113281 C166.55365059 23.02643807 169.82948987 27.710585 173.234375 32.16113281 C173.92660156 31.23494141 173.92660156 31.23494141 174.6328125 30.29003906 C187.89928046 13.06460536 203.7560602 3.32607822 225.234375 0.16113281 C227.13542423 0.07155219 229.03897383 0.02656875 230.94212341 0.02069092 C232.05619064 0.01498077 233.17025787 0.00927063 234.31808472 0.00338745 C236.12987717 0.00171066 236.12987717 0.00171066 237.97827148 0 C239.26203171 -0.0049649 240.54579193 -0.00992981 241.86845398 -0.01504517 C245.38139001 -0.02811939 248.89430697 -0.03460522 252.40726352 -0.03905582 C254.60882808 -0.04199667 256.81038756 -0.04610351 259.01194954 -0.05056 C265.91948942 -0.06422639 272.82701751 -0.07389531 279.73456997 -0.07776189 C287.67125612 -0.0822304 295.60776901 -0.09972551 303.54440254 -0.12876248 C309.70182303 -0.15049649 315.85919522 -0.16047249 322.0166536 -0.16180301 C325.68302439 -0.16284338 329.34923214 -0.16858416 333.01556206 -0.18662262 C360.01729942 -0.31181174 382.77928579 1.3465916 403.484375 20.84863281 C418.58022639 36.69564214 423.58377877 55.79360232 423.46142578 77.07788086 C423.46086025 78.43909191 423.46118098 79.80030358 423.46231079 81.16151428 C423.46287979 84.82195796 423.45119969 88.482268 423.43716288 92.14268088 C423.42457921 95.98100321 423.42347904 99.81932929 423.42111206 103.65766907 C423.41491957 110.91052208 423.39853926 118.1633141 423.37841308 125.41614038 C423.35178259 135.22789462 423.34106339 145.03966578 423.32940865 154.85144711 C423.31065682 170.2880546 423.27079639 185.72453347 423.234375 201.16113281 C383.634375 201.16113281 344.034375 201.16113281 303.234375 201.16113281 C303.234375 234.16113281 303.234375 267.16113281 303.234375 301.16113281 C263.304375 301.16113281 223.374375 301.16113281 182.234375 301.16113281 C182.234375 294.23113281 182.234375 287.30113281 182.234375 280.16113281 C215.234375 280.16113281 248.234375 280.16113281 282.234375 280.16113281 C282.234375 210.86113281 282.234375 141.56113281 282.234375 70.16113281 C289.164375 70.16113281 296.094375 70.16113281 303.234375 70.16113281 C303.234375 106.46113281 303.234375 142.76113281 303.234375 180.16113281 C335.904375 180.16113281 368.574375 180.16113281 402.234375 180.16113281 C402.1376464 159.02430323 402.1376464 159.02430323 402.01229763 137.88769722 C401.9625451 130.32505206 401.91706846 122.76246278 401.88793945 115.19970703 C401.86237543 108.56655442 401.82138364 101.93360999 401.77118874 95.30059052 C401.75456757 92.77623052 401.74302384 90.25183157 401.73676109 87.72742462 C401.72706845 84.17807149 401.69894664 80.62928903 401.66674805 77.08007812 C401.66890068 75.5317907 401.66890068 75.5317907 401.6710968 73.95222473 C401.48059023 58.99929538 396.72679292 46.10717937 386.42578125 35.16113281 C377.44889511 26.96832407 364.87339756 22.05884839 352.74058533 22.02069092 C351.64879974 22.01498077 350.55701416 22.00927063 349.43214417 22.00338745 C348.24402634 22.00226959 347.05590851 22.00115173 345.83178711 22 C344.57261475 21.9950351 343.31344238 21.99007019 342.01611328 21.98495483 C338.56736702 21.97186789 335.1186402 21.96539253 331.669873 21.96094418 C329.5103821 21.95800599 327.35089642 21.95389969 325.19140816 21.94944 C318.4210926 21.9357716 311.65078908 21.9261031 304.88046068 21.92223811 C297.09145446 21.9177661 289.30262449 21.90025547 281.51367182 21.87123752 C275.47691177 21.84953642 269.44020098 21.83952927 263.40340239 21.83819699 C259.8058576 21.83715449 256.20847863 21.83136684 252.61097527 21.81337738 C248.58811853 21.79365224 244.56562461 21.798219 240.54272461 21.8046875 C239.3687764 21.79547272 238.19482819 21.78625793 236.98530579 21.77676392 C222.2587273 21.85054958 209.00235918 25.94047134 198.078125 36.12597656 C188.96995635 46.17969661 185.28064187 58.03092041 183.234375 71.16113281 C176.304375 71.16113281 169.374375 71.16113281 162.234375 71.16113281 C161.986875 69.22238281 161.739375 67.28363281 161.484375 65.28613281 C159.4393072 52.19201814 153.573715 40.68189325 143.234375 32.16113281 C133.88855239 25.56316835 124.14531754 22.05713707 112.65829468 22.02069092 C111.57354858 22.01498077 110.48880249 22.00927063 109.3711853 22.00338745 C107.60842758 22.00171066 107.60842758 22.00171066 105.81005859 22 C104.56049377 21.9950351 103.31092896 21.99007019 102.02349854 21.98495483 C98.60578611 21.97287885 95.18813461 21.96539628 91.77040815 21.96094418 C89.62984044 21.95800373 87.48927797 21.95389706 85.34871292 21.94944 C78.63606588 21.93577761 71.92343094 21.9261056 65.21077096 21.92223811 C57.49082476 21.91776454 49.77105625 21.90024405 42.05116403 21.87123752 C36.06533879 21.84953607 30.07956322 21.83952929 24.0936991 21.83819699 C20.52746772 21.83715472 16.96140365 21.83137175 13.39521408 21.81337738 C9.40838812 21.79365091 5.42192821 21.79821914 1.43505859 21.8046875 C-0.30948105 21.79086533 -0.30948105 21.79086533 -2.08926392 21.77676392 C-17.47282952 21.85453114 -30.27953467 26.12690923 -41.5078125 36.77441406 C-47.67640075 43.29518815 -52.4637738 51.40490121 -54.1796875 60.30999756 C-54.62877921 62.49524976 -55.19039429 64.65762962 -55.79956055 66.80377197 C-59.42112113 80.28793489 -60.95961394 96.33526808 -53.75826263 108.92180252 C-40.66958198 129.17064785 -20.62922446 145.71778396 -3.10130024 161.99463415 C4.00049831 168.59824418 10.97232374 175.33293914 17.93825912 182.07925558 C32.23442679 195.91915631 46.67959205 209.59379269 61.234375 223.16113281 C60.28395413 224.27787793 59.33239892 225.39365771 58.38037109 226.5090332 C57.85059662 227.13048721 57.32082214 227.75194122 56.7749939 228.39222717 C54.89083639 230.55557649 52.90515697 232.58812295 50.859375 234.59863281 C50.17101562 235.27796875 49.48265625 235.95730469 48.7734375 236.65722656 C48.26554687 237.15351563 47.75765625 237.64980469 47.234375 238.16113281 C43.60916304 236.60411598 41.09135551 234.40267476 38.19769287 231.74179077 C37.4575269 231.0634556 37.4575269 231.0634556 36.70240808 230.37141669 C35.05173125 228.85506396 33.40795715 227.33146122 31.76464844 225.80712891 C30.58181078 224.71544033 29.39896971 223.62375544 28.21612549 222.53207397 C17.34322808 212.47148796 6.63289757 202.24021057 -4.03232193 191.96018028 C-11.18614716 185.07106797 -18.38259738 178.24366719 -25.71582031 171.54541016 C-78.95473099 122.82977774 -78.95473099 122.82977774 -80.88706589 96.22262764 C-81.1863395 83.9860455 -79.62021896 72.03774362 -76.765625 60.16113281 C-76.51474373 59.10135098 -76.26386246 58.04156914 -76.00537872 56.9496727 C-74.55791605 50.98464971 -72.97530008 45.5544067 -70.140625 40.09863281 C-69.79362549 39.4230835 -69.44662598 38.74753418 -69.08911133 38.05151367 C-60.23967124 21.4180452 -45.26978363 9.34888262 -27.609375 3.03222656 C-18.37147287 0.40551538 -9.55665651 0.00894037 0 0 Z " fill="#231F20" transform="translate(351.765625,129.8388671875)"/>
</svg>
