<?xml version="1.0" encoding="UTF-8"?>
<svg version="1.1" xmlns="http://www.w3.org/2000/svg" width="788" height="624">
<path d="M0 0 C4.70900751 3.43292889 7.73577399 6.2786499 10.02734375 11.68359375 C11.48893465 15.22509136 11.48893465 15.22509136 14.4453125 17.42578125 C15.97332924 17.85183755 17.51058615 18.2459054 19.0546875 18.609375 C24.43878867 20.31099531 29.1253684 24.45352904 32.3203125 29.02734375 C35.13286044 32.10116663 36.8659564 32.13605635 40.96484375 32.49609375 C64.85554657 35.23562682 85.41699053 47.44556496 100.609375 66.140625 C143.09817249 120.50158532 144.61064599 194.92129122 137.10888672 260.48193359 C133.16140378 292.41230139 125.2867539 324.82675708 112.46484375 354.37109375 C111.67264766 356.32921298 110.88099197 358.28755091 110.08984375 360.24609375 C107.7191938 365.93862623 105.01677834 371.4285537 102.21875 376.921875 C101.1022904 379.117496 100.00383627 381.32243488 98.9296875 383.5390625 C95.55879889 390.48758755 91.76594112 396.95902834 87.46484375 403.37109375 C86.76230469 404.42425781 86.05976563 405.47742188 85.3359375 406.5625 C77.87768883 417.54882456 69.52383802 427.66610155 60.46484375 437.37109375 C59.65660156 438.24507813 58.84835937 439.1190625 58.015625 440.01953125 C47.99725922 450.47217597 36.23304245 459.51025971 23.46484375 466.37109375 C22.54703125 466.86996094 21.62921875 467.36882812 20.68359375 467.8828125 C13.18027112 471.8023113 5.45476229 474.61526577 -2.53515625 477.37109375 C-7.10572618 479.00671577 -9.63271622 480.41322098 -12.53515625 484.37109375 C-14.91015625 485.30859375 -14.91015625 485.30859375 -17.53515625 485.37109375 C-21.02150226 483.74953746 -22.37817819 482.60656083 -24.53515625 479.37109375 C-26.37284437 478.45011206 -26.37284437 478.45011206 -28.54296875 477.828125 C-29.7640332 477.43089233 -29.7640332 477.43089233 -31.00976562 477.02563477 C-31.88439453 476.74776123 -32.75902344 476.4698877 -33.66015625 476.18359375 C-81.52247177 460.16792841 -114.07877922 419.87512952 -136.2109375 376.11328125 C-142.95194199 362.53520651 -148.53325374 348.67356856 -153.53515625 334.37109375 C-153.81166016 333.60007324 -154.08816406 332.82905273 -154.37304688 332.03466797 C-163.43792856 306.56694025 -168.50024993 279.16255222 -171.53515625 252.37109375 C-171.61989197 251.67011566 -171.70462769 250.96913757 -171.79193115 250.24691772 C-173.48064753 236.17384234 -173.93685954 222.22590271 -173.91015625 208.05859375 C-173.90961243 206.96603271 -173.9090686 205.87347168 -173.9085083 204.74780273 C-173.83539315 172.66838377 -170.05386283 140.54875777 -158.53515625 110.37109375 C-158.2815332 109.69820313 -158.02791016 109.0253125 -157.76660156 108.33203125 C-146.80910428 79.53096313 -128.01628516 52.8451192 -99.734375 39 C-89.46128847 34.41452959 -78.81067582 31.78787722 -67.53515625 32.37109375 C-67.24898438 31.76136719 -66.9628125 31.15164062 -66.66796875 30.5234375 C-63.43781177 24.38613923 -56.75758208 19.76658031 -50.2421875 17.61328125 C-48.35402326 17.13873378 -46.44553443 16.74634661 -44.53515625 16.37109375 C-44.49390625 15.71109375 -44.45265625 15.05109375 -44.41015625 14.37109375 C-42.2088753 6.82384478 -36.1832776 1.38128307 -29.47265625 -2.31640625 C-19.67248954 -6.69520414 -8.91775187 -5.72989604 0 0 Z " fill="#2E2B2A" transform="translate(410.53515625,71.62890625)"/>
<path d="M0 0 C6.65200887 -0.28521753 12.62740085 0.73337739 19.07421875 2.19140625 C30.61058075 4.75740677 39.24373795 4.35396347 50.67895508 1.63061523 C66.95135171 -2.10807458 83.2562142 0.40120446 97.51171875 9.19140625 C116.4982631 22.38937 124.57376241 47.9496161 128.65185547 69.56494141 C130.21271539 78.8315776 130.0703073 88.13539821 129.94921875 97.50390625 C129.94206848 98.4896463 129.93491821 99.47538635 129.92755127 100.49099731 C129.75671984 123.10097232 127.14713112 143.55172902 120.51171875 165.19140625 C120.23763184 166.12500977 119.96354492 167.05861328 119.68115234 168.02050781 C109.01432861 204.19281012 89.84413085 238.27366761 64.51171875 266.19140625 C63.82722656 266.9596875 63.14273438 267.72796875 62.4375 268.51953125 C55.20158026 276.22570993 45.37498983 283.31654976 35.51171875 287.19140625 C31.00694042 286.85602512 27.64715908 284.7331623 23.94921875 282.31640625 C23.33860596 281.91929443 22.72799316 281.52218262 22.09887695 281.11303711 C-17.69258025 254.47024076 -45.60666375 198.3726119 -54.91674805 152.55957031 C-55.27549327 150.69765293 -55.61128414 148.83135373 -55.9453125 146.96484375 C-56.34923877 144.2469595 -56.34923877 144.2469595 -57.48828125 142.19140625 C-60.54517203 127.8731199 -60.81561204 113.51887682 -60.86328125 98.94140625 C-60.87086456 98.05251709 -60.87844788 97.16362793 -60.88626099 96.24780273 C-61.08900255 66.83369186 -55.06000592 36.43272017 -34.48828125 14.19140625 C-24.27589586 4.75394441 -13.5695662 1.04381278 0 0 Z " fill="#C4070D" transform="translate(359.48828125,199.80859375)"/>
<path d="M0 0 C1.65 0 3.3 0 5 0 C9.41681677 17.00104333 13.16967231 34.14150558 16.31640625 51.421875 C17.1707767 55.89389402 18.18672139 60.31668645 19.25390625 64.7421875 C20.80676871 71.52274923 22.07234172 78.36162693 23.3671875 85.1953125 C26.84478262 103.59063851 26.84478262 103.59063851 31.1875 121.796875 C32.3774765 126.48812851 33.23093671 131.22371218 34 136 C35.79092627 130.96200229 37.04585541 125.87988579 38.25 120.6796875 C38.46443756 119.76322952 38.67887512 118.84677155 38.89981079 117.90254211 C39.60276044 114.89402664 40.30144159 111.88453785 41 108.875 C41.48733432 106.7855321 41.97480349 104.69609564 42.46240234 102.60668945 C44.97911407 91.8038056 47.46413446 80.9940052 49.9140625 70.17578125 C50.14446228 69.15871094 50.37486206 68.14164062 50.61224365 67.09375 C51.71761817 62.20988077 52.81878887 57.32510924 53.9140625 52.43896484 C54.30987856 50.68196226 54.70571097 48.92496335 55.1015625 47.16796875 C55.28022858 46.36498856 55.45889465 45.56200836 55.64297485 44.73469543 C56.88703562 39.22592875 56.88703562 39.22592875 58 37 C58.09472912 35.48154798 58.1298841 33.95889616 58.125 32.4375 C58.12757813 31.63183594 58.13015625 30.82617188 58.1328125 29.99609375 C58.22011391 28.00057979 58.22011391 28.00057979 57 27 C54.67182036 26.63239269 52.3381615 26.29758419 50 26 C50 22.7 50 19.4 50 16 C60.23 16 70.46 16 81 16 C81 19.3 81 22.6 81 26 C79.60587891 26.19916016 79.60587891 26.19916016 78.18359375 26.40234375 C74.97572946 27.62629087 74.97572946 27.62629087 74.05517578 29.78955078 C73.25580462 32.36199228 72.63921546 34.93091599 72.0625 37.5625 C71.82072021 38.57119141 71.57894043 39.57988281 71.32983398 40.61914062 C70.51698929 44.07224349 69.75276065 47.53331471 69 51 C68.58814453 52.89081299 68.58814453 52.89081299 68.16796875 54.81982422 C66.82950597 60.99759958 65.52236994 67.18165491 64.23422241 73.37010193 C62.39007547 82.22591376 60.44355998 91.05453756 58.4375 99.875 C58.14625244 101.15713379 57.85500488 102.43926758 57.55493164 103.76025391 C56.97946265 106.29205948 56.4037033 108.82379908 55.82763672 111.35546875 C52.31181082 126.83754809 48.90852853 142.34211019 45.625 157.875 C43.14924271 169.58141035 40.67348651 181.2877972 38.16326904 192.98687744 C37.80549659 194.65728005 37.4490835 196.32797441 37.09405518 197.9989624 C36.60006546 200.32299259 36.10140822 202.64597335 35.6015625 204.96875 C35.45396484 205.66811676 35.30636719 206.36748352 35.15429688 207.08804321 C34.1141142 211.8858858 34.1141142 211.8858858 33 213 C31.00041636 213.04080783 28.99954746 213.04254356 27 213 C26.74831055 211.71125977 26.49662109 210.42251953 26.23730469 209.09472656 C25.28349125 204.21150038 24.32908155 199.32839087 23.37451172 194.4453125 C22.96517497 192.35094215 22.55598981 190.25654216 22.14697266 188.16210938 C20.07624985 177.55919455 17.99733913 166.95833962 15.8671875 156.3671875 C14.29648477 148.54944812 12.80476132 140.71987461 11.375 132.875 C10.11778992 126.00012969 8.84162408 119.13285231 7.45556641 112.28271484 C6.63389446 108.16554835 5.889066 104.03410251 5.14453125 99.90234375 C4.28093721 95.21293528 3.19280819 90.61699032 2 86 C1.37436479 90.20823915 0.7496138 94.41660914 0.125 98.625 C-0.04902344 99.79546875 -0.22304688 100.9659375 -0.40234375 102.171875 C-1.27333716 108.04301578 -2.13090609 113.91533995 -2.95703125 119.79296875 C-4.02660992 127.3093804 -5.22688715 134.80288728 -6.42953491 142.29885864 C-8.16495808 153.12309217 -9.87823554 163.94782404 -11.3984375 174.8046875 C-11.50856674 175.5897316 -11.61869598 176.3747757 -11.73216248 177.18360901 C-12.25172642 180.90139542 -12.76293444 184.62011049 -13.26293945 188.34057617 C-14.40341091 196.68297882 -15.94345759 204.83233922 -18 213 C-19.98 213 -21.96 213 -24 213 C-25.5625 206.75 -25.5625 206.75 -26.10351562 204.57495117 C-27.18485393 200.23388083 -28.28245686 195.89769996 -29.40234375 191.56640625 C-33.87469342 174.13031488 -37.8457291 156.59178631 -41.79403687 139.03085327 C-44.96530879 124.92702256 -48.1847383 110.8440615 -51.62670898 96.80371094 C-53.69880289 88.32702098 -55.64960402 79.82613484 -57.5625 71.3125 C-57.99574585 69.39123291 -57.99574585 69.39123291 -58.43774414 67.43115234 C-59.86715632 61.08189348 -61.27917412 54.72936143 -62.66796875 48.37109375 C-63.19513006 45.99735531 -63.7224655 43.62365553 -64.25 41.25 C-64.48404541 40.15469971 -64.71809082 39.05939941 -64.95922852 37.9309082 C-65.18408936 36.92761475 -65.4089502 35.92432129 -65.640625 34.890625 C-65.83172852 34.01438477 -66.02283203 33.13814453 -66.21972656 32.23535156 C-67.0917274 29.7372165 -67.93014414 28.62334216 -70 27 C-70.99 26.67 -71.98 26.34 -73 26 C-73 22.7 -73 19.4 -73 16 C-61.78 16 -50.56 16 -39 16 C-39 18.97 -39 21.94 -39 25 C-40.2065625 25.4640625 -40.2065625 25.4640625 -41.4375 25.9375 C-43.89080405 26.76335345 -43.89080405 26.76335345 -45 28 C-45.25360296 33.03170437 -44.63791932 37.42822145 -43.49609375 42.3203125 C-43.33761963 43.00815826 -43.17914551 43.69600403 -43.01586914 44.4046936 C-42.49721298 46.64660744 -41.96752797 48.88574999 -41.4375 51.125 C-41.07048429 52.70071588 -40.70403661 54.27656416 -40.33813477 55.85253906 C-37.82073569 66.66034649 -35.21836939 77.44766676 -32.58911133 88.22875977 C-29.44491957 101.16911626 -26.53984608 114.16241845 -23.64501953 127.16040039 C-23.12516294 129.44898934 -22.58200651 131.72660148 -22 134 C-19.43062961 121.37181787 -17.32904825 108.73779978 -15.56689453 95.97216797 C-14.39734 87.57856387 -13.05929932 79.22711802 -11.625 70.875 C-10.10409447 62.00652074 -8.70746673 53.13274784 -7.453125 44.22265625 C-7.32179169 43.29038208 -7.19045837 42.35810791 -7.05514526 41.39758301 C-6.40781203 36.78378662 -5.77004922 32.16885017 -5.14306641 27.55224609 C-3.86036891 18.22968845 -2.36325895 9.12151444 0 0 Z " fill="#FDFAFA" transform="translate(390,236)"/>
<path d="M0 0 C29.53693517 22.4711097 43.2589806 57.47886939 50.50048828 92.79785156 C50.73920654 93.95067627 50.9779248 95.10350098 51.22387695 96.29125977 C54.94323895 115.65480982 55.50487901 135.19521017 55.43798828 154.86035156 C55.43616547 155.97903625 55.43434265 157.09772095 55.4324646 158.25030518 C55.3868002 174.92480267 54.82940859 191.18973281 52.12548828 207.67285156 C51.93792969 208.87506348 51.75037109 210.07727539 51.55712891 211.31591797 C49.49995734 224.42289703 47.38580682 237.54717157 43.78125 250.33154297 C42.95922969 253.26645538 42.17210195 256.21035729 41.37939453 259.15332031 C37.48271138 273.41296398 33.08024482 287.14329443 27.12548828 300.67285156 C26.71427734 301.62111816 26.30306641 302.56938477 25.87939453 303.54638672 C5.00392141 351.45311974 -26.31317417 394.06905971 -76.12890625 413.94775391 C-80.59522172 415.67285156 -80.59522172 415.67285156 -82.87451172 415.67285156 C-82.4799492 401.20555926 -82.4799492 401.20555926 -78.38769531 397.22753906 C-74.53885499 394.74808893 -70.25983604 393.19925393 -66.00244141 391.56201172 C-62.67220725 390.17046596 -59.70011048 388.33344802 -56.68701172 386.36035156 C-56.12062988 385.99119629 -55.55424805 385.62204102 -54.97070312 385.24169922 C-41.71329125 376.35661442 -30.67909445 365.19134279 -20.87451172 352.67285156 C-20.45153809 352.13692383 -20.02856445 351.60099609 -19.59277344 351.04882812 C-5.66232176 333.25713437 4.15666884 313.31849529 13.12548828 292.67285156 C13.43180176 291.980625 13.73811523 291.28839844 14.05371094 290.57519531 C21.20035565 274.34339465 26.00496623 256.88927512 30.12548828 239.67285156 C30.31006592 238.90674561 30.49464355 238.14063965 30.68481445 237.35131836 C33.19955198 226.75672062 35.25838967 216.12824074 36.75341797 205.34179688 C37.00746416 203.51946551 37.27158727 201.69851774 37.54443359 199.87890625 C39.81186307 184.50849834 40.39801348 169.37005223 40.37548828 153.86035156 C40.37471283 152.9617038 40.37393738 152.06305603 40.37313843 151.13717651 C40.30824138 125.21421471 37.82366132 99.53188322 30.12548828 74.67285156 C29.90135254 73.94807617 29.6772168 73.22330078 29.44628906 72.4765625 C21.26643871 46.62661906 7.67851317 21.84423507 -16.87451172 8.67285156 C-20.48343869 7.05298792 -24.07773322 5.77239862 -27.87451172 4.67285156 C-28.54611328 4.44984375 -29.21771484 4.22683594 -29.90966797 3.99707031 C-36.29553012 2.06951028 -44.15527338 0.98922159 -50.35107422 3.79394531 C-52.48679544 5.12481769 -52.48679544 5.12481769 -54.35107422 6.57910156 C-55.87451172 7.67285156 -55.87451172 7.67285156 -57.87451172 7.67285156 C-58.30376953 8.53330078 -58.30376953 8.53330078 -58.74169922 9.41113281 C-59.45526723 10.83580825 -60.18725763 12.25154563 -60.94482422 13.65332031 C-65.07728184 22.30087052 -65.43146591 32.56655316 -63.07373047 41.81347656 C-61.44837748 46.00550666 -59.37087131 49.92831217 -56.87451172 53.67285156 C-65.03581598 54.18293308 -71.41233601 51.73020646 -77.87451172 46.67285156 C-83.62666471 41.03078762 -86.14573304 35.81924486 -86.24951172 27.61035156 C-86.00561212 15.01365468 -81.61705514 4.69914932 -72.92529297 -4.35839844 C-52.50770139 -23.29180359 -20.50560025 -14.51790088 0 0 Z " fill="#D3AE85" transform="translate(488.87451171875,125.3271484375)"/>
<path d="M0 0 C1.22493164 -0.01836914 1.22493164 -0.01836914 2.47460938 -0.03710938 C13.17196103 -0.06268073 23.47781345 2.92487396 31.4375 10.375 C40.52627098 20.29976642 44.42366959 31.72941475 44.02734375 45.109375 C43.28689 51.81601356 40.89174262 56.38164819 36 61 C29.47620306 66.21661685 22.96139187 68.58576241 14.6875 69.1875 C15.79342332 66.14621087 17.10487594 63.40077296 18.75 60.625 C23.17400105 52.77596589 23.09456256 41.64903666 20.86328125 32.98828125 C19.91601699 30.6324456 18.89386342 28.4197126 17.6875 26.1875 C17.34847656 25.46304688 17.00945312 24.73859375 16.66015625 23.9921875 C15.35646977 21.57329933 14.22571187 21.21650481 11.6875 20.1875 C10.73875 19.65125 9.79 19.115 8.8125 18.5625 C-0.7215087 14.62718577 -11.52773861 17.07742517 -20.78125 20.65234375 C-42.78869618 30.21974016 -57.4899526 50.4616592 -66.3125 72.1875 C-72.15622647 87.5167315 -76.79512209 102.97005675 -79.3125 119.1875 C-79.47588867 120.21472168 -79.47588867 120.21472168 -79.64257812 121.26269531 C-81.9886198 136.33490643 -82.54810114 151.40260299 -82.5625 166.625 C-82.56450912 167.89216858 -82.56450912 167.89216858 -82.56655884 169.18493652 C-82.56094112 185.68396967 -81.3834649 201.81377631 -79.3125 218.1875 C-79.21098633 219.06067871 -79.10947266 219.93385742 -79.00488281 220.83349609 C-76.42248602 242.78386885 -70.19535466 265.07564408 -63.07324219 285.95703125 C-62.24566567 288.38345584 -61.43992534 290.81669744 -60.6328125 293.25 C-57.16298168 303.57498092 -53.23284226 313.46459603 -48.3125 323.1875 C-47.94785645 323.91791504 -47.58321289 324.64833008 -47.20751953 325.40087891 C-36.35962791 347.02889107 -23.25905552 366.83998213 -6.3125 384.1875 C-4.97832031 385.56035156 -4.97832031 385.56035156 -3.6171875 386.9609375 C7.44290161 397.71294613 22.40232372 408.73573177 37.6875 412.1875 C38.6875 418.1875 39.6875 424.1875 40.6875 430.1875 C33.92541989 428.33481445 27.62848713 426.03986413 21.3125 423 C20.48814453 422.60490234 19.66378906 422.20980469 18.81445312 421.80273438 C11.99981788 418.46745871 5.77339335 414.74302251 -0.3125 410.1875 C-1.17359375 409.548125 -2.0346875 408.90875 -2.921875 408.25 C-35.1700602 383.06206837 -55.96602799 347.48444614 -71.3125 310.1875 C-71.77889893 309.08817139 -72.24529785 307.98884277 -72.72583008 306.85620117 C-77.0311271 296.48832874 -80.30878059 285.91802394 -83.375 275.125 C-83.63707245 274.20708679 -83.8991449 273.28917358 -84.16915894 272.34344482 C-88.46850098 257.18372151 -91.85237757 242.20419478 -93.87304688 226.55712891 C-94.29314768 223.33588931 -94.7750972 220.12910908 -95.265625 216.91796875 C-103.68724326 157.08718274 -99.30694468 84.59276518 -62.296875 34.45703125 C-46.89615202 14.81833954 -25.68364604 0.01998727 0 0 Z " fill="#D3AE85" transform="translate(341.3125,110.8125)"/>
<path d="M0 0 C5.08435802 2.64178739 9.29729965 6.24675772 12.35546875 11.12890625 C13.01171875 13.34375 13.01171875 13.34375 13.35546875 15.12890625 C14.01546875 15.12890625 14.67546875 15.12890625 15.35546875 15.12890625 C15.68546875 14.11828125 16.01546875 13.10765625 16.35546875 12.06640625 C18.68299941 6.69013825 22.97326741 2.66072489 28.3046875 0.24609375 C30.33916536 -0.3399019 32.25016036 -0.65050078 34.35546875 -0.87109375 C35.13921875 -0.97550781 35.92296875 -1.07992187 36.73046875 -1.1875 C43.85046751 -1.71037491 48.83754273 0.71456543 54.35546875 5.12890625 C57.35546875 8.62124761 57.35546875 8.62124761 57.35546875 11.12890625 C56.31648437 11.45761719 55.2775 11.78632812 54.20703125 12.125 C41.28782436 16.43812297 31.92116212 22.79869043 25.35546875 35.12890625 C20.23346849 46.02707529 17.0328719 57.00699738 20.109375 69.08984375 C23.93635651 79.08501898 29.60887825 82.91624411 38.98046875 87.37890625 C44.51450278 89.12649594 50.21685383 89.28705994 55.98046875 89.31640625 C57.25148438 89.33058594 58.5225 89.34476562 59.83203125 89.359375 C64.20916895 89.07306555 67.03362594 88.55661748 70.0625 85.28515625 C74.92951444 77.1685642 75.57192616 67.46682567 73.81640625 58.3203125 C72.54247416 53.6095636 71.20184599 49.33422061 67.35546875 46.12890625 C63.89868428 45.21210405 63.89868428 45.21210405 60.35546875 46.12890625 C56.97817104 49.29973162 55.10884224 51.48555277 54.69140625 56.15234375 C54.6715937 57.60278771 54.68555588 59.05402244 54.73046875 60.50390625 C54.7449707 61.63010376 54.7449707 61.63010376 54.75976562 62.77905273 C54.99566232 68.80293686 56.39578846 72.47628191 60.35546875 77.12890625 C62.83046875 76.63390625 62.83046875 76.63390625 65.35546875 76.12890625 C67.35340996 71.25892455 68.40917182 66.34627097 67.35546875 61.12890625 C65.01797709 58.97287931 65.01797709 58.97287931 62.35546875 58.12890625 C62.68546875 58.83015625 63.01546875 59.53140625 63.35546875 60.25390625 C64.44591437 63.38893741 64.50869518 65.83453807 64.35546875 69.12890625 C63.03546875 69.45890625 61.71546875 69.78890625 60.35546875 70.12890625 C57.5570626 65.37161579 57.67174356 60.50330426 58.35546875 55.12890625 C60.35546875 51.94140625 60.35546875 51.94140625 62.35546875 50.12890625 C64.10546875 50.25390625 64.10546875 50.25390625 66.35546875 51.12890625 C71.57866753 57.84444754 72.00880127 63.83043709 71.35546875 72.12890625 C70.32236677 76.48930907 68.8714855 80.21465276 65.35546875 83.12890625 C62.10546875 83.81640625 62.10546875 83.81640625 58.35546875 83.12890625 C52.77401864 78.8055699 49.54885464 73.01463722 48.35546875 66.12890625 C47.37707927 57.37836663 48.15622412 50.39972491 53.35546875 43.12890625 C56.59629764 39.62070898 59.80807604 37.31116563 64.703125 36.9609375 C82.35732431 36.83392887 95.29923063 43.50392625 107.8671875 55.515625 C109.09888672 56.80919922 109.09888672 56.80919922 110.35546875 58.12890625 C111.14566406 58.93972656 111.93585938 59.75054687 112.75 60.5859375 C114.35546875 63.12890625 114.35546875 63.12890625 114.3125 66.12109375 C109.42144439 81.49298281 92.26096955 93.6380212 79.35546875 102.12890625 C78.48277344 102.72960937 77.61007812 103.3303125 76.7109375 103.94921875 C73.96115604 105.32638956 73.00972929 105.28579311 70.10546875 104.44140625 C69.4196875 104.25191406 68.73390625 104.06242187 68.02734375 103.8671875 C67.145625 103.62355469 66.26390625 103.37992187 65.35546875 103.12890625 C59.20223288 101.51968031 53.40234265 100.74430285 47.04296875 100.75390625 C46.18920654 100.75189209 45.33544434 100.74987793 44.45581055 100.74780273 C37.1734394 100.86031034 30.30159849 102.04104574 23.24291992 103.79345703 C15.2298065 105.70736125 8.65351602 104.52353129 0.73046875 102.56640625 C-12.44464958 99.88086245 -27.83417569 98.70690686 -40.33984375 104.3515625 C-43.32359682 105.35794701 -44.66517295 105.15765329 -47.64453125 104.12890625 C-49.9774275 102.69327779 -52.13801401 101.25038774 -54.33203125 99.62890625 C-54.9463501 99.18184326 -55.56066895 98.73478027 -56.19360352 98.27416992 C-61.66539101 94.23185214 -66.729438 89.8322181 -71.64453125 85.12890625 C-72.29035156 84.53464844 -72.93617188 83.94039063 -73.6015625 83.328125 C-78.88884592 78.31730084 -83.07792608 72.78431832 -85.95703125 66.06640625 C-85.43140408 61.12551081 -82.10904729 58.47395622 -78.64453125 55.12890625 C-77.94457031 54.443125 -77.24460937 53.75734375 -76.5234375 53.05078125 C-66.0921788 43.30750218 -54.20816498 37.0712765 -39.70703125 36.69140625 C-33.15682366 36.93575816 -29.59340176 38.13471317 -24.95703125 42.87890625 C-19.29822823 50.8318186 -18.69455793 57.42406519 -19.64453125 67.12890625 C-21.06593748 73.44908753 -23.61977037 78.19862559 -28.84375 82.125 C-31.70091178 83.71782121 -33.47976729 83.90251522 -36.64453125 83.12890625 C-41.52764564 78.51707599 -42.74699723 73.32996922 -43.01953125 66.81640625 C-42.91563128 60.47850797 -41.19641866 54.68079366 -36.64453125 50.12890625 C-33.96556226 50.30174296 -32.89920398 50.86372518 -31.03515625 52.8046875 C-29.26108814 55.76977324 -29.2766986 57.75652583 -29.33203125 61.19140625 C-29.33589844 62.23425781 -29.33976562 63.27710938 -29.34375 64.3515625 C-29.64453125 67.12890625 -29.64453125 67.12890625 -31.64453125 70.12890625 C-32.96453125 69.79890625 -34.28453125 69.46890625 -35.64453125 69.12890625 C-35.84075366 64.91012433 -35.44683293 61.95879731 -33.64453125 58.12890625 C-35.6198987 58.47677333 -35.6198987 58.47677333 -37.64453125 59.12890625 C-39.61692101 63.07368577 -39.26962417 68.13006262 -37.97265625 72.27734375 C-37.26039122 73.92361669 -36.4602874 75.5313838 -35.64453125 77.12890625 C-33.26556122 77.17400986 -33.26556122 77.17400986 -30.64453125 76.12890625 C-26.90026734 70.8473077 -26.00895707 66.89848861 -26.14453125 60.50390625 C-26.1290625 59.7665625 -26.11359375 59.02921875 -26.09765625 58.26953125 C-26.12451817 54.5222933 -26.50776871 52.3413366 -28.55078125 49.16796875 C-31.06189789 46.72244098 -32.04336971 46.20731862 -35.51953125 45.75390625 C-38.72301224 45.84473237 -38.72301224 45.84473237 -40.83203125 48.00390625 C-46.02097581 56.9503624 -47.37796621 67.23765258 -44.84765625 77.296875 C-42.87816279 83.47143798 -42.87816279 83.47143798 -38.64453125 88.12890625 C-26.03613654 90.69186779 -12.51381665 89.13045656 -1.21484375 82.96875 C4.64478488 78.77439577 7.45595565 72.94182656 9.35546875 66.12890625 C10.8980986 52.24523761 7.77558653 39.44063963 -0.8359375 28.2734375 C-1.43277344 27.56574219 -2.02960938 26.85804687 -2.64453125 26.12890625 C-3.18980469 25.47277344 -3.73507812 24.81664063 -4.296875 24.140625 C-10.79984846 16.99500475 -19.56869781 13.82534952 -28.64453125 11.12890625 C-27.33568023 5.56628941 -23.25567154 3.01429305 -18.64453125 0.12890625 C-12.7801944 -1.8258727 -5.88752915 -1.93931906 0 0 Z " fill="#D5B28A" transform="translate(379.64453125,94.87109375)"/>
<path d="M0 0 C0.2803543 29.21076153 -0.33499375 57.24184922 -6 86 C-6.17901855 86.92216309 -6.35803711 87.84432617 -6.54248047 88.79443359 C-11.71358381 115.05588884 -18.36351021 142.25152991 -31 166 C-31.96338715 167.91413142 -32.92203922 169.83065646 -33.875 171.75 C-34.58333333 173.16666667 -35.29166667 174.58333333 -36 176 C-46.99533005 175.29062387 -55.13699708 171.42246589 -64 165 C-63.37634971 160.94161898 -62.05665297 157.73250998 -60.234375 154.0625 C-59.39326172 152.34740234 -59.39326172 152.34740234 -58.53515625 150.59765625 C-57.94076331 149.39811066 -57.34570891 148.19889261 -56.75 147 C-40.44756489 114.13868699 -30.7614336 77.71025428 -30.86962891 40.91552734 C-30.87495578 38.76783068 -30.86967172 36.62034631 -30.86328125 34.47265625 C-30.85946348 25.60168776 -31.23370308 16.84296169 -32 8 C-30.65711914 7.81606689 -30.65711914 7.81606689 -29.28710938 7.62841797 C-20.05645446 6.3413146 -8.7974925 0 0 0 Z " fill="#E0C6A9" transform="translate(525,260)"/>
<path d="M0 0 C0.56847656 0.19190918 1.13695312 0.38381836 1.72265625 0.58154297 C16.57211281 5.59850429 16.57211281 5.59850429 32 8 C31.89606934 9.26686646 31.89606934 9.26686646 31.79003906 10.55932617 C27.92218185 60.54208957 36.27944752 109.20879015 59.87890625 153.53125 C60.43449219 154.5934375 60.99007812 155.655625 61.5625 156.75 C62.05878906 157.67296875 62.55507813 158.5959375 63.06640625 159.546875 C64 162 64 162 63.8515625 164.17578125 C61.23692985 169.77685211 53.1441154 171.82994553 47.8125 173.8125 C43.70297145 175.28504331 40.37734174 176.28852535 36 176 C30.76932101 166.87950135 26.61602253 157.86479369 23.32421875 147.875 C22.51851388 145.43040122 21.63997866 143.19984268 20.578125 140.83984375 C18.14043667 135.29329912 16.69726246 129.38225435 15.0625 123.5625 C14.72798828 122.39267578 14.39347656 121.22285156 14.04882812 120.01757812 C10.04175666 105.88087704 6.57162988 91.84392541 4.18969727 77.34594727 C3.8129371 75.06514606 3.41973657 72.78758406 3.02539062 70.50976562 C0.11695871 53.32137097 -0.14618802 36.33671404 -0.0625 18.9375 C-0.05746727 17.08789186 -0.05290755 15.23828237 -0.04882812 13.38867188 C-0.03798061 8.92574694 -0.02081721 4.4628891 0 0 Z " fill="#E0C6A8" transform="translate(263,260)"/>
<path d="M0 0 C0.66 0 1.32 0 2 0 C3.0859375 1.73046875 3.0859375 1.73046875 4.375 4.1875 C12.89949192 18.7802743 26.61749661 29.53970389 41 38 C39.52960413 41.67197219 37.63912387 43.18784567 34.4375 45.4375 C18.01292872 58.24109231 9.15582224 81.98172463 6 102 C-0.36857691 102.57896154 -5.62365281 101.48112423 -11.6875 99.6875 C-12.41187256 99.47456299 -13.13624512 99.26162598 -13.88256836 99.04223633 C-18.1543907 97.72703819 -22.04661555 96.12299858 -26 94 C-27.82734193 62.32607328 -17.59020309 26.38530464 0 0 Z " fill="#DABB97" transform="translate(290,163)"/>
<path d="M0 0 C0.66 0 1.32 0 2 0 C6.85748472 6.80258142 11.0321278 14.18304528 14 22 C14.33596191 22.88099365 14.33596191 22.88099365 14.67871094 23.77978516 C23.01393435 45.86433354 29.37091317 70.23750499 28 94 C7.31248913 102.16207004 7.31248913 102.16207004 -4 102 C-4.20753906 100.97003906 -4.41507812 99.94007813 -4.62890625 98.87890625 C-9.50016716 75.90310994 -18.99064944 56.43838174 -37.56640625 41.375 C-38.03949219 40.92125 -38.51257813 40.4675 -39 40 C-39 39.34 -39 38.68 -39 38 C-37.2760545 36.74540092 -35.49232005 35.57267907 -33.6875 34.4375 C-19.79619216 25.38933365 -7.52203087 15.04406173 0 0 Z " fill="#DBBB98" transform="translate(496,163)"/>
<path d="M0 0 C2.15934581 1.06531139 4.25958801 2.15167914 6.33984375 3.3671875 C12.5374209 6.96457815 18.52442552 9.28419885 25.4453125 11.140625 C28 12 28 12 29 14 C28.35424805 15.65722656 28.35424805 15.65722656 27.26171875 17.640625 C26.85880615 18.37466553 26.45589355 19.10870605 26.04077148 19.86499023 C25.59419189 20.65204346 25.1476123 21.43909668 24.6875 22.25 C24.00506226 23.46248413 24.00506226 23.46248413 23.30883789 24.69946289 C19.02078647 32.18675942 14.23637439 39.15112782 9 46 C8.31808594 46.90621094 7.63617188 47.81242187 6.93359375 48.74609375 C-12.97541381 74.17068974 -12.97541381 74.17068974 -25 80 C-29.78486393 79.90154601 -32.6977206 75.76614907 -35.8347168 72.57983398 C-39.8994033 68.3276834 -44.11543924 63.65368227 -46 58 C-44.92928521 53.88186619 -41.40190663 51.39690581 -38.3125 48.6875 C-31.16746791 42.34548556 -24.59924526 35.87645672 -18.8125 28.25 C-18.26440674 27.53207275 -17.71631348 26.81414551 -17.15161133 26.07446289 C-10.89318643 17.73497068 -5.40799997 8.9061663 0 0 Z " fill="#D5B086" transform="translate(458,427)"/>
<path d="M0 0 C0.66 0 1.32 0 2 0 C3.53916302 2.30567847 4.96707102 4.61553784 6.375 7 C14.58068841 20.47829254 24.03866852 32.65710318 35 44 C35.6703125 44.69867188 36.340625 45.39734375 37.03125 46.1171875 C40.50312532 49.66520043 44.13328479 52.88776581 48 56 C45.70191559 65.95836578 37.10151305 73.18834463 30 80 C4.9878371 70.97634754 -15.34540337 37.50343018 -26.2578125 14.625 C-26.50273437 14.08875 -26.74765625 13.5525 -27 13 C-25.845 12.67 -24.69 12.34 -23.5 12 C-18.64117322 10.39075657 -14.13249345 8.21840175 -9.5625 5.9375 C-8.85222656 5.58494141 -8.14195312 5.23238281 -7.41015625 4.86914062 C-4.6093806 3.44990143 -2.23474291 2.23474291 0 0 Z " fill="#D5B086" transform="translate(328,427)"/>
<path d="M0 0 C6.15621716 4.56848232 9.22278279 10.04334836 11.60546875 17.19140625 C11.72802043 20.01579495 11.79059744 22.80467387 11.79296875 25.62890625 C11.80521484 26.39267578 11.81746094 27.15644531 11.83007812 27.94335938 C11.84815621 34.86726476 11.84815621 34.86726476 9.60546875 38.19140625 C9.60546875 37.53140625 9.60546875 36.87140625 9.60546875 36.19140625 C7.95546875 37.18140625 6.30546875 38.17140625 4.60546875 39.19140625 C4.93546875 38.32515625 5.26546875 37.45890625 5.60546875 36.56640625 C7.79018068 28.70463268 7.92176092 20.00370095 4.41796875 12.56640625 C1.6790011 7.84110512 -1.14194558 4.94226814 -6.39453125 3.19140625 C-21.89845996 1.81277702 -34.2998882 6.70245583 -46.16015625 16.46875 C-52.35459614 21.81702169 -52.35459614 21.81702169 -57.39453125 28.19140625 C-57.26159623 38.3609353 -47.07985241 46.9818705 -40.29296875 53.59765625 C-35.91891507 57.51190375 -31.26071876 60.90649438 -26.39453125 64.19140625 C-26.88953125 66.17140625 -26.88953125 66.17140625 -27.39453125 68.19140625 C-56.36347971 47.97923118 -56.36347971 47.97923118 -60.39453125 33.19140625 C-61.05453125 33.19140625 -61.71453125 33.19140625 -62.39453125 33.19140625 C-62.63945312 33.86429688 -62.884375 34.5371875 -63.13671875 35.23046875 C-64.36207157 38.11499496 -65.81803848 40.78110745 -67.36425781 43.50366211 C-81.79691886 69.27322111 -86.60540355 98.03742378 -88.39453125 127.19140625 C-83.40492332 128.88791458 -78.42769851 130.52436179 -73.33203125 131.87890625 C-71.92244141 132.25595703 -71.92244141 132.25595703 -70.484375 132.640625 C-69.79472656 132.82238281 -69.10507812 133.00414062 -68.39453125 133.19140625 C-69.05453125 133.52140625 -69.71453125 133.85140625 -70.39453125 134.19140625 C-70.39453125 134.85140625 -70.39453125 135.51140625 -70.39453125 136.19140625 C-69.40453125 136.52140625 -68.41453125 136.85140625 -67.39453125 137.19140625 C-74.99722805 136.500252 -83.01410704 134.44502239 -89.39453125 130.19140625 C-89.27433969 135.57683829 -89.15001866 140.96215529 -89.0222168 146.34741211 C-88.97947364 148.17128043 -88.93777039 149.99517348 -88.8972168 151.8190918 C-88.50010315 169.62056901 -87.78309963 186.99548336 -84.76953125 204.56640625 C-84.63958771 205.33844391 -84.50964417 206.11048157 -84.37576294 206.90591431 C-82.05295529 220.61982277 -78.99544488 234.01878275 -75.18652344 247.40429688 C-74.47560714 249.90609108 -73.79303435 252.4133077 -73.12109375 254.92578125 C-70.68805445 263.81902892 -67.50311906 272.28418546 -63.89672852 280.77124023 C-63.55826904 281.57891846 -63.21980957 282.38659668 -62.87109375 283.21875 C-62.56252441 283.93796631 -62.25395508 284.65718262 -61.93603516 285.39819336 C-61.39453125 287.19140625 -61.39453125 287.19140625 -62.39453125 289.19140625 C-64.45703125 289.81640625 -64.45703125 289.81640625 -66.39453125 290.19140625 C-91.12743857 235.14074158 -100.88108894 168.05216088 -92.39453125 108.19140625 C-92.28157715 107.29663574 -92.16862305 106.40186523 -92.05224609 105.47998047 C-89.12614493 82.57648178 -83.15518098 59.22806876 -71.39453125 39.19140625 C-70.80929687 38.1859375 -70.2240625 37.18046875 -69.62109375 36.14453125 C-58.78849939 18.40064366 -44.55635525 4.10584145 -24.28125 -1.890625 C-16.11047606 -3.82040578 -7.41054721 -4.53481247 0 0 Z " fill="#33302E" transform="translate(352.39453125,129.80859375)"/>
<path d="M0 0 C3.73833572 0.56502087 6.26289087 1.59913535 9.4375 3.625 C12.29013062 5.24164734 13.68186136 5.98674422 17 6.125 C20.57983273 4.78256272 23.65170506 2.94599548 26.8515625 0.86328125 C29 0 29 0 31.10546875 0.60546875 C33.28686602 2.21115705 34.30539818 3.67574469 35.6875 6 C39.23199232 11.58416181 43.95910669 18.97955335 50 22 C50 22.66 50 23.32 50 24 C47.42362412 25.36907416 44.84031896 26.72028455 42.25 28.0625 C41.52039063 28.45244141 40.79078125 28.84238281 40.0390625 29.24414062 C39.33007812 29.60830078 38.62109375 29.97246094 37.890625 30.34765625 C37.24125977 30.68804932 36.59189453 31.02844238 35.92285156 31.37915039 C33.50920641 32.15846725 32.34257939 31.92814117 30 31 C28.31288577 29.3540349 26.6454378 27.68762851 25 26 C19.48589252 24.16196417 12.38552044 23.8141462 6.84765625 25.75390625 C4.44397617 27.2525332 3.15262285 28.60754125 2.125 31.25 C2.08375 31.8275 2.0425 32.405 2 33 C-2.86872054 32.40440894 -6.59328841 30.27522585 -10.8125 27.9375 C-11.50537109 27.56044922 -12.19824219 27.18339844 -12.91210938 26.79492188 C-14.61128985 25.86916148 -16.30609425 24.93537688 -18 24 C-18 23.34 -18 22.68 -18 22 C-16.49609375 20.58984375 -16.49609375 20.58984375 -14.4375 18.9375 C-8.22630277 13.6513747 -3.26727542 7.4955142 0 0 Z " fill="#D0A97D" transform="translate(378,486)"/>
<path d="M0 0 C0.70415039 0.00241699 1.40830078 0.00483398 2.13378906 0.00732422 C8.56071631 0.23379125 12.69975929 2.03368157 17.1875 6.5625 C19.72443122 9.46085704 21.1875 11.58088086 21.1875 15.5625 C20.47464844 15.78164062 19.76179688 16.00078125 19.02734375 16.2265625 C11.29310727 18.78729221 5.76149129 21.70151306 1.1875 28.5625 C-1.8125 27.5625 -1.8125 27.5625 -3.625 25.25 C-8.24721675 19.57127656 -14.01041352 17.5577787 -20.8125 15.5625 C-20.53698598 11.0165186 -18.48628005 8.55929456 -15.67578125 5.2109375 C-10.96299606 1.04155521 -6.14941218 -0.02195173 0 0 Z " fill="#D0A97D" transform="translate(393.8125,73.4375)"/>
<path d="M0 0 C0.7528125 0.06703125 1.505625 0.1340625 2.28125 0.203125 C5.12520116 0.90409888 6.50065593 1.58106871 8.5 3.75 C9.88415744 12.23814196 8.99348764 20.36344498 4.5 27.75 C4.16484375 28.36875 3.8296875 28.9875 3.484375 29.625 C2.5 31.3125 2.5 31.3125 0.5 33.75 C-0.82 33.75 -2.14 33.75 -3.5 33.75 C-5.65321356 31.40159428 -7.00028543 28.54946721 -8.5 25.75 C-9.098125 24.739375 -9.69625 23.72875 -10.3125 22.6875 C-12.6158541 17.04099194 -12.21125087 9.69103671 -11.5 3.75 C-10.02801685 1.5646017 -9.04239083 0.95006219 -6.59375 0.046875 C-4.29643243 -0.27886406 -2.30774322 -0.23709691 0 0 Z " fill="#D1AA7D" transform="translate(395.5,514.25)"/>
<path d="M0 0 C0.66 0 1.32 0 2 0 C7.88422999 12.57558887 19.97903718 39.23038682 15 53 C14.34 52.67 13.68 52.34 13 52 C12.34 52.99 11.68 53.98 11 55 C10.82984375 53.88625 10.6596875 52.7725 10.484375 51.625 C8.19452072 37.0372434 5.02130331 23.15094201 -0.14453125 9.3046875 C-1.06342944 5.7549712 -0.87375343 3.52717643 0 0 Z " fill="#373230" transform="translate(511,181)"/>
<path d="M0 0 C1.75 0.125 1.75 0.125 4 1 C8.07240019 6.2359431 9.14287388 9.993909 9.125 16.5 C9.12757813 17.4384375 9.13015625 18.376875 9.1328125 19.34375 C9.01204974 21.7590052 8.81719696 23.72889434 8 26 C5.6875 27.8125 5.6875 27.8125 3 29 C0.6875 28.6875 0.6875 28.6875 -1 28 C-0.38125 27.79375 0.2375 27.5875 0.875 27.375 C3.99056777 25.35904438 4.21552427 23.59551378 5 20 C5.39464921 16.91647417 5.6183483 14.06172459 5 11 C2.66250834 8.84397306 2.66250834 8.84397306 0 8 C0.33 8.70125 0.66 9.4025 1 10.125 C2.09044562 13.26003116 2.15322643 15.70563182 2 19 C0.68 19.33 -0.64 19.66 -2 20 C-4.79840615 15.24270954 -4.68372519 10.37439801 -4 5 C-2 1.8125 -2 1.8125 0 0 Z " fill="#C7A37B" transform="translate(442,145)"/>
<path d="M0 0 C2.67896899 0.17283671 3.74532727 0.73481893 5.609375 2.67578125 C7.38344311 5.64086699 7.36783265 7.62761958 7.3125 11.0625 C7.30863281 12.10535156 7.30476563 13.14820313 7.30078125 14.22265625 C7 17 7 17 5 20 C3.68 19.67 2.36 19.34 1 19 C0.80377759 14.78121808 1.19769832 11.82989106 3 8 C1.02463255 8.34786708 1.02463255 8.34786708 -1 9 C-3.29771645 13.59543291 -2.24581251 20.17247654 -1 25 C-2.32 25 -3.64 25 -5 25 C-7.45315853 17.64052441 -6.41944606 10.63686544 -3.0703125 3.77734375 C-2 2 -2 2 0 0 Z " fill="#CAA77F" transform="translate(343,145)"/>
<path d="M0 0 C0.495 1.485 0.495 1.485 1 3 C-4.57340971 12.70474838 -13.87799743 20.37609421 -22.75 26.9375 C-23.38808594 27.4104248 -24.02617187 27.88334961 -24.68359375 28.37060547 C-28.03949761 30.79167552 -31.11660177 32.51136401 -35 34 C-35.33 34.66 -35.66 35.32 -36 36 C-36.33 34.35 -36.66 32.7 -37 31 C-36.12859375 30.47792969 -35.2571875 29.95585937 -34.359375 29.41796875 C-22.83030681 22.35523356 -13.34974142 14.15786453 -4.62109375 3.77734375 C-3 2 -3 2 0 0 Z " fill="#373330" transform="translate(492,167)"/>
<path d="M0 0 C0.4846875 0.38671875 0.969375 0.7734375 1.46875 1.171875 C10.0894871 7.86952459 18.75084552 12.56245772 30 12 C29.34 13.65 28.68 15.3 28 17 C18.40295282 15.142507 7.05422078 12.24165176 0 5 C-0.2421875 2.30859375 -0.2421875 2.30859375 0 0 Z " fill="#353130" transform="translate(460,423)"/>
<path d="M0 0 C0.99 0 1.98 0 3 0 C1.53978477 9.49139902 -5.89314605 16.98760156 -13 23 C-13.66 23 -14.32 23 -15 23 C-15.33 23.66 -15.66 24.32 -16 25 C-14.97812833 19.481893 -11.82824296 15.62926411 -8.0625 11.625 C-4.7155809 7.94523812 -2.25748369 4.42090556 0 0 Z " fill="#393430" transform="translate(375,485)"/>
<path d="M0 0 C0.8125 1.6875 0.8125 1.6875 1 4 C-2.37745339 7.94668711 -5.73671168 10.16973783 -10.4375 12.3125 C-11.52933594 12.82425781 -12.62117188 13.33601563 -13.74609375 13.86328125 C-17.06707868 15.02343325 -19.51336867 15.22613144 -23 15 C-23 14.01 -23 13.02 -23 12 C-22.0821875 11.69707031 -21.164375 11.39414062 -20.21875 11.08203125 C-8.49144528 7.74436646 -8.49144528 7.74436646 0 0 Z " fill="#3B3633" transform="translate(327,423)"/>
<path d="M0 0 C0.66 0.33 1.32 0.66 2 1 C1.4921875 2.828125 1.4921875 2.828125 0 5 C-2.6643474 6.11258463 -5.11676428 6.97378853 -7.875 7.75 C-8.59558594 7.97042969 -9.31617188 8.19085938 -10.05859375 8.41796875 C-13.53513046 9.44876509 -16.34783256 10 -20 10 C-20 9.34 -20 8.68 -20 8 C-21.32 7.67 -22.64 7.34 -24 7 C-22.9378125 6.74605469 -21.875625 6.49210937 -20.78125 6.23046875 C-11.82519178 4.13176525 -11.82519178 4.13176525 -3.125 1.1875 C-1.578125 0.5996875 -1.578125 0.5996875 0 0 Z " fill="#3E3A36" transform="translate(522,257)"/>
<path d="M0 0 C6.01077136 1.63040815 12.01663928 3.27147357 18 5 C17.01 5.495 17.01 5.495 16 6 C16 6.66 16 7.32 16 8 C16.99 8.33 17.98 8.66 19 9 C12.4016516 8.40015015 6.11110263 6.55432523 0 4 C-0.33 3.34 -0.66 2.68 -1 2 C-0.67 1.34 -0.34 0.68 0 0 Z " fill="#393533" transform="translate(266,258)"/>
<path d="M0 0 C0.33 0.99 0.66 1.98 1 3 C1.66 3 2.32 3 3 3 C4.35439668 5.70879335 4.06501451 8.00933268 4 11 C2.0625 11.5625 2.0625 11.5625 0 12 C-1 11 -1 11 -1.1328125 8.75 C-1.13023437 7.8425 -1.12765625 6.935 -1.125 6 C-1.12757813 5.0925 -1.13015625 4.185 -1.1328125 3.25 C-1 1 -1 1 0 0 Z " fill="#CCAA83" transform="translate(440,153)"/>
<path d="M0 0 C4.29 0.33 8.58 0.66 13 1 C12.34 2.65 11.68 4.3 11 6 C9.58194169 5.71517632 8.16559621 5.42181856 6.75 5.125 C5.96109375 4.96257812 5.1721875 4.80015625 4.359375 4.6328125 C2.03168856 4.00849925 0.10968048 3.15161458 -2 2 C-1.34 2 -0.68 2 0 2 C0 1.34 0 0.68 0 0 Z " fill="#423C37" transform="translate(477,434)"/>
<path d="M0 0 C0.33 0 0.66 0 1 0 C1.2833062 3.70816341 1.4412957 7.30074348 1 11 C-1.25 13.25 -1.25 13.25 -4 14 C-6.3125 13.6875 -6.3125 13.6875 -8 13 C-7.38640625 12.78601563 -6.7728125 12.57203125 -6.140625 12.3515625 C-3.19315811 10.49057063 -2.81543218 8.64739883 -1.75 5.375 C-1.41484375 4.37210938 -1.0796875 3.36921875 -0.734375 2.3359375 C-0.49203125 1.56507813 -0.2496875 0.79421875 0 0 Z " fill="#C6A783" transform="translate(449,160)"/>
<path d="M0 0 C0.33 0 0.66 0 1 0 C1.04898437 0.58007812 1.09796875 1.16015625 1.1484375 1.7578125 C1.59649405 6.43923092 2.298021 10.57485459 4 15 C2.68 15 1.36 15 0 15 C-1.03876383 11.88370851 -1.13361625 9.6405571 -1.125 6.375 C-1.12757813 5.39273438 -1.13015625 4.41046875 -1.1328125 3.3984375 C-1 1 -1 1 0 0 Z " fill="#BA9C79" transform="translate(338,155)"/>
<path d="M0 0 C4.455 0.99 4.455 0.99 9 2 C8.01 2.495 8.01 2.495 7 3 C7 3.66 7 4.32 7 5 C7.99 5.33 8.98 5.66 10 6 C5.94393835 5.53199289 2.53411321 5.12046792 -1 3 C-0.67 2.01 -0.34 1.02 0 0 Z " fill="#46413C" transform="translate(275,261)"/>
<path d="M0 0 C0.33 0.66 0.66 1.32 1 2 C-1.31 2.33 -3.62 2.66 -6 3 C-6 2.34 -6 1.68 -6 1 C-7.32 0.67 -8.64 0.34 -10 0 C-3.34250344 -1.36176066 -3.34250344 -1.36176066 0 0 Z " fill="#443F3C" transform="translate(508,264)"/>
<path d="M0 0 C0.99 0.33 1.98 0.66 3 1 C3 4.63 3 8.26 3 12 C2.67 12 2.34 12 2 12 C1.67 10.35 1.34 8.7 1 7 C0.67 7 0.34 7 0 7 C0 4.69 0 2.38 0 0 Z " fill="#B69775" transform="translate(448,155)"/>
<path d="M0 0 C0 3 0 3 -2.5 5.6875 C-3.325 6.450625 -4.15 7.21375 -5 8 C-5.66 7.67 -6.32 7.34 -7 7 C-4.78071806 4.09197539 -3.07030857 2.04687238 0 0 Z " fill="#1A181A" transform="translate(351,94)"/>
</svg>
